<?xml version="1.0" encoding="UTF-8" standalone="no"?><svg xmlns="http://www.w3.org/2000/svg" xmlns:xlink="http://www.w3.org/1999/xlink" clip-rule="evenodd" stroke-miterlimit="4.00" viewBox="0 0 316 167"><desc>SVG generated by Keynote</desc><defs><pattern id="4DEA6FCE-83A7-4B45-B6DA-2606367361AE" patternUnits="userSpaceOnUse" width="294" height="294" viewBox="0 0 294 294" patternTransform="matrix(0.568027, 0.000000, 0.000000, -0.568027, 11.973880, 153.228000)"><image xlink:href="../../EB98D6B9-B009-4DA7-8205-302E8088127C/assets/0AC65A491B94B83787815EE269CA792B.jpeg" width="294.00" height="294.00"></image></pattern></defs><g transform="matrix(1.00, 0.00, -0.00, -1.00, 0.0, 167.0)"><image xlink:href="../../EB98D6B9-B009-4DA7-8205-302E8088127C/assets/43C416F8A69E1EFA23F49B5C538EA01F.png" width="312.00" height="160.00" transform="matrix(1.00, 0.00, -0.00, -1.00, 2.0, 161.2)" opacity="0.33"></image><g><clipPath id="clip-104"><path d="M 12.0 153.2 L 304.1 153.2 L 304.1 13.4 L 12.0 13.4 Z M 12.0 153.2 "></path></clipPath><g clip-path="url(#clip-104)"><path d="M 12.0 13.4 L 304.1 13.4 L 304.1 153.2 L 12.0 153.2 Z M 12.0 13.4 " fill="url(#4DEA6FCE-83A7-4B45-B6DA-2606367361AE)"></path><path d="M 12.0 153.2 L 304.1 153.2 L 304.1 13.4 L 12.0 13.4 Z M 12.0 153.2 " fill="#94D9F6" fill-opacity="0.80"></path></g></g><g><clipPath id="clip-105"><path d="M 9.5 13.4 L 306.6 13.4 L 306.6 153.2 L 9.5 153.2 Z M 9.5 13.4 "></path></clipPath><g clip-path="url(#clip-105)"><text xml:space="preserve" font-family="Helvetica-Bold" font-weight="bold" font-size="26.0" fill="#000000" transform="matrix(1.00, 0.00, -0.00, -1.00, 29.0, 98.0)">T</text><text xml:space="preserve" font-family="Helvetica-Bold" font-weight="bold" font-size="26.0" fill="#000000" transform="matrix(1.00, 0.00, -0.00, -1.00, 44.9, 98.0)">H</text><text xml:space="preserve" font-family="Helvetica-Bold" font-weight="bold" font-size="26.0" fill="#000000" transform="matrix(1.00, 0.00, -0.00, -1.00, 63.7, 98.0)">R</text><text xml:space="preserve" font-family="Helvetica-Bold" font-weight="bold" font-size="26.0" fill="#000000" transform="matrix(1.00, 0.00, -0.00, -1.00, 82.4, 98.0)">E</text><text xml:space="preserve" font-family="Helvetica-Bold" font-weight="bold" font-size="26.0" fill="#000000" transform="matrix(1.00, 0.00, -0.00, -1.00, 99.8, 98.0)">S</text><text xml:space="preserve" font-family="Helvetica-Bold" font-weight="bold" font-size="26.0" fill="#000000" transform="matrix(1.00, 0.00, -0.00, -1.00, 117.1, 98.0)">H</text><text xml:space="preserve" font-family="Helvetica-Bold" font-weight="bold" font-size="26.0" fill="#000000" transform="matrix(1.00, 0.00, -0.00, -1.00, 135.9, 98.0)">O</text><text xml:space="preserve" font-family="Helvetica-Bold" font-weight="bold" font-size="26.0" fill="#000000" transform="matrix(1.00, 0.00, -0.00, -1.00, 156.1, 98.0)">L</text><text xml:space="preserve" font-family="Helvetica-Bold" font-weight="bold" font-size="26.0" fill="#000000" transform="matrix(1.00, 0.00, -0.00, -1.00, 172.0, 98.0)">D</text><text xml:space="preserve" font-family="Helvetica-Bold" font-weight="bold" font-size="26.0" fill="#000000" transform="matrix(1.00, 0.00, -0.00, -1.00, 190.8, 98.0)">E</text><text xml:space="preserve" font-family="Helvetica-Bold" font-weight="bold" font-size="26.0" fill="#000000" transform="matrix(1.00, 0.00, -0.00, -1.00, 208.1, 98.0)">D</text><text xml:space="preserve" font-family="Helvetica-Bold" font-weight="bold" font-size="26.0" fill="#000000" transform="matrix(1.00, 0.00, -0.00, -1.00, 226.9, 98.0)"> </text><text xml:space="preserve" font-family="Helvetica-Bold" font-weight="bold" font-size="26.0" fill="#000000" transform="matrix(1.00, 0.00, -0.00, -1.00, 234.1, 98.0)">V</text><text xml:space="preserve" font-family="Helvetica-Bold" font-weight="bold" font-size="26.0" fill="#000000" transform="matrix(1.00, 0.00, -0.00, -1.00, 251.5, 98.0)">E</text><text xml:space="preserve" font-family="Helvetica-Bold" font-weight="bold" font-size="26.0" fill="#000000" transform="matrix(1.00, 0.00, -0.00, -1.00, 268.8, 98.0)">D</text><text xml:space="preserve" font-family="Helvetica-Bold" font-weight="bold" font-size="26.0" fill="#000000" transform="matrix(1.00, 0.00, -0.00, -1.00, 287.6, 98.0)"> </text><text xml:space="preserve" font-family="Helvetica-Bold" font-weight="bold" font-size="26.0" fill="#000000" transform="matrix(1.00, 0.00, -0.00, -1.00, 129.0, 73.0)">M</text><text xml:space="preserve" font-family="Helvetica-Bold" font-weight="bold" font-size="26.0" fill="#000000" transform="matrix(1.00, 0.00, -0.00, -1.00, 150.7, 73.0)">A</text><text xml:space="preserve" font-family="Helvetica-Bold" font-weight="bold" font-size="26.0" fill="#000000" transform="matrix(1.00, 0.00, -0.00, -1.00, 169.4, 73.0)">P</text><text xml:space="preserve" font-family="Helvetica-Bold" font-weight="bold" font-size="26.0" fill="#000000" transform="matrix(1.00, 0.00, -0.00, -1.00, 186.8, 73.0)"> </text><text xml:space="preserve" font-family="Helvetica-Bold" font-weight="bold" font-size="26.0" fill="#000000" transform="matrix(1.00, 0.00, -0.00, -1.00, 123.0, 49.0)">[</text><text xml:space="preserve" font-family="Helvetica-Bold" font-weight="bold" font-size="26.0" fill="#000000" transform="matrix(1.00, 0.00, -0.00, -1.00, 131.7, 49.0)">9</text><text xml:space="preserve" font-family="Helvetica-Bold" font-weight="bold" font-size="26.0" fill="#000000" transform="matrix(1.00, 0.00, -0.00, -1.00, 146.1, 49.0)">0</text><text xml:space="preserve" font-family="Helvetica-Bold" font-weight="bold" font-size="26.0" fill="#000000" transform="matrix(1.00, 0.00, -0.00, -1.00, 160.6, 49.0)">%</text><text xml:space="preserve" font-family="Helvetica-Bold" font-weight="bold" font-size="26.0" fill="#000000" transform="matrix(1.00, 0.00, -0.00, -1.00, 183.7, 49.0)">]</text></g></g></g></svg>