<?xml version="1.0" encoding="UTF-8" standalone="no"?><svg xmlns="http://www.w3.org/2000/svg" xmlns:xlink="http://www.w3.org/1999/xlink" clip-rule="evenodd" stroke-miterlimit="4.00" viewBox="0 0 408 39"><desc>SVG generated by Keynote</desc><defs></defs><g transform="matrix(1.00, 0.00, -0.00, -1.00, 0.0, 39.0)"><g><clipPath id="clip-98"><path d="M 0.0 2.8 L 408.0 2.8 L 408.0 39.0 L 0.0 39.0 Z M 0.0 2.8 "></path></clipPath><g clip-path="url(#clip-98)"><text xml:space="preserve" font-family="AvenirNext-MediumItalic" font-style="italic" font-size="35.0" fill="#FEFFFE" transform="matrix(1.00, 0.00, -0.00, -1.00, 2.0, 11.0)">S</text><text xml:space="preserve" font-family="AvenirNext-MediumItalic" font-style="italic" font-size="35.0" fill="#FEFFFE" transform="matrix(1.00, 0.00, -0.00, -1.00, 21.9, 11.0)">W</text><text xml:space="preserve" font-family="AvenirNext-MediumItalic" font-style="italic" font-size="35.0" fill="#FEFFFE" transform="matrix(1.00, 0.00, -0.00, -1.00, 56.3, 11.0)">I</text><text xml:space="preserve" font-family="AvenirNext-MediumItalic" font-style="italic" font-size="35.0" fill="#FEFFFE" transform="matrix(1.00, 0.00, -0.00, -1.00, 65.8, 11.0)"> </text><text xml:space="preserve" font-family="AvenirNext-MediumItalic" font-style="italic" font-size="35.0" fill="#FEFFFE" transform="matrix(1.00, 0.00, -0.00, -1.00, 74.5, 11.0)">-</text><text xml:space="preserve" font-family="AvenirNext-MediumItalic" font-style="italic" font-size="35.0" fill="#FEFFFE" transform="matrix(1.00, 0.00, -0.00, -1.00, 85.7, 11.0)"> </text><text xml:space="preserve" font-family="AvenirNext-MediumItalic" font-style="italic" font-size="35.0" fill="#FEFFFE" transform="matrix(1.00, 0.00, -0.00, -1.00, 94.5, 11.0)">S</text><text xml:space="preserve" font-family="AvenirNext-MediumItalic" font-style="italic" font-size="35.0" fill="#FEFFFE" transform="matrix(1.00, 0.00, -0.00, -1.00, 114.4, 11.0)">i</text><text xml:space="preserve" font-family="AvenirNext-MediumItalic" font-style="italic" font-size="35.0" fill="#FEFFFE" transform="matrix(1.00, 0.00, -0.00, -1.00, 123.5, 11.0)">n</text><text xml:space="preserve" font-family="AvenirNext-MediumItalic" font-style="italic" font-size="35.0" fill="#FEFFFE" transform="matrix(1.00, 0.00, -0.00, -1.00, 143.8, 11.0)">g</text><text xml:space="preserve" font-family="AvenirNext-MediumItalic" font-style="italic" font-size="35.0" fill="#FEFFFE" transform="matrix(1.00, 0.00, -0.00, -1.00, 165.8, 11.0)">l</text><text xml:space="preserve" font-family="AvenirNext-MediumItalic" font-style="italic" font-size="35.0" fill="#FEFFFE" transform="matrix(1.00, 0.00, -0.00, -1.00, 174.9, 11.0)">e</text><text xml:space="preserve" font-family="AvenirNext-MediumItalic" font-style="italic" font-size="35.0" fill="#FEFFFE" transform="matrix(1.00, 0.00, -0.00, -1.00, 194.7, 11.0)"> </text><text xml:space="preserve" font-family="AvenirNext-MediumItalic" font-style="italic" font-size="35.0" fill="#FEFFFE" transform="matrix(1.00, 0.00, -0.00, -1.00, 203.5, 11.0)">s</text><text xml:space="preserve" font-family="AvenirNext-MediumItalic" font-style="italic" font-size="35.0" fill="#FEFFFE" transform="matrix(1.00, 0.00, -0.00, -1.00, 219.0, 11.0)">u</text><text xml:space="preserve" font-family="AvenirNext-MediumItalic" font-style="italic" font-size="35.0" fill="#FEFFFE" transform="matrix(1.00, 0.00, -0.00, -1.00, 239.3, 11.0)">b</text><text xml:space="preserve" font-family="AvenirNext-MediumItalic" font-style="italic" font-size="35.0" fill="#FEFFFE" transform="matrix(1.00, 0.00, -0.00, -1.00, 261.5, 11.0)">j</text><text xml:space="preserve" font-family="AvenirNext-MediumItalic" font-style="italic" font-size="35.0" fill="#FEFFFE" transform="matrix(1.00, 0.00, -0.00, -1.00, 270.6, 11.0)">e</text><text xml:space="preserve" font-family="AvenirNext-MediumItalic" font-style="italic" font-size="35.0" fill="#FEFFFE" transform="matrix(1.00, 0.00, -0.00, -1.00, 290.3, 11.0)">c</text><text xml:space="preserve" font-family="AvenirNext-MediumItalic" font-style="italic" font-size="35.0" fill="#FEFFFE" transform="matrix(1.00, 0.00, -0.00, -1.00, 307.7, 11.0)">t</text><text xml:space="preserve" font-family="AvenirNext-MediumItalic" font-style="italic" font-size="35.0" fill="#FEFFFE" transform="matrix(1.00, 0.00, -0.00, -1.00, 319.0, 11.0)"> </text><text xml:space="preserve" font-family="AvenirNext-MediumItalic" font-style="italic" font-size="35.0" fill="#FEFFFE" transform="matrix(1.00, 0.00, -0.00, -1.00, 327.8, 11.0)">(</text><text xml:space="preserve" font-family="AvenirNext-MediumItalic" font-style="italic" font-size="35.0" fill="#FEFFFE" transform="matrix(1.00, 0.00, -0.00, -1.00, 338.8, 11.0)">s</text><text xml:space="preserve" font-family="AvenirNext-MediumItalic" font-style="italic" font-size="35.0" fill="#FEFFFE" transform="matrix(1.00, 0.00, -0.00, -1.00, 354.3, 11.0)">0</text><text xml:space="preserve" font-family="AvenirNext-MediumItalic" font-style="italic" font-size="35.0" fill="#FEFFFE" transform="matrix(1.00, 0.00, -0.00, -1.00, 375.2, 11.0)">4</text><text xml:space="preserve" font-family="AvenirNext-MediumItalic" font-style="italic" font-size="35.0" fill="#FEFFFE" transform="matrix(1.00, 0.00, -0.00, -1.00, 396.0, 11.0)">)</text></g></g></g></svg>