<?xml version="1.0" encoding="UTF-8" standalone="no"?><svg xmlns="http://www.w3.org/2000/svg" xmlns:xlink="http://www.w3.org/1999/xlink" clip-rule="evenodd" stroke-miterlimit="4.00" viewBox="0 0 700 79"><desc>SVG generated by Keynote</desc><defs></defs><g transform="matrix(1.00, 0.00, -0.00, -1.00, 0.0, 79.0)"><text xml:space="preserve" font-family="AvenirNext-Medium" font-size="35.0" fill="#FFE988" transform="matrix(1.00, 0.00, -0.00, -1.00, 28.0, 44.0)">R</text><text xml:space="preserve" font-family="AvenirNext-Medium" font-size="35.0" fill="#FFE988" transform="matrix(1.00, 0.00, -0.00, -1.00, 49.1, 44.0)">e</text><text xml:space="preserve" font-family="AvenirNext-Medium" font-size="35.0" fill="#FFE988" transform="matrix(1.00, 0.00, -0.00, -1.00, 69.1, 44.0)">s</text><text xml:space="preserve" font-family="AvenirNext-Medium" font-size="35.0" fill="#FFE988" transform="matrix(1.00, 0.00, -0.00, -1.00, 84.7, 44.0)">t</text><text xml:space="preserve" font-family="AvenirNext-Medium" font-size="35.0" fill="#FFE988" transform="matrix(1.00, 0.00, -0.00, -1.00, 96.2, 44.0)">i</text><text xml:space="preserve" font-family="AvenirNext-Medium" font-size="35.0" fill="#FFE988" transform="matrix(1.00, 0.00, -0.00, -1.00, 105.2, 44.0)">n</text><text xml:space="preserve" font-family="AvenirNext-Medium" font-size="35.0" fill="#FFE988" transform="matrix(1.00, 0.00, -0.00, -1.00, 125.6, 44.0)">g</text><text xml:space="preserve" font-family="AvenirNext-Medium" font-size="35.0" fill="#FFE988" transform="matrix(1.00, 0.00, -0.00, -1.00, 147.7, 44.0)">-</text><text xml:space="preserve" font-family="AvenirNext-Medium" font-size="35.0" fill="#FFE988" transform="matrix(1.00, 0.00, -0.00, -1.00, 158.9, 44.0)">s</text><text xml:space="preserve" font-family="AvenirNext-Medium" font-size="35.0" fill="#FFE988" transform="matrix(1.00, 0.00, -0.00, -1.00, 174.5, 44.0)">t</text><text xml:space="preserve" font-family="AvenirNext-Medium" font-size="35.0" fill="#FFE988" transform="matrix(1.00, 0.00, -0.00, -1.00, 186.0, 44.0)">a</text><text xml:space="preserve" font-family="AvenirNext-Medium" font-size="35.0" fill="#FFE988" transform="matrix(1.00, 0.00, -0.00, -1.00, 204.6, 44.0)">t</text><text xml:space="preserve" font-family="AvenirNext-Medium" font-size="35.0" fill="#FFE988" transform="matrix(1.00, 0.00, -0.00, -1.00, 216.1, 44.0)">e</text><text xml:space="preserve" font-family="AvenirNext-Medium" font-size="35.0" fill="#FFE988" transform="matrix(1.00, 0.00, -0.00, -1.00, 236.2, 44.0)"> </text><text xml:space="preserve" font-family="AvenirNext-Medium" font-size="35.0" fill="#FFE988" transform="matrix(1.00, 0.00, -0.00, -1.00, 244.9, 44.0)">s</text><text xml:space="preserve" font-family="AvenirNext-Medium" font-size="35.0" fill="#FFE988" transform="matrix(1.00, 0.00, -0.00, -1.00, 260.5, 44.0)">i</text><text xml:space="preserve" font-family="AvenirNext-Medium" font-size="35.0" fill="#FFE988" transform="matrix(1.00, 0.00, -0.00, -1.00, 269.5, 44.0)">m</text><text xml:space="preserve" font-family="AvenirNext-Medium" font-size="35.0" fill="#FFE988" transform="matrix(1.00, 0.00, -0.00, -1.00, 300.6, 44.0)">u</text><text xml:space="preserve" font-family="AvenirNext-Medium" font-size="35.0" fill="#FFE988" transform="matrix(1.00, 0.00, -0.00, -1.00, 320.9, 44.0)">l</text><text xml:space="preserve" font-family="AvenirNext-Medium" font-size="35.0" fill="#FFE988" transform="matrix(1.00, 0.00, -0.00, -1.00, 330.1, 44.0)">t</text><text xml:space="preserve" font-family="AvenirNext-Medium" font-size="35.0" fill="#FFE988" transform="matrix(1.00, 0.00, -0.00, -1.00, 341.6, 44.0)">a</text><text xml:space="preserve" font-family="AvenirNext-Medium" font-size="35.0" fill="#FFE988" transform="matrix(1.00, 0.00, -0.00, -1.00, 360.5, 44.0)">n</text><text xml:space="preserve" font-family="AvenirNext-Medium" font-size="35.0" fill="#FFE988" transform="matrix(1.00, 0.00, -0.00, -1.00, 380.9, 44.0)">e</text><text xml:space="preserve" font-family="AvenirNext-Medium" font-size="35.0" fill="#FFE988" transform="matrix(1.00, 0.00, -0.00, -1.00, 401.0, 44.0)">o</text><text xml:space="preserve" font-family="AvenirNext-Medium" font-size="35.0" fill="#FFE988" transform="matrix(1.00, 0.00, -0.00, -1.00, 422.3, 44.0)">u</text><text xml:space="preserve" font-family="AvenirNext-Medium" font-size="35.0" fill="#FFE988" transform="matrix(1.00, 0.00, -0.00, -1.00, 442.7, 44.0)">s</text><text xml:space="preserve" font-family="AvenirNext-Medium" font-size="35.0" fill="#FFE988" transform="matrix(1.00, 0.00, -0.00, -1.00, 458.2, 44.0)"> </text><text xml:space="preserve" font-family="AvenirNext-Medium" font-size="35.0" fill="#FFE988" transform="matrix(1.00, 0.00, -0.00, -1.00, 466.3, 44.0)">V</text><text xml:space="preserve" font-family="AvenirNext-Medium" font-size="35.0" fill="#FFE988" transform="matrix(1.00, 0.00, -0.00, -1.00, 487.8, 44.0)">A</text><text xml:space="preserve" font-family="AvenirNext-Medium" font-size="35.0" fill="#FFE988" transform="matrix(1.00, 0.00, -0.00, -1.00, 512.6, 44.0)">S</text><text xml:space="preserve" font-family="AvenirNext-Medium" font-size="35.0" fill="#FFE988" transform="matrix(1.00, 0.00, -0.00, -1.00, 532.6, 44.0)">O</text><text xml:space="preserve" font-family="AvenirNext-Medium" font-size="35.0" fill="#FFE988" transform="matrix(1.00, 0.00, -0.00, -1.00, 562.3, 44.0)">-</text><text xml:space="preserve" font-family="AvenirNext-Medium" font-size="35.0" fill="#FFE988" transform="matrix(1.00, 0.00, -0.00, -1.00, 573.5, 44.0)">B</text><text xml:space="preserve" font-family="AvenirNext-Medium" font-size="35.0" fill="#FFE988" transform="matrix(1.00, 0.00, -0.00, -1.00, 595.9, 44.0)">O</text><text xml:space="preserve" font-family="AvenirNext-Medium" font-size="35.0" fill="#FFE988" transform="matrix(1.00, 0.00, -0.00, -1.00, 625.7, 44.0)">L</text><text xml:space="preserve" font-family="AvenirNext-Medium" font-size="35.0" fill="#FFE988" transform="matrix(1.00, 0.00, -0.00, -1.00, 643.5, 44.0)">D</text><text xml:space="preserve" font-family="LucidaGrande-Bold" font-weight="bold" font-size="35.0" fill="#FFE988" transform="matrix(1.00, 0.00, -0.00, -1.00, 670.2, 44.0)"> </text><g><clipPath id="clip-206"><path d="M 27.3 39.1 L 670.5 39.1 L 670.5 42.8 L 27.3 42.8 Z M 27.3 39.1 "></path></clipPath><g clip-path="url(#clip-206)"><path d="M 32.2 41.8 L 674.4 41.8 " fill="none" stroke="#FFE988" stroke-width="1.75" stroke-miterlimit="0.00" transform="matrix(1.00, 0.00, 0.00, -1.00, -3.9, 82.8)"></path></g></g><text xml:space="preserve" font-family="AvenirNext-Medium" font-size="23.0" fill="#FFE988" transform="matrix(1.00, 0.00, -0.00, -1.00, 1.0, 8.0)">(</text><text xml:space="preserve" font-family="AvenirNext-Medium" font-size="23.0" fill="#FFE988" transform="matrix(1.00, 0.00, -0.00, -1.00, 8.2, 8.0)">v</text><text xml:space="preserve" font-family="AvenirNext-Medium" font-size="23.0" fill="#FFE988" transform="matrix(1.00, 0.00, -0.00, -1.00, 19.8, 8.0)">a</text><text xml:space="preserve" font-family="AvenirNext-Medium" font-size="23.0" fill="#FFE988" transform="matrix(1.00, 0.00, -0.00, -1.00, 32.3, 8.0)">s</text><text xml:space="preserve" font-family="AvenirNext-Medium" font-size="23.0" fill="#FFE988" transform="matrix(1.00, 0.00, -0.00, -1.00, 42.5, 8.0)">c</text><text xml:space="preserve" font-family="AvenirNext-Medium" font-size="23.0" fill="#FFE988" transform="matrix(1.00, 0.00, -0.00, -1.00, 53.9, 8.0)">u</text><text xml:space="preserve" font-family="AvenirNext-Medium" font-size="23.0" fill="#FFE988" transform="matrix(1.00, 0.00, -0.00, -1.00, 67.3, 8.0)">l</text><text xml:space="preserve" font-family="AvenirNext-Medium" font-size="23.0" fill="#FFE988" transform="matrix(1.00, 0.00, -0.00, -1.00, 73.2, 8.0)">a</text><text xml:space="preserve" font-family="AvenirNext-Medium" font-size="23.0" fill="#FFE988" transform="matrix(1.00, 0.00, -0.00, -1.00, 85.7, 8.0)">r</text><text xml:space="preserve" font-family="AvenirNext-Medium" font-size="23.0" fill="#FFE988" transform="matrix(1.00, 0.00, -0.00, -1.00, 93.6, 8.0)">-</text><text xml:space="preserve" font-family="AvenirNext-Medium" font-size="23.0" fill="#FFE988" transform="matrix(1.00, 0.00, -0.00, -1.00, 100.9, 8.0)">s</text><text xml:space="preserve" font-family="AvenirNext-Medium" font-size="23.0" fill="#FFE988" transform="matrix(1.00, 0.00, -0.00, -1.00, 111.1, 8.0)">p</text><text xml:space="preserve" font-family="AvenirNext-Medium" font-size="23.0" fill="#FFE988" transform="matrix(1.00, 0.00, -0.00, -1.00, 125.7, 8.0)">a</text><text xml:space="preserve" font-family="AvenirNext-Medium" font-size="23.0" fill="#FFE988" transform="matrix(1.00, 0.00, -0.00, -1.00, 138.2, 8.0)">c</text><text xml:space="preserve" font-family="AvenirNext-Medium" font-size="23.0" fill="#FFE988" transform="matrix(1.00, 0.00, -0.00, -1.00, 149.6, 8.0)">e</text><text xml:space="preserve" font-family="AvenirNext-Medium" font-size="23.0" fill="#FFE988" transform="matrix(1.00, 0.00, -0.00, -1.00, 162.7, 8.0)">-</text><text xml:space="preserve" font-family="AvenirNext-Medium" font-size="23.0" fill="#FFE988" transform="matrix(1.00, 0.00, -0.00, -1.00, 170.1, 8.0)">o</text><text xml:space="preserve" font-family="AvenirNext-Medium" font-size="23.0" fill="#FFE988" transform="matrix(1.00, 0.00, -0.00, -1.00, 184.1, 8.0)">c</text><text xml:space="preserve" font-family="AvenirNext-Medium" font-size="23.0" fill="#FFE988" transform="matrix(1.00, 0.00, -0.00, -1.00, 195.5, 8.0)">c</text><text xml:space="preserve" font-family="AvenirNext-Medium" font-size="23.0" fill="#FFE988" transform="matrix(1.00, 0.00, -0.00, -1.00, 206.8, 8.0)">u</text><text xml:space="preserve" font-family="AvenirNext-Medium" font-size="23.0" fill="#FFE988" transform="matrix(1.00, 0.00, -0.00, -1.00, 220.2, 8.0)">p</text><text xml:space="preserve" font-family="AvenirNext-Medium" font-size="23.0" fill="#FFE988" transform="matrix(1.00, 0.00, -0.00, -1.00, 234.8, 8.0)">a</text><text xml:space="preserve" font-family="AvenirNext-Medium" font-size="23.0" fill="#FFE988" transform="matrix(1.00, 0.00, -0.00, -1.00, 247.3, 8.0)">n</text><text xml:space="preserve" font-family="AvenirNext-Medium" font-size="23.0" fill="#FFE988" transform="matrix(1.00, 0.00, -0.00, -1.00, 260.7, 8.0)">c</text><text xml:space="preserve" font-family="AvenirNext-Medium" font-size="23.0" fill="#FFE988" transform="matrix(1.00, 0.00, -0.00, -1.00, 272.0, 8.0)">y</text><text xml:space="preserve" font-family="AvenirNext-Medium" font-size="23.0" fill="#FFE988" transform="matrix(1.00, 0.00, -0.00, -1.00, 283.6, 8.0)"> </text><text xml:space="preserve" font-family="AvenirNext-Medium" font-size="23.0" fill="#FFE988" transform="matrix(1.00, 0.00, -0.00, -1.00, 289.4, 8.0)">&amp;</text><text xml:space="preserve" font-family="AvenirNext-Medium" font-size="23.0" fill="#FFE988" transform="matrix(1.00, 0.00, -0.00, -1.00, 306.0, 8.0)"> </text><text xml:space="preserve" font-family="AvenirNext-Medium" font-size="23.0" fill="#FFE988" transform="matrix(1.00, 0.00, -0.00, -1.00, 311.8, 8.0)">b</text><text xml:space="preserve" font-family="AvenirNext-Medium" font-size="23.0" fill="#FFE988" transform="matrix(1.00, 0.00, -0.00, -1.00, 326.4, 8.0)">l</text><text xml:space="preserve" font-family="AvenirNext-Medium" font-size="23.0" fill="#FFE988" transform="matrix(1.00, 0.00, -0.00, -1.00, 332.4, 8.0)">o</text><text xml:space="preserve" font-family="AvenirNext-Medium" font-size="23.0" fill="#FFE988" transform="matrix(1.00, 0.00, -0.00, -1.00, 346.4, 8.0)">o</text><text xml:space="preserve" font-family="AvenirNext-Medium" font-size="23.0" fill="#FFE988" transform="matrix(1.00, 0.00, -0.00, -1.00, 360.4, 8.0)">d</text><text xml:space="preserve" font-family="AvenirNext-Medium" font-size="23.0" fill="#FFE988" transform="matrix(1.00, 0.00, -0.00, -1.00, 375.0, 8.0)"> </text><text xml:space="preserve" font-family="AvenirNext-Medium" font-size="23.0" fill="#FFE988" transform="matrix(1.00, 0.00, -0.00, -1.00, 380.8, 8.0)">o</text><text xml:space="preserve" font-family="AvenirNext-Medium" font-size="23.0" fill="#FFE988" transform="matrix(1.00, 0.00, -0.00, -1.00, 394.6, 8.0)">x</text><text xml:space="preserve" font-family="AvenirNext-Medium" font-size="23.0" fill="#FFE988" transform="matrix(1.00, 0.00, -0.00, -1.00, 406.3, 8.0)">y</text><text xml:space="preserve" font-family="AvenirNext-Medium" font-size="23.0" fill="#FFE988" transform="matrix(1.00, 0.00, -0.00, -1.00, 417.9, 8.0)">g</text><text xml:space="preserve" font-family="AvenirNext-Medium" font-size="23.0" fill="#FFE988" transform="matrix(1.00, 0.00, -0.00, -1.00, 432.5, 8.0)">e</text><text xml:space="preserve" font-family="AvenirNext-Medium" font-size="23.0" fill="#FFE988" transform="matrix(1.00, 0.00, -0.00, -1.00, 445.6, 8.0)">n</text><text xml:space="preserve" font-family="AvenirNext-Medium" font-size="23.0" fill="#FFE988" transform="matrix(1.00, 0.00, -0.00, -1.00, 459.0, 8.0)">a</text><text xml:space="preserve" font-family="AvenirNext-Medium" font-size="23.0" fill="#FFE988" transform="matrix(1.00, 0.00, -0.00, -1.00, 471.3, 8.0)">t</text><text xml:space="preserve" font-family="AvenirNext-Medium" font-size="23.0" fill="#FFE988" transform="matrix(1.00, 0.00, -0.00, -1.00, 478.8, 8.0)">i</text><text xml:space="preserve" font-family="AvenirNext-Medium" font-size="23.0" fill="#FFE988" transform="matrix(1.00, 0.00, -0.00, -1.00, 484.8, 8.0)">o</text><text xml:space="preserve" font-family="AvenirNext-Medium" font-size="23.0" fill="#FFE988" transform="matrix(1.00, 0.00, -0.00, -1.00, 498.8, 8.0)">n</text><text xml:space="preserve" font-family="AvenirNext-Medium" font-size="23.0" fill="#FFE988" transform="matrix(1.00, 0.00, -0.00, -1.00, 512.2, 8.0)"> </text><text xml:space="preserve" font-family="AvenirNext-Medium" font-size="23.0" fill="#FFE988" transform="matrix(1.00, 0.00, -0.00, -1.00, 517.9, 8.0)">l</text><text xml:space="preserve" font-family="AvenirNext-Medium" font-size="23.0" fill="#FFE988" transform="matrix(1.00, 0.00, -0.00, -1.00, 523.9, 8.0)">e</text><text xml:space="preserve" font-family="AvenirNext-Medium" font-size="23.0" fill="#FFE988" transform="matrix(1.00, 0.00, -0.00, -1.00, 537.1, 8.0)">v</text><text xml:space="preserve" font-family="AvenirNext-Medium" font-size="23.0" fill="#FFE988" transform="matrix(1.00, 0.00, -0.00, -1.00, 548.7, 8.0)">e</text><text xml:space="preserve" font-family="AvenirNext-Medium" font-size="23.0" fill="#FFE988" transform="matrix(1.00, 0.00, -0.00, -1.00, 561.9, 8.0)">l</text><text xml:space="preserve" font-family="AvenirNext-Medium" font-size="23.0" fill="#FFE988" transform="matrix(1.00, 0.00, -0.00, -1.00, 567.9, 8.0)"> </text><text xml:space="preserve" font-family="AvenirNext-Medium" font-size="23.0" fill="#FFE988" transform="matrix(1.00, 0.00, -0.00, -1.00, 573.6, 8.0)">d</text><text xml:space="preserve" font-family="AvenirNext-Medium" font-size="23.0" fill="#FFE988" transform="matrix(1.00, 0.00, -0.00, -1.00, 588.2, 8.0)">e</text><text xml:space="preserve" font-family="AvenirNext-Medium" font-size="23.0" fill="#FFE988" transform="matrix(1.00, 0.00, -0.00, -1.00, 601.4, 8.0)">p</text><text xml:space="preserve" font-family="AvenirNext-Medium" font-size="23.0" fill="#FFE988" transform="matrix(1.00, 0.00, -0.00, -1.00, 616.0, 8.0)">e</text><text xml:space="preserve" font-family="AvenirNext-Medium" font-size="23.0" fill="#FFE988" transform="matrix(1.00, 0.00, -0.00, -1.00, 629.2, 8.0)">n</text><text xml:space="preserve" font-family="AvenirNext-Medium" font-size="23.0" fill="#FFE988" transform="matrix(1.00, 0.00, -0.00, -1.00, 642.5, 8.0)">d</text><text xml:space="preserve" font-family="AvenirNext-Medium" font-size="23.0" fill="#FFE988" transform="matrix(1.00, 0.00, -0.00, -1.00, 657.1, 8.0)">e</text><text xml:space="preserve" font-family="AvenirNext-Medium" font-size="23.0" fill="#FFE988" transform="matrix(1.00, 0.00, -0.00, -1.00, 670.3, 8.0)">n</text><text xml:space="preserve" font-family="AvenirNext-Medium" font-size="23.0" fill="#FFE988" transform="matrix(1.00, 0.00, -0.00, -1.00, 683.7, 8.0)">t</text><text xml:space="preserve" font-family="AvenirNext-Medium" font-size="23.0" fill="#FFE988" transform="matrix(1.00, 0.00, -0.00, -1.00, 691.3, 8.0)">)</text></g></svg>