<?xml version="1.0" encoding="UTF-8" standalone="no"?><svg xmlns="http://www.w3.org/2000/svg" xmlns:xlink="http://www.w3.org/1999/xlink" clip-rule="evenodd" stroke-miterlimit="4.00" viewBox="0 0 942 82"><desc>SVG generated by Keynote</desc><defs></defs><g transform="matrix(1.00, 0.00, -0.00, -1.00, 0.0, 82.0)"><text xml:space="preserve" font-family="AvenirNext-Medium" font-size="38.0" fill="#CDD0CE" transform="matrix(1.00, 0.00, -0.00, -1.00, 0.6, 14.1)">B</text><text xml:space="preserve" font-family="AvenirNext-Medium" font-size="38.0" fill="#CDD0CE" transform="matrix(1.00, 0.00, -0.00, -1.00, 25.0, 14.1)">.</text><text xml:space="preserve" font-family="AvenirNext-Medium" font-size="38.0" fill="#FFE988" transform="matrix(1.00, 0.00, -0.00, -1.00, 58.0, 14.0)">V</text><text xml:space="preserve" font-family="AvenirNext-Medium" font-size="38.0" fill="#FFE988" transform="matrix(1.00, 0.00, -0.00, -1.00, 81.3, 14.0)">A</text><text xml:space="preserve" font-family="AvenirNext-Medium" font-size="38.0" fill="#FFE988" transform="matrix(1.00, 0.00, -0.00, -1.00, 108.3, 14.0)">S</text><text xml:space="preserve" font-family="AvenirNext-Medium" font-size="38.0" fill="#FFE988" transform="matrix(1.00, 0.00, -0.00, -1.00, 129.9, 14.0)">O</text><text xml:space="preserve" font-family="AvenirNext-Medium" font-size="38.0" fill="#CDD0CE" transform="matrix(1.00, 0.00, -0.00, -1.00, 162.2, 14.0)"> </text><text xml:space="preserve" font-family="AvenirNext-Medium" font-size="38.0" fill="#EAF1F0" transform="matrix(1.00, 0.00, -0.00, -1.00, 171.7, 14.0)">a</text><text xml:space="preserve" font-family="AvenirNext-Medium" font-size="38.0" fill="#EAF1F0" transform="matrix(1.00, 0.00, -0.00, -1.00, 192.3, 14.0)">n</text><text xml:space="preserve" font-family="AvenirNext-Medium" font-size="38.0" fill="#EAF1F0" transform="matrix(1.00, 0.00, -0.00, -1.00, 214.4, 14.0)">d</text><text xml:space="preserve" font-family="AvenirNext-Medium" font-size="38.0" fill="#CDD0CE" transform="matrix(1.00, 0.00, -0.00, -1.00, 238.5, 14.0)"> </text><text xml:space="preserve" font-family="AvenirNext-Medium" font-size="38.0" fill="#FFE988" transform="matrix(1.00, 0.00, -0.00, -1.00, 248.0, 14.0)">B</text><text xml:space="preserve" font-family="AvenirNext-Medium" font-size="38.0" fill="#FFE988" transform="matrix(1.00, 0.00, -0.00, -1.00, 272.4, 14.0)">O</text><text xml:space="preserve" font-family="AvenirNext-Medium" font-size="38.0" fill="#FFE988" transform="matrix(1.00, 0.00, -0.00, -1.00, 304.7, 14.0)">L</text><text xml:space="preserve" font-family="AvenirNext-Medium" font-size="38.0" fill="#FFE988" transform="matrix(1.00, 0.00, -0.00, -1.00, 324.1, 14.0)">D</text><text xml:space="preserve" font-family="AvenirNext-Medium" font-size="38.0" fill="#CDD0CE" transform="matrix(1.00, 0.00, -0.00, -1.00, 353.0, 14.0)"> </text><text xml:space="preserve" font-family="AvenirNext-Medium" font-size="38.0" fill="#EAF1F0" transform="matrix(1.00, 0.00, -0.00, -1.00, 362.5, 14.0)">r</text><text xml:space="preserve" font-family="AvenirNext-Medium" font-size="38.0" fill="#EAF1F0" transform="matrix(1.00, 0.00, -0.00, -1.00, 375.6, 14.0)">e</text><text xml:space="preserve" font-family="AvenirNext-Medium" font-size="38.0" fill="#EAF1F0" transform="matrix(1.00, 0.00, -0.00, -1.00, 397.3, 14.0)">s</text><text xml:space="preserve" font-family="AvenirNext-Medium" font-size="38.0" fill="#EAF1F0" transform="matrix(1.00, 0.00, -0.00, -1.00, 414.2, 14.0)">t</text><text xml:space="preserve" font-family="AvenirNext-Medium" font-size="38.0" fill="#EAF1F0" transform="matrix(1.00, 0.00, -0.00, -1.00, 426.7, 14.0)">i</text><text xml:space="preserve" font-family="AvenirNext-Medium" font-size="38.0" fill="#EAF1F0" transform="matrix(1.00, 0.00, -0.00, -1.00, 436.6, 14.0)">n</text><text xml:space="preserve" font-family="AvenirNext-Medium" font-size="38.0" fill="#EAF1F0" transform="matrix(1.00, 0.00, -0.00, -1.00, 458.7, 14.0)">g</text><text xml:space="preserve" font-family="AvenirNext-Medium" font-size="38.0" fill="#EAF1F0" transform="matrix(1.00, 0.00, -0.00, -1.00, 482.7, 14.0)">-</text><text xml:space="preserve" font-family="AvenirNext-Medium" font-size="38.0" fill="#EAF1F0" transform="matrix(1.00, 0.00, -0.00, -1.00, 494.8, 14.0)">s</text><text xml:space="preserve" font-family="AvenirNext-Medium" font-size="38.0" fill="#EAF1F0" transform="matrix(1.00, 0.00, -0.00, -1.00, 511.7, 14.0)">t</text><text xml:space="preserve" font-family="AvenirNext-Medium" font-size="38.0" fill="#EAF1F0" transform="matrix(1.00, 0.00, -0.00, -1.00, 524.2, 14.0)">a</text><text xml:space="preserve" font-family="AvenirNext-Medium" font-size="38.0" fill="#EAF1F0" transform="matrix(1.00, 0.00, -0.00, -1.00, 544.4, 14.0)">t</text><text xml:space="preserve" font-family="AvenirNext-Medium" font-size="38.0" fill="#EAF1F0" transform="matrix(1.00, 0.00, -0.00, -1.00, 556.9, 14.0)">e</text><text xml:space="preserve" font-family="AvenirNext-Medium" font-size="38.0" fill="#EAF1F0" transform="matrix(1.00, 0.00, -0.00, -1.00, 578.7, 14.0)"> </text><text xml:space="preserve" font-family="AvenirNext-Medium" font-size="38.0" fill="#EAF1F0" transform="matrix(1.00, 0.00, -0.00, -1.00, 588.2, 14.0)">n</text><text xml:space="preserve" font-family="AvenirNext-Medium" font-size="38.0" fill="#EAF1F0" transform="matrix(1.00, 0.00, -0.00, -1.00, 610.3, 14.0)">e</text><text xml:space="preserve" font-family="AvenirNext-Medium" font-size="38.0" fill="#EAF1F0" transform="matrix(1.00, 0.00, -0.00, -1.00, 632.1, 14.0)">t</text><text xml:space="preserve" font-family="AvenirNext-Medium" font-size="38.0" fill="#EAF1F0" transform="matrix(1.00, 0.00, -0.00, -1.00, 644.6, 14.0)">w</text><text xml:space="preserve" font-family="AvenirNext-Medium" font-size="38.0" fill="#EAF1F0" transform="matrix(1.00, 0.00, -0.00, -1.00, 674.0, 14.0)">o</text><text xml:space="preserve" font-family="AvenirNext-Medium" font-size="38.0" fill="#EAF1F0" transform="matrix(1.00, 0.00, -0.00, -1.00, 697.2, 14.0)">r</text><text xml:space="preserve" font-family="AvenirNext-Medium" font-size="38.0" fill="#EAF1F0" transform="matrix(1.00, 0.00, -0.00, -1.00, 710.9, 14.0)">k</text><text xml:space="preserve" font-family="AvenirNext-Medium" font-size="38.0" fill="#EAF1F0" transform="matrix(1.00, 0.00, -0.00, -1.00, 730.7, 14.0)">s</text><text xml:space="preserve" font-family="AvenirNext-Medium" font-size="38.0" fill="#EAF1F0" transform="matrix(1.00, 0.00, -0.00, -1.00, 747.6, 14.0)"> </text><text xml:space="preserve" font-family="AvenirNext-Medium" font-size="38.0" fill="#EAF1F0" transform="matrix(1.00, 0.00, -0.00, -1.00, 757.1, 14.0)">s</text><text xml:space="preserve" font-family="AvenirNext-Medium" font-size="38.0" fill="#EAF1F0" transform="matrix(1.00, 0.00, -0.00, -1.00, 774.0, 14.0)">i</text><text xml:space="preserve" font-family="AvenirNext-Medium" font-size="38.0" fill="#EAF1F0" transform="matrix(1.00, 0.00, -0.00, -1.00, 783.8, 14.0)">m</text><text xml:space="preserve" font-family="AvenirNext-Medium" font-size="38.0" fill="#EAF1F0" transform="matrix(1.00, 0.00, -0.00, -1.00, 817.5, 14.0)">i</text><text xml:space="preserve" font-family="AvenirNext-Medium" font-size="38.0" fill="#EAF1F0" transform="matrix(1.00, 0.00, -0.00, -1.00, 827.3, 14.0)">l</text><text xml:space="preserve" font-family="AvenirNext-Medium" font-size="38.0" fill="#EAF1F0" transform="matrix(1.00, 0.00, -0.00, -1.00, 837.2, 14.0)">a</text><text xml:space="preserve" font-family="AvenirNext-Medium" font-size="38.0" fill="#EAF1F0" transform="matrix(1.00, 0.00, -0.00, -1.00, 857.8, 14.0)">r</text><text xml:space="preserve" font-family="AvenirNext-Medium" font-size="38.0" fill="#EAF1F0" transform="matrix(1.00, 0.00, -0.00, -1.00, 871.6, 14.0)">i</text><text xml:space="preserve" font-family="AvenirNext-Medium" font-size="38.0" fill="#EAF1F0" transform="matrix(1.00, 0.00, -0.00, -1.00, 881.4, 14.0)">t</text><text xml:space="preserve" font-family="AvenirNext-Medium" font-size="38.0" fill="#EAF1F0" transform="matrix(1.00, 0.00, -0.00, -1.00, 893.9, 14.0)">i</text><text xml:space="preserve" font-family="AvenirNext-Medium" font-size="38.0" fill="#EAF1F0" transform="matrix(1.00, 0.00, -0.00, -1.00, 903.8, 14.0)">e</text><text xml:space="preserve" font-family="AvenirNext-Medium" font-size="38.0" fill="#EAF1F0" transform="matrix(1.00, 0.00, -0.00, -1.00, 925.5, 14.0)">s</text></g></svg>