<?xml version="1.0" encoding="UTF-8" standalone="no"?><svg xmlns="http://www.w3.org/2000/svg" xmlns:xlink="http://www.w3.org/1999/xlink" clip-rule="evenodd" stroke-miterlimit="4.00" viewBox="0 0 418 63"><desc>SVG generated by Keynote</desc><defs></defs><g transform="matrix(1.00, 0.00, -0.00, -1.00, 0.0, 63.0)"><text xml:space="preserve" font-family="AvenirNext-DemiBold" font-weight="bold" font-size="23.0" fill="#FEFFFE" transform="matrix(1.00, 0.00, -0.00, -1.00, 2.0, 40.0)">T</text><text xml:space="preserve" font-family="AvenirNext-DemiBold" font-weight="bold" font-size="23.0" fill="#FEFFFE" transform="matrix(1.00, 0.00, -0.00, -1.00, 15.1, 40.0)">R</text><text xml:space="preserve" font-family="AvenirNext-DemiBold" font-weight="bold" font-size="23.0" fill="#FEFFFE" transform="matrix(1.00, 0.00, -0.00, -1.00, 29.5, 40.0)">/</text><text xml:space="preserve" font-family="AvenirNext-DemiBold" font-weight="bold" font-size="23.0" fill="#FEFFFE" transform="matrix(1.00, 0.00, -0.00, -1.00, 38.5, 40.0)">T</text><text xml:space="preserve" font-family="AvenirNext-DemiBold" font-weight="bold" font-size="23.0" fill="#FEFFFE" transform="matrix(1.00, 0.00, -0.00, -1.00, 51.5, 40.0)">I</text><text xml:space="preserve" font-family="AvenirNext-DemiBold" font-weight="bold" font-size="23.0" fill="#FEFFFE" transform="matrix(1.00, 0.00, -0.00, -1.00, 58.0, 40.0)">1</text><text xml:space="preserve" font-family="AvenirNext-DemiBold" font-weight="bold" font-size="23.0" fill="#FEFFFE" transform="matrix(1.00, 0.00, -0.00, -1.00, 72.1, 40.0)">/</text><text xml:space="preserve" font-family="AvenirNext-DemiBold" font-weight="bold" font-size="23.0" fill="#FEFFFE" transform="matrix(1.00, 0.00, -0.00, -1.00, 81.0, 40.0)">T</text><text xml:space="preserve" font-family="AvenirNext-DemiBold" font-weight="bold" font-size="23.0" fill="#FEFFFE" transform="matrix(1.00, 0.00, -0.00, -1.00, 94.1, 40.0)">I</text><text xml:space="preserve" font-family="AvenirNext-DemiBold" font-weight="bold" font-size="23.0" fill="#FEFFFE" transform="matrix(1.00, 0.00, -0.00, -1.00, 100.6, 40.0)">2</text><text xml:space="preserve" font-family="AvenirNext-DemiBold" font-weight="bold" font-size="23.0" fill="#FEFFFE" transform="matrix(1.00, 0.00, -0.00, -1.00, 114.6, 40.0)">/</text><text xml:space="preserve" font-family="AvenirNext-DemiBold" font-weight="bold" font-size="23.0" fill="#FEFFFE" transform="matrix(1.00, 0.00, -0.00, -1.00, 123.5, 40.0)">T</text><text xml:space="preserve" font-family="AvenirNext-DemiBold" font-weight="bold" font-size="23.0" fill="#FEFFFE" transform="matrix(1.00, 0.00, -0.00, -1.00, 136.6, 40.0)">E</text><text xml:space="preserve" font-family="AvenirNext-Medium" font-size="23.0" fill="#FEFFFE" transform="matrix(1.00, 0.00, -0.00, -1.00, 150.6, 40.0)">:</text><text xml:space="preserve" font-family="AvenirNext-Medium" font-size="23.0" fill="#FEFFFE" transform="matrix(1.00, 0.00, -0.00, -1.00, 157.5, 40.0)"> </text><text xml:space="preserve" font-family="AvenirNext-Medium" font-size="23.0" fill="#FEFFFE" transform="matrix(1.00, 0.00, -0.00, -1.00, 163.3, 40.0)"> </text><text xml:space="preserve" font-family="AvenirNext-Medium" font-size="23.0" fill="#FEFFFE" transform="matrix(1.00, 0.00, -0.00, -1.00, 169.0, 40.0)"> </text><text xml:space="preserve" font-family="AvenirNext-Medium" font-size="23.0" fill="#FEFFFE" transform="matrix(1.00, 0.00, -0.00, -1.00, 174.8, 40.0)">3</text><text xml:space="preserve" font-family="AvenirNext-Medium" font-size="23.0" fill="#FEFFFE" transform="matrix(1.00, 0.00, -0.00, -1.00, 188.5, 40.0)">0</text><text xml:space="preserve" font-family="AvenirNext-Medium" font-size="23.0" fill="#FEFFFE" transform="matrix(1.00, 0.00, -0.00, -1.00, 202.1, 40.0)">0</text><text xml:space="preserve" font-family="AvenirNext-Medium" font-size="23.0" fill="#FEFFFE" transform="matrix(1.00, 0.00, -0.00, -1.00, 215.8, 40.0)">0</text><text xml:space="preserve" font-family="AvenirNext-Medium" font-size="23.0" fill="#FEFFFE" transform="matrix(1.00, 0.00, -0.00, -1.00, 229.5, 40.0)">/</text><text xml:space="preserve" font-family="AvenirNext-Medium" font-size="23.0" fill="#FEFFFE" transform="matrix(1.00, 0.00, -0.00, -1.00, 238.3, 40.0)">6</text><text xml:space="preserve" font-family="AvenirNext-Medium" font-size="23.0" fill="#FEFFFE" transform="matrix(1.00, 0.00, -0.00, -1.00, 251.9, 40.0)">7</text><text xml:space="preserve" font-family="AvenirNext-Medium" font-size="23.0" fill="#FEFFFE" transform="matrix(1.00, 0.00, -0.00, -1.00, 265.6, 40.0)">5</text><text xml:space="preserve" font-family="AvenirNext-Medium" font-size="23.0" fill="#FEFFFE" transform="matrix(1.00, 0.00, -0.00, -1.00, 279.3, 40.0)">/</text><text xml:space="preserve" font-family="AvenirNext-Medium" font-size="23.0" fill="#FEFFFE" transform="matrix(1.00, 0.00, -0.00, -1.00, 288.1, 40.0)">1</text><text xml:space="preserve" font-family="AvenirNext-Medium" font-size="23.0" fill="#FEFFFE" transform="matrix(1.00, 0.00, -0.00, -1.00, 301.7, 40.0)">8</text><text xml:space="preserve" font-family="AvenirNext-Medium" font-size="23.0" fill="#FEFFFE" transform="matrix(1.00, 0.00, -0.00, -1.00, 315.4, 40.0)">2</text><text xml:space="preserve" font-family="AvenirNext-Medium" font-size="23.0" fill="#FEFFFE" transform="matrix(1.00, 0.00, -0.00, -1.00, 329.1, 40.0)">5</text><text xml:space="preserve" font-family="AvenirNext-Medium" font-size="23.0" fill="#FEFFFE" transform="matrix(1.00, 0.00, -0.00, -1.00, 342.8, 40.0)">/</text><text xml:space="preserve" font-family="AvenirNext-Medium" font-size="23.0" fill="#FEFFFE" transform="matrix(1.00, 0.00, -0.00, -1.00, 351.5, 40.0)">2</text><text xml:space="preserve" font-family="AvenirNext-Medium" font-size="23.0" fill="#FEFFFE" transform="matrix(1.00, 0.00, -0.00, -1.00, 365.2, 40.0)">0</text><text xml:space="preserve" font-family="AvenirNext-Medium" font-size="23.0" fill="#FEFFFE" transform="matrix(1.00, 0.00, -0.00, -1.00, 378.9, 40.0)"> </text><text xml:space="preserve" font-family="AvenirNext-Medium" font-size="23.0" fill="#FEFFFE" transform="matrix(1.00, 0.00, -0.00, -1.00, 384.7, 40.0)">m</text><text xml:space="preserve" font-family="AvenirNext-Medium" font-size="23.0" fill="#FEFFFE" transform="matrix(1.00, 0.00, -0.00, -1.00, 405.1, 40.0)">s</text><text xml:space="preserve" font-family="LucidaGrande-Bold" font-weight="bold" font-size="23.0" fill="#FEFFFE" transform="matrix(1.00, 0.00, -0.00, -1.00, 415.3, 40.0)"> </text><g><clipPath id="clip-214"><path d="M 1.1 36.8 L 150.7 36.8 L 150.7 39.9 L 1.1 39.9 Z M 1.1 36.8 "></path></clipPath><g clip-path="url(#clip-214)"><path d="M 4.0 28.3 L 152.6 28.3 " fill="none" stroke="#FEFFFE" stroke-width="1.15" stroke-miterlimit="0.00" transform="matrix(1.00, 0.00, 0.00, -1.00, -1.9, 66.7)"></path></g></g><text xml:space="preserve" font-family="AvenirNext-DemiBold" font-weight="bold" font-size="23.0" fill="#FEFFFE" transform="matrix(1.00, 0.00, -0.00, -1.00, 2.0, 9.0)">V</text><text xml:space="preserve" font-family="AvenirNext-DemiBold" font-weight="bold" font-size="23.0" fill="#FEFFFE" transform="matrix(1.00, 0.00, -0.00, -1.00, 16.1, 9.0)">o</text><text xml:space="preserve" font-family="AvenirNext-DemiBold" font-weight="bold" font-size="23.0" fill="#FEFFFE" transform="matrix(1.00, 0.00, -0.00, -1.00, 29.9, 9.0)">x</text><text xml:space="preserve" font-family="AvenirNext-DemiBold" font-weight="bold" font-size="23.0" fill="#FEFFFE" transform="matrix(1.00, 0.00, -0.00, -1.00, 42.0, 9.0)">e</text><text xml:space="preserve" font-family="AvenirNext-DemiBold" font-weight="bold" font-size="23.0" fill="#FEFFFE" transform="matrix(1.00, 0.00, -0.00, -1.00, 55.2, 9.0)">l</text><text xml:space="preserve" font-family="AvenirNext-Medium" font-size="23.0" fill="#FEFFFE" transform="matrix(1.00, 0.00, -0.00, -1.00, 61.3, 9.0)">:</text><text xml:space="preserve" font-family="AvenirNext-Medium" font-size="23.0" fill="#FEFFFE" transform="matrix(1.00, 0.00, -0.00, -1.00, 68.2, 9.0)"> </text><text xml:space="preserve" font-family="AvenirNext-Medium" font-size="23.0" fill="#FEFFFE" transform="matrix(1.00, 0.00, -0.00, -1.00, 74.0, 9.0)"> </text><text xml:space="preserve" font-family="AvenirNext-Medium" font-size="23.0" fill="#FEFFFE" transform="matrix(1.00, 0.00, -0.00, -1.00, 79.7, 9.0)"> </text><text xml:space="preserve" font-family="AvenirNext-Medium" font-size="23.0" fill="#FEFFFE" transform="matrix(1.00, 0.00, -0.00, -1.00, 85.5, 9.0)"> </text><text xml:space="preserve" font-family="AvenirNext-Medium" font-size="23.0" fill="#FEFFFE" transform="matrix(1.00, 0.00, -0.00, -1.00, 91.2, 9.0)"> </text><text xml:space="preserve" font-family="AvenirNext-Medium" font-size="23.0" fill="#FEFFFE" transform="matrix(1.00, 0.00, -0.00, -1.00, 97.0, 9.0)"> </text><text xml:space="preserve" font-family="AvenirNext-Medium" font-size="23.0" fill="#FEFFFE" transform="matrix(1.00, 0.00, -0.00, -1.00, 102.7, 9.0)"> </text><text xml:space="preserve" font-family="AvenirNext-Medium" font-size="23.0" fill="#FEFFFE" transform="matrix(1.00, 0.00, -0.00, -1.00, 108.5, 9.0)"> </text><text xml:space="preserve" font-family="AvenirNext-Medium" font-size="23.0" fill="#FEFFFE" transform="matrix(1.00, 0.00, -0.00, -1.00, 114.2, 9.0)"> </text><text xml:space="preserve" font-family="AvenirNext-Medium" font-size="23.0" fill="#FEFFFE" transform="matrix(1.00, 0.00, -0.00, -1.00, 120.0, 9.0)"> </text><text xml:space="preserve" font-family="AvenirNext-Medium" font-size="23.0" fill="#FEFFFE" transform="matrix(1.00, 0.00, -0.00, -1.00, 125.7, 9.0)"> </text><text xml:space="preserve" font-family="AvenirNext-Medium" font-size="23.0" fill="#FEFFFE" transform="matrix(1.00, 0.00, -0.00, -1.00, 131.5, 9.0)"> </text><text xml:space="preserve" font-family="AvenirNext-Medium" font-size="23.0" fill="#FEFFFE" transform="matrix(1.00, 0.00, -0.00, -1.00, 137.2, 9.0)"> </text><text xml:space="preserve" font-family="AvenirNext-Medium" font-size="23.0" fill="#FEFFFE" transform="matrix(1.00, 0.00, -0.00, -1.00, 143.0, 9.0)"> </text><text xml:space="preserve" font-family="AvenirNext-Medium" font-size="23.0" fill="#FEFFFE" transform="matrix(1.00, 0.00, -0.00, -1.00, 148.7, 9.0)"> </text><text xml:space="preserve" font-family="AvenirNext-Medium" font-size="23.0" fill="#FEFFFE" transform="matrix(1.00, 0.00, -0.00, -1.00, 154.5, 9.0)"> </text><text xml:space="preserve" font-family="AvenirNext-Medium" font-size="23.0" fill="#FEFFFE" transform="matrix(1.00, 0.00, -0.00, -1.00, 160.2, 9.0)"> </text><text xml:space="preserve" font-family="AvenirNext-Medium" font-size="23.0" fill="#FEFFFE" transform="matrix(1.00, 0.00, -0.00, -1.00, 166.0, 9.0)"> </text><text xml:space="preserve" font-family="AvenirNext-Medium" font-size="23.0" fill="#FEFFFE" transform="matrix(1.00, 0.00, -0.00, -1.00, 171.7, 9.0)"> </text><text xml:space="preserve" font-family="AvenirNext-Medium" font-size="23.0" fill="#FEFFFE" transform="matrix(1.00, 0.00, -0.00, -1.00, 177.5, 9.0)">3</text><text xml:space="preserve" font-family="AvenirNext-Medium" font-size="23.0" fill="#FEFFFE" transform="matrix(1.00, 0.00, -0.00, -1.00, 191.2, 9.0)">x</text><text xml:space="preserve" font-family="AvenirNext-Medium" font-size="23.0" fill="#FEFFFE" transform="matrix(1.00, 0.00, -0.00, -1.00, 202.9, 9.0)">3</text><text xml:space="preserve" font-family="AvenirNext-Medium" font-size="23.0" fill="#FEFFFE" transform="matrix(1.00, 0.00, -0.00, -1.00, 216.6, 9.0)">x</text><text xml:space="preserve" font-family="AvenirNext-Medium" font-size="23.0" fill="#FEFFFE" transform="matrix(1.00, 0.00, -0.00, -1.00, 228.4, 9.0)">5</text><text xml:space="preserve" font-family="AvenirNext-Medium" font-size="23.0" fill="#FEFFFE" transform="matrix(1.00, 0.00, -0.00, -1.00, 242.1, 9.0)"> </text><text xml:space="preserve" font-family="AvenirNext-Medium" font-size="23.0" fill="#FEFFFE" transform="matrix(1.00, 0.00, -0.00, -1.00, 247.8, 9.0)">m</text><text xml:space="preserve" font-family="AvenirNext-Medium" font-size="23.0" fill="#FEFFFE" transform="matrix(1.00, 0.00, -0.00, -1.00, 268.2, 9.0)">m</text><text xml:space="preserve" font-family="AvenirNext-Medium" font-size="23.0" fill="#FEFFFE" transform="matrix(1.00, 0.00, -0.00, -1.00, 288.6, 9.0)"> </text><g><clipPath id="clip-215"><path d="M 1.1 5.8 L 61.5 5.8 L 61.5 8.9 L 1.1 8.9 Z M 1.1 5.8 "></path></clipPath><g clip-path="url(#clip-215)"><path d="M 4.0 59.3 L 63.3 59.3 " fill="none" stroke="#FEFFFE" stroke-width="1.15" stroke-miterlimit="0.00" transform="matrix(1.00, 0.00, 0.00, -1.00, -1.9, 66.7)"></path></g></g></g></svg>