<?xml version="1.0" encoding="UTF-8" standalone="no"?><svg xmlns="http://www.w3.org/2000/svg" xmlns:xlink="http://www.w3.org/1999/xlink" clip-rule="evenodd" stroke-miterlimit="4.00" viewBox="0 0 393 30"><desc>SVG generated by Keynote</desc><defs></defs><g transform="matrix(1.00, 0.00, -0.00, -1.00, 0.0, 30.0)"><text xml:space="preserve" font-family="AvenirNext-Medium" font-size="26.0" fill="#E1E5E4" transform="matrix(1.00, 0.00, -0.00, -1.00, 1.0, 8.0)">[</text><text xml:space="preserve" font-family="AvenirNext-Medium" font-size="26.0" fill="#E1E5E4" transform="matrix(1.00, 0.00, -0.00, -1.00, 9.2, 8.0)">1</text><text xml:space="preserve" font-family="AvenirNext-Medium" font-size="26.0" fill="#E1E5E4" transform="matrix(1.00, 0.00, -0.00, -1.00, 24.7, 8.0)">]</text><text xml:space="preserve" font-family="AvenirNext-Medium" font-size="26.0" fill="#E1E5E4" transform="matrix(1.00, 0.00, -0.00, -1.00, 32.8, 8.0)"> </text><text xml:space="preserve" font-family="AvenirNext-Medium" font-size="26.0" fill="#E1E5E4" transform="matrix(1.00, 0.00, -0.00, -1.00, 38.9, 8.0)">A</text><text xml:space="preserve" font-family="AvenirNext-Medium" font-size="26.0" fill="#E1E5E4" transform="matrix(1.00, 0.00, -0.00, -1.00, 57.2, 8.0)">v</text><text xml:space="preserve" font-family="AvenirNext-Medium" font-size="26.0" fill="#E1E5E4" transform="matrix(1.00, 0.00, -0.00, -1.00, 70.3, 8.0)">a</text><text xml:space="preserve" font-family="AvenirNext-Medium" font-size="26.0" fill="#E1E5E4" transform="matrix(1.00, 0.00, -0.00, -1.00, 84.4, 8.0)">n</text><text xml:space="preserve" font-family="AvenirNext-Medium" font-size="26.0" fill="#E1E5E4" transform="matrix(1.00, 0.00, -0.00, -1.00, 99.5, 8.0)">t</text><text xml:space="preserve" font-family="AvenirNext-Medium" font-size="26.0" fill="#E1E5E4" transform="matrix(1.00, 0.00, -0.00, -1.00, 108.1, 8.0)">s</text><text xml:space="preserve" font-family="AvenirNext-Medium" font-size="26.0" fill="#E1E5E4" transform="matrix(1.00, 0.00, -0.00, -1.00, 119.6, 8.0)"> </text><text xml:space="preserve" font-family="AvenirNext-Medium" font-size="26.0" fill="#E1E5E4" transform="matrix(1.00, 0.00, -0.00, -1.00, 126.1, 8.0)">B</text><text xml:space="preserve" font-family="AvenirNext-Medium" font-size="26.0" fill="#E1E5E4" transform="matrix(1.00, 0.00, -0.00, -1.00, 142.8, 8.0)">.</text><text xml:space="preserve" font-family="AvenirNext-Medium" font-size="26.0" fill="#E1E5E4" transform="matrix(1.00, 0.00, -0.00, -1.00, 148.8, 8.0)"> </text><text xml:space="preserve" font-family="AvenirNext-MediumItalic" font-style="italic" font-size="26.0" fill="#E1E5E4" transform="matrix(1.00, 0.00, -0.00, -1.00, 155.3, 8.0)">e</text><text xml:space="preserve" font-family="AvenirNext-MediumItalic" font-style="italic" font-size="26.0" fill="#E1E5E4" transform="matrix(1.00, 0.00, -0.00, -1.00, 170.0, 8.0)">t</text><text xml:space="preserve" font-family="AvenirNext-MediumItalic" font-style="italic" font-size="26.0" fill="#E1E5E4" transform="matrix(1.00, 0.00, -0.00, -1.00, 178.4, 8.0)"> </text><text xml:space="preserve" font-family="AvenirNext-MediumItalic" font-style="italic" font-size="26.0" fill="#E1E5E4" transform="matrix(1.00, 0.00, -0.00, -1.00, 184.9, 8.0)">a</text><text xml:space="preserve" font-family="AvenirNext-MediumItalic" font-style="italic" font-size="26.0" fill="#E1E5E4" transform="matrix(1.00, 0.00, -0.00, -1.00, 198.9, 8.0)">l</text><text xml:space="preserve" font-family="AvenirNext-Medium" font-size="26.0" fill="#E1E5E4" transform="matrix(1.00, 0.00, -0.00, -1.00, 205.6, 8.0)">,</text><text xml:space="preserve" font-family="AvenirNext-Medium" font-size="26.0" fill="#E1E5E4" transform="matrix(1.00, 0.00, -0.00, -1.00, 211.6, 8.0)"> </text><text xml:space="preserve" font-family="AvenirNext-Medium" font-size="26.0" fill="#E1E5E4" transform="matrix(1.00, 0.00, -0.00, -1.00, 218.1, 8.0)">I</text><text xml:space="preserve" font-family="AvenirNext-Medium" font-size="26.0" fill="#E1E5E4" transform="matrix(1.00, 0.00, -0.00, -1.00, 225.2, 8.0)">n</text><text xml:space="preserve" font-family="AvenirNext-Medium" font-size="26.0" fill="#E1E5E4" transform="matrix(1.00, 0.00, -0.00, -1.00, 240.3, 8.0)">s</text><text xml:space="preserve" font-family="AvenirNext-Medium" font-size="26.0" fill="#E1E5E4" transform="matrix(1.00, 0.00, -0.00, -1.00, 251.8, 8.0)">i</text><text xml:space="preserve" font-family="AvenirNext-Medium" font-size="26.0" fill="#E1E5E4" transform="matrix(1.00, 0.00, -0.00, -1.00, 258.6, 8.0)">g</text><text xml:space="preserve" font-family="AvenirNext-Medium" font-size="26.0" fill="#E1E5E4" transform="matrix(1.00, 0.00, -0.00, -1.00, 275.0, 8.0)">h</text><text xml:space="preserve" font-family="AvenirNext-Medium" font-size="26.0" fill="#E1E5E4" transform="matrix(1.00, 0.00, -0.00, -1.00, 290.2, 8.0)">t</text><text xml:space="preserve" font-family="AvenirNext-Medium" font-size="26.0" fill="#E1E5E4" transform="matrix(1.00, 0.00, -0.00, -1.00, 298.8, 8.0)"> </text><text xml:space="preserve" font-family="AvenirNext-Medium" font-size="26.0" fill="#E1E5E4" transform="matrix(1.00, 0.00, -0.00, -1.00, 304.9, 8.0)">J</text><text xml:space="preserve" font-family="AvenirNext-Medium" font-size="26.0" fill="#E1E5E4" transform="matrix(1.00, 0.00, -0.00, -1.00, 317.8, 8.0)">.</text><text xml:space="preserve" font-family="AvenirNext-Medium" font-size="26.0" fill="#E1E5E4" transform="matrix(1.00, 0.00, -0.00, -1.00, 323.8, 8.0)"> </text><text xml:space="preserve" font-family="AvenirNext-Medium" font-size="26.0" fill="#E1E5E4" transform="matrix(1.00, 0.00, -0.00, -1.00, 330.3, 8.0)">2</text><text xml:space="preserve" font-family="AvenirNext-Medium" font-size="26.0" fill="#E1E5E4" transform="matrix(1.00, 0.00, -0.00, -1.00, 345.8, 8.0)">0</text><text xml:space="preserve" font-family="AvenirNext-Medium" font-size="26.0" fill="#E1E5E4" transform="matrix(1.00, 0.00, -0.00, -1.00, 361.2, 8.0)">0</text><text xml:space="preserve" font-family="AvenirNext-Medium" font-size="26.0" fill="#E1E5E4" transform="matrix(1.00, 0.00, -0.00, -1.00, 376.7, 8.0)">9</text></g></svg>