<?xml version="1.0" encoding="UTF-8" standalone="no"?><svg xmlns="http://www.w3.org/2000/svg" xmlns:xlink="http://www.w3.org/1999/xlink" clip-rule="evenodd" stroke-miterlimit="4.00" viewBox="0 0 315 167"><desc>SVG generated by Keynote</desc><defs></defs><g transform="matrix(1.00, 0.00, -0.00, -1.00, 0.0, 167.0)"><image xlink:href="../../EB98D6B9-B009-4DA7-8205-302E8088127C/assets/C47AED0434D81CD42351878BF5C38148.png" width="312.00" height="160.00" transform="matrix(1.00, 0.00, -0.00, -1.00, 1.7, 161.2)" opacity="0.33"></image><path d="M 11.7 153.2 L 303.8 153.2 L 303.8 13.4 L 11.7 13.4 Z M 11.7 153.2 " fill="#E3F5F4"></path><g><clipPath id="clip-144"><path d="M 9.2 11.5 L 306.3 11.5 L 306.3 154.7 L 9.2 154.7 Z M 9.2 11.5 "></path></clipPath><g clip-path="url(#clip-144)"><text xml:space="preserve" font-family="Helvetica-Bold" font-weight="bold" font-size="26.0" fill="#000000" transform="matrix(1.00, 0.00, -0.00, -1.00, 92.0, 123.0)">A</text><text xml:space="preserve" font-family="Helvetica-Bold" font-weight="bold" font-size="26.0" fill="#000000" transform="matrix(1.00, 0.00, -0.00, -1.00, 110.8, 123.0)">N</text><text xml:space="preserve" font-family="Helvetica-Bold" font-weight="bold" font-size="26.0" fill="#000000" transform="matrix(1.00, 0.00, -0.00, -1.00, 129.6, 123.0)">T</text><text xml:space="preserve" font-family="Helvetica-Bold" font-weight="bold" font-size="26.0" fill="#000000" transform="matrix(1.00, 0.00, -0.00, -1.00, 145.4, 123.0)">S</text><text xml:space="preserve" font-family="Helvetica-Bold" font-weight="bold" font-size="26.0" fill="#000000" transform="matrix(1.00, 0.00, -0.00, -1.00, 162.8, 123.0)"> </text><text xml:space="preserve" font-family="Helvetica-Bold" font-weight="bold" font-size="26.0" fill="#000000" transform="matrix(1.00, 0.00, -0.00, -1.00, 170.0, 123.0)">S</text><text xml:space="preserve" font-family="Helvetica-Bold" font-weight="bold" font-size="26.0" fill="#000000" transform="matrix(1.00, 0.00, -0.00, -1.00, 187.3, 123.0)">Y</text><text xml:space="preserve" font-family="Helvetica-Bold" font-weight="bold" font-size="26.0" fill="#000000" transform="matrix(1.00, 0.00, -0.00, -1.00, 204.7, 123.0)">N</text><text xml:space="preserve" font-family="Helvetica-Bold" font-weight="bold" font-size="26.0" fill="#000000" transform="matrix(1.00, 0.00, -0.00, -1.00, 223.5, 123.0)"> </text><text xml:space="preserve" font-family="Helvetica-Bold" font-weight="bold" font-size="26.0" fill="#000000" transform="matrix(1.00, 0.00, -0.00, -1.00, 60.0, 98.0)">R</text><text xml:space="preserve" font-family="Helvetica-Bold" font-weight="bold" font-size="26.0" fill="#000000" transform="matrix(1.00, 0.00, -0.00, -1.00, 78.8, 98.0)">E</text><text xml:space="preserve" font-family="Helvetica-Bold" font-weight="bold" font-size="26.0" fill="#000000" transform="matrix(1.00, 0.00, -0.00, -1.00, 96.1, 98.0)">G</text><text xml:space="preserve" font-family="Helvetica-Bold" font-weight="bold" font-size="26.0" fill="#000000" transform="matrix(1.00, 0.00, -0.00, -1.00, 116.3, 98.0)">I</text><text xml:space="preserve" font-family="Helvetica-Bold" font-weight="bold" font-size="26.0" fill="#000000" transform="matrix(1.00, 0.00, -0.00, -1.00, 123.6, 98.0)">S</text><text xml:space="preserve" font-family="Helvetica-Bold" font-weight="bold" font-size="26.0" fill="#000000" transform="matrix(1.00, 0.00, -0.00, -1.00, 140.9, 98.0)">T</text><text xml:space="preserve" font-family="Helvetica-Bold" font-weight="bold" font-size="26.0" fill="#000000" transform="matrix(1.00, 0.00, -0.00, -1.00, 156.8, 98.0)">R</text><text xml:space="preserve" font-family="Helvetica-Bold" font-weight="bold" font-size="26.0" fill="#000000" transform="matrix(1.00, 0.00, -0.00, -1.00, 175.6, 98.0)">A</text><text xml:space="preserve" font-family="Helvetica-Bold" font-weight="bold" font-size="26.0" fill="#000000" transform="matrix(1.00, 0.00, -0.00, -1.00, 192.4, 98.0)">T</text><text xml:space="preserve" font-family="Helvetica-Bold" font-weight="bold" font-size="26.0" fill="#000000" transform="matrix(1.00, 0.00, -0.00, -1.00, 208.3, 98.0)">I</text><text xml:space="preserve" font-family="Helvetica-Bold" font-weight="bold" font-size="26.0" fill="#000000" transform="matrix(1.00, 0.00, -0.00, -1.00, 215.5, 98.0)">O</text><text xml:space="preserve" font-family="Helvetica-Bold" font-weight="bold" font-size="26.0" fill="#000000" transform="matrix(1.00, 0.00, -0.00, -1.00, 235.7, 98.0)">N</text><text xml:space="preserve" font-family="Helvetica-Bold" font-weight="bold" font-size="26.0" fill="#000000" transform="matrix(1.00, 0.00, -0.00, -1.00, 254.5, 98.0)"> </text><text xml:space="preserve" font-family="Helvetica-Bold" font-weight="bold" font-size="26.0" fill="#000000" transform="matrix(1.00, 0.00, -0.00, -1.00, 39.0, 74.0)">(</text><text xml:space="preserve" font-family="Helvetica-Bold" font-weight="bold" font-size="26.0" fill="#000000" transform="matrix(1.00, 0.00, -0.00, -1.00, 47.7, 74.0)">U</text><text xml:space="preserve" font-family="Helvetica-Bold" font-weight="bold" font-size="26.0" fill="#000000" transform="matrix(1.00, 0.00, -0.00, -1.00, 66.4, 74.0)">S</text><text xml:space="preserve" font-family="Helvetica-Bold" font-weight="bold" font-size="26.0" fill="#000000" transform="matrix(1.00, 0.00, -0.00, -1.00, 83.8, 74.0)">I</text><text xml:space="preserve" font-family="Helvetica-Bold" font-weight="bold" font-size="26.0" fill="#000000" transform="matrix(1.00, 0.00, -0.00, -1.00, 91.0, 74.0)">N</text><text xml:space="preserve" font-family="Helvetica-Bold" font-weight="bold" font-size="26.0" fill="#000000" transform="matrix(1.00, 0.00, -0.00, -1.00, 109.8, 74.0)">G</text><text xml:space="preserve" font-family="Helvetica-Bold" font-weight="bold" font-size="26.0" fill="#000000" transform="matrix(1.00, 0.00, -0.00, -1.00, 130.0, 74.0)"> </text><text xml:space="preserve" font-family="Helvetica-Bold" font-weight="bold" font-size="26.0" fill="#000000" transform="matrix(1.00, 0.00, -0.00, -1.00, 137.2, 74.0)">T</text><text xml:space="preserve" font-family="Helvetica-Bold" font-weight="bold" font-size="26.0" fill="#000000" transform="matrix(1.00, 0.00, -0.00, -1.00, 153.1, 74.0)">1</text><text xml:space="preserve" font-family="Helvetica-Bold" font-weight="bold" font-size="26.0" fill="#000000" transform="matrix(1.00, 0.00, -0.00, -1.00, 167.6, 74.0)"> </text><text xml:space="preserve" font-family="Helvetica-Bold" font-weight="bold" font-size="26.0" fill="#000000" transform="matrix(1.00, 0.00, -0.00, -1.00, 174.8, 74.0)">I</text><text xml:space="preserve" font-family="Helvetica-Bold" font-weight="bold" font-size="26.0" fill="#000000" transform="matrix(1.00, 0.00, -0.00, -1.00, 182.0, 74.0)">M</text><text xml:space="preserve" font-family="Helvetica-Bold" font-weight="bold" font-size="26.0" fill="#000000" transform="matrix(1.00, 0.00, -0.00, -1.00, 203.7, 74.0)">A</text><text xml:space="preserve" font-family="Helvetica-Bold" font-weight="bold" font-size="26.0" fill="#000000" transform="matrix(1.00, 0.00, -0.00, -1.00, 222.4, 74.0)">G</text><text xml:space="preserve" font-family="Helvetica-Bold" font-weight="bold" font-size="26.0" fill="#000000" transform="matrix(1.00, 0.00, -0.00, -1.00, 242.7, 74.0)">E</text><text xml:space="preserve" font-family="Helvetica-Bold" font-weight="bold" font-size="26.0" fill="#000000" transform="matrix(1.00, 0.00, -0.00, -1.00, 260.0, 74.0)">S</text><text xml:space="preserve" font-family="Helvetica-Bold" font-weight="bold" font-size="26.0" fill="#000000" transform="matrix(1.00, 0.00, -0.00, -1.00, 277.3, 74.0)"> </text><text xml:space="preserve" font-family="Helvetica-Bold" font-weight="bold" font-size="26.0" fill="#000000" transform="matrix(1.00, 0.00, -0.00, -1.00, 86.0, 49.0)">A</text><text xml:space="preserve" font-family="Helvetica-Bold" font-weight="bold" font-size="26.0" fill="#000000" transform="matrix(1.00, 0.00, -0.00, -1.00, 104.8, 49.0)">N</text><text xml:space="preserve" font-family="Helvetica-Bold" font-weight="bold" font-size="26.0" fill="#000000" transform="matrix(1.00, 0.00, -0.00, -1.00, 123.6, 49.0)">D</text><text xml:space="preserve" font-family="Helvetica-Bold" font-weight="bold" font-size="26.0" fill="#000000" transform="matrix(1.00, 0.00, -0.00, -1.00, 142.3, 49.0)"> </text><text xml:space="preserve" font-family="Helvetica-Bold" font-weight="bold" font-size="26.0" fill="#000000" transform="matrix(1.00, 0.00, -0.00, -1.00, 149.6, 49.0)">O</text><text xml:space="preserve" font-family="Helvetica-Bold" font-weight="bold" font-size="26.0" fill="#000000" transform="matrix(1.00, 0.00, -0.00, -1.00, 169.8, 49.0)">A</text><text xml:space="preserve" font-family="Helvetica-Bold" font-weight="bold" font-size="26.0" fill="#000000" transform="matrix(1.00, 0.00, -0.00, -1.00, 188.6, 49.0)">S</text><text xml:space="preserve" font-family="Helvetica-Bold" font-weight="bold" font-size="26.0" fill="#000000" transform="matrix(1.00, 0.00, -0.00, -1.00, 205.9, 49.0)">I</text><text xml:space="preserve" font-family="Helvetica-Bold" font-weight="bold" font-size="26.0" fill="#000000" transform="matrix(1.00, 0.00, -0.00, -1.00, 213.1, 49.0)">S</text><text xml:space="preserve" font-family="Helvetica-Bold" font-weight="bold" font-size="26.0" fill="#000000" transform="matrix(1.00, 0.00, -0.00, -1.00, 230.5, 49.0)"> </text><text xml:space="preserve" font-family="Helvetica-Bold" font-weight="bold" font-size="26.0" fill="#000000" transform="matrix(1.00, 0.00, -0.00, -1.00, 79.0, 24.0)">T</text><text xml:space="preserve" font-family="Helvetica-Bold" font-weight="bold" font-size="26.0" fill="#000000" transform="matrix(1.00, 0.00, -0.00, -1.00, 94.9, 24.0)">E</text><text xml:space="preserve" font-family="Helvetica-Bold" font-weight="bold" font-size="26.0" fill="#000000" transform="matrix(1.00, 0.00, -0.00, -1.00, 112.2, 24.0)">M</text><text xml:space="preserve" font-family="Helvetica-Bold" font-weight="bold" font-size="26.0" fill="#000000" transform="matrix(1.00, 0.00, -0.00, -1.00, 133.9, 24.0)">P</text><text xml:space="preserve" font-family="Helvetica-Bold" font-weight="bold" font-size="26.0" fill="#000000" transform="matrix(1.00, 0.00, -0.00, -1.00, 151.2, 24.0)">L</text><text xml:space="preserve" font-family="Helvetica-Bold" font-weight="bold" font-size="26.0" fill="#000000" transform="matrix(1.00, 0.00, -0.00, -1.00, 167.1, 24.0)">A</text><text xml:space="preserve" font-family="Helvetica-Bold" font-weight="bold" font-size="26.0" fill="#000000" transform="matrix(1.00, 0.00, -0.00, -1.00, 184.0, 24.0)">T</text><text xml:space="preserve" font-family="Helvetica-Bold" font-weight="bold" font-size="26.0" fill="#000000" transform="matrix(1.00, 0.00, -0.00, -1.00, 199.8, 24.0)">E</text><text xml:space="preserve" font-family="Helvetica-Bold" font-weight="bold" font-size="26.0" fill="#000000" transform="matrix(1.00, 0.00, -0.00, -1.00, 217.2, 24.0)">)</text><text xml:space="preserve" font-family="Helvetica-Bold" font-weight="bold" font-size="17.3" fill="#000000" transform="matrix(1.00, 0.00, -0.00, -1.00, 225.8, 30.7)">1</text></g></g></g></svg>