<?xml version="1.0" encoding="UTF-8" standalone="no"?><svg xmlns="http://www.w3.org/2000/svg" xmlns:xlink="http://www.w3.org/1999/xlink" clip-rule="evenodd" stroke-miterlimit="4.00" viewBox="0 0 347 39"><desc>SVG generated by Keynote</desc><defs></defs><g transform="matrix(1.00, 0.00, -0.00, -1.00, 0.0, 39.0)"><g><clipPath id="clip-140"><path d="M 0.0 5.0 L 347.0 5.0 L 347.0 39.0 L 0.0 39.0 Z M 0.0 5.0 "></path></clipPath><g clip-path="url(#clip-140)"><text xml:space="preserve" font-family="AvenirNext-MediumItalic" font-style="italic" font-size="35.0" fill="#FEFFFE" transform="matrix(1.00, 0.00, -0.00, -1.00, 2.0, 11.0)">S</text><text xml:space="preserve" font-family="AvenirNext-MediumItalic" font-style="italic" font-size="35.0" fill="#FEFFFE" transform="matrix(1.00, 0.00, -0.00, -1.00, 21.9, 11.0)">W</text><text xml:space="preserve" font-family="AvenirNext-MediumItalic" font-style="italic" font-size="35.0" fill="#FEFFFE" transform="matrix(1.00, 0.00, -0.00, -1.00, 56.3, 11.0)">I</text><text xml:space="preserve" font-family="AvenirNext-MediumItalic" font-style="italic" font-size="35.0" fill="#FEFFFE" transform="matrix(1.00, 0.00, -0.00, -1.00, 65.8, 11.0)"> </text><text xml:space="preserve" font-family="AvenirNext-MediumItalic" font-style="italic" font-size="35.0" fill="#FEFFFE" transform="matrix(1.00, 0.00, -0.00, -1.00, 74.5, 11.0)">-</text><text xml:space="preserve" font-family="AvenirNext-MediumItalic" font-style="italic" font-size="35.0" fill="#FEFFFE" transform="matrix(1.00, 0.00, -0.00, -1.00, 85.7, 11.0)"> </text><text xml:space="preserve" font-family="AvenirNext-MediumItalic" font-style="italic" font-size="35.0" fill="#FEFFFE" transform="matrix(1.00, 0.00, -0.00, -1.00, 94.5, 11.0)">P</text><text xml:space="preserve" font-family="AvenirNext-MediumItalic" font-style="italic" font-size="35.0" fill="#FEFFFE" transform="matrix(1.00, 0.00, -0.00, -1.00, 113.6, 11.0)">r</text><text xml:space="preserve" font-family="AvenirNext-MediumItalic" font-style="italic" font-size="35.0" fill="#FEFFFE" transform="matrix(1.00, 0.00, -0.00, -1.00, 125.2, 11.0)">o</text><text xml:space="preserve" font-family="AvenirNext-MediumItalic" font-style="italic" font-size="35.0" fill="#FEFFFE" transform="matrix(1.00, 0.00, -0.00, -1.00, 146.2, 11.0)">b</text><text xml:space="preserve" font-family="AvenirNext-MediumItalic" font-style="italic" font-size="35.0" fill="#FEFFFE" transform="matrix(1.00, 0.00, -0.00, -1.00, 168.4, 11.0)">a</text><text xml:space="preserve" font-family="AvenirNext-MediumItalic" font-style="italic" font-size="35.0" fill="#FEFFFE" transform="matrix(1.00, 0.00, -0.00, -1.00, 187.2, 11.0)">b</text><text xml:space="preserve" font-family="AvenirNext-MediumItalic" font-style="italic" font-size="35.0" fill="#FEFFFE" transform="matrix(1.00, 0.00, -0.00, -1.00, 209.3, 11.0)">i</text><text xml:space="preserve" font-family="AvenirNext-MediumItalic" font-style="italic" font-size="35.0" fill="#FEFFFE" transform="matrix(1.00, 0.00, -0.00, -1.00, 218.4, 11.0)">l</text><text xml:space="preserve" font-family="AvenirNext-MediumItalic" font-style="italic" font-size="35.0" fill="#FEFFFE" transform="matrix(1.00, 0.00, -0.00, -1.00, 227.5, 11.0)">i</text><text xml:space="preserve" font-family="AvenirNext-MediumItalic" font-style="italic" font-size="35.0" fill="#FEFFFE" transform="matrix(1.00, 0.00, -0.00, -1.00, 236.5, 11.0)">t</text><text xml:space="preserve" font-family="AvenirNext-MediumItalic" font-style="italic" font-size="35.0" fill="#FEFFFE" transform="matrix(1.00, 0.00, -0.00, -1.00, 247.9, 11.0)">y</text><text xml:space="preserve" font-family="AvenirNext-MediumItalic" font-style="italic" font-size="35.0" fill="#FEFFFE" transform="matrix(1.00, 0.00, -0.00, -1.00, 265.2, 11.0)"> </text><text xml:space="preserve" font-family="AvenirNext-MediumItalic" font-style="italic" font-size="35.0" fill="#FEFFFE" transform="matrix(1.00, 0.00, -0.00, -1.00, 274.0, 11.0)">m</text><text xml:space="preserve" font-family="AvenirNext-MediumItalic" font-style="italic" font-size="35.0" fill="#FEFFFE" transform="matrix(1.00, 0.00, -0.00, -1.00, 304.9, 11.0)">a</text><text xml:space="preserve" font-family="AvenirNext-MediumItalic" font-style="italic" font-size="35.0" fill="#FEFFFE" transform="matrix(1.00, 0.00, -0.00, -1.00, 323.7, 11.0)">p</text><text xml:space="preserve" font-family="AvenirNext-MediumItalic" font-style="italic" font-size="35.0" fill="#FEFFFE" transform="matrix(1.00, 0.00, -0.00, -1.00, 345.8, 11.0)"> </text></g></g></g></svg>