<?xml version="1.0" encoding="UTF-8" standalone="no"?><svg xmlns="http://www.w3.org/2000/svg" xmlns:xlink="http://www.w3.org/1999/xlink" clip-rule="evenodd" stroke-miterlimit="4.00" viewBox="0 0 316 167"><desc>SVG generated by Keynote</desc><defs><pattern id="E9CEE8BC-503E-4064-9786-69F822647DF5" patternUnits="userSpaceOnUse" width="294" height="294" viewBox="0 0 294 294" patternTransform="matrix(0.568027, 0.000000, 0.000000, -0.568027, 11.973880, 153.228000)"><image xlink:href="../../EB98D6B9-B009-4DA7-8205-302E8088127C/assets/0AC65A491B94B83787815EE269CA792B.jpeg" width="294.00" height="294.00"></image></pattern></defs><g transform="matrix(1.00, 0.00, -0.00, -1.00, 0.0, 167.0)"><image xlink:href="../../EB98D6B9-B009-4DA7-8205-302E8088127C/assets/43C416F8A69E1EFA23F49B5C538EA01F.png" width="312.00" height="160.00" transform="matrix(1.00, 0.00, -0.00, -1.00, 2.0, 161.2)" opacity="0.33"></image><g><clipPath id="clip-146"><path d="M 12.0 153.2 L 304.1 153.2 L 304.1 13.4 L 12.0 13.4 Z M 12.0 153.2 "></path></clipPath><g clip-path="url(#clip-146)"><path d="M 12.0 13.4 L 304.1 13.4 L 304.1 153.2 L 12.0 153.2 Z M 12.0 13.4 " fill="url(#E9CEE8BC-503E-4064-9786-69F822647DF5)"></path><path d="M 12.0 153.2 L 304.1 153.2 L 304.1 13.4 L 12.0 13.4 Z M 12.0 153.2 " fill="#94D9F6" fill-opacity="0.80"></path></g></g><g><clipPath id="clip-147"><path d="M 9.5 13.4 L 306.6 13.4 L 306.6 153.2 L 9.5 153.2 Z M 9.5 13.4 "></path></clipPath><g clip-path="url(#clip-147)"><text xml:space="preserve" font-family="Helvetica-Bold" font-weight="bold" font-size="26.0" fill="#000000" transform="matrix(1.00, 0.00, -0.00, -1.00, 107.0, 86.0)">V</text><text xml:space="preserve" font-family="Helvetica-Bold" font-weight="bold" font-size="26.0" fill="#000000" transform="matrix(1.00, 0.00, -0.00, -1.00, 124.3, 86.0)">E</text><text xml:space="preserve" font-family="Helvetica-Bold" font-weight="bold" font-size="26.0" fill="#000000" transform="matrix(1.00, 0.00, -0.00, -1.00, 141.7, 86.0)">S</text><text xml:space="preserve" font-family="Helvetica-Bold" font-weight="bold" font-size="26.0" fill="#000000" transform="matrix(1.00, 0.00, -0.00, -1.00, 159.0, 86.0)">S</text><text xml:space="preserve" font-family="Helvetica-Bold" font-weight="bold" font-size="26.0" fill="#000000" transform="matrix(1.00, 0.00, -0.00, -1.00, 176.4, 86.0)">E</text><text xml:space="preserve" font-family="Helvetica-Bold" font-weight="bold" font-size="26.0" fill="#000000" transform="matrix(1.00, 0.00, -0.00, -1.00, 193.7, 86.0)">L</text><text xml:space="preserve" font-family="Helvetica-Bold" font-weight="bold" font-size="26.0" fill="#000000" transform="matrix(1.00, 0.00, -0.00, -1.00, 209.1, 86.0)"> </text><text xml:space="preserve" font-family="Helvetica-Bold" font-weight="bold" font-size="26.0" fill="#000000" transform="matrix(1.00, 0.00, -0.00, -1.00, 38.0, 61.0)">P</text><text xml:space="preserve" font-family="Helvetica-Bold" font-weight="bold" font-size="26.0" fill="#000000" transform="matrix(1.00, 0.00, -0.00, -1.00, 55.3, 61.0)">R</text><text xml:space="preserve" font-family="Helvetica-Bold" font-weight="bold" font-size="26.0" fill="#000000" transform="matrix(1.00, 0.00, -0.00, -1.00, 74.1, 61.0)">O</text><text xml:space="preserve" font-family="Helvetica-Bold" font-weight="bold" font-size="26.0" fill="#000000" transform="matrix(1.00, 0.00, -0.00, -1.00, 94.3, 61.0)">B</text><text xml:space="preserve" font-family="Helvetica-Bold" font-weight="bold" font-size="26.0" fill="#000000" transform="matrix(1.00, 0.00, -0.00, -1.00, 113.1, 61.0)">A</text><text xml:space="preserve" font-family="Helvetica-Bold" font-weight="bold" font-size="26.0" fill="#000000" transform="matrix(1.00, 0.00, -0.00, -1.00, 131.9, 61.0)">B</text><text xml:space="preserve" font-family="Helvetica-Bold" font-weight="bold" font-size="26.0" fill="#000000" transform="matrix(1.00, 0.00, -0.00, -1.00, 150.7, 61.0)">I</text><text xml:space="preserve" font-family="Helvetica-Bold" font-weight="bold" font-size="26.0" fill="#000000" transform="matrix(1.00, 0.00, -0.00, -1.00, 157.9, 61.0)">L</text><text xml:space="preserve" font-family="Helvetica-Bold" font-weight="bold" font-size="26.0" fill="#000000" transform="matrix(1.00, 0.00, -0.00, -1.00, 173.8, 61.0)">I</text><text xml:space="preserve" font-family="Helvetica-Bold" font-weight="bold" font-size="26.0" fill="#000000" transform="matrix(1.00, 0.00, -0.00, -1.00, 181.0, 61.0)">T</text><text xml:space="preserve" font-family="Helvetica-Bold" font-weight="bold" font-size="26.0" fill="#000000" transform="matrix(1.00, 0.00, -0.00, -1.00, 196.9, 61.0)">Y</text><text xml:space="preserve" font-family="Helvetica-Bold" font-weight="bold" font-size="26.0" fill="#000000" transform="matrix(1.00, 0.00, -0.00, -1.00, 213.8, 61.0)"> </text><text xml:space="preserve" font-family="Helvetica-Bold" font-weight="bold" font-size="26.0" fill="#000000" transform="matrix(1.00, 0.00, -0.00, -1.00, 221.0, 61.0)">M</text><text xml:space="preserve" font-family="Helvetica-Bold" font-weight="bold" font-size="26.0" fill="#000000" transform="matrix(1.00, 0.00, -0.00, -1.00, 242.6, 61.0)">A</text><text xml:space="preserve" font-family="Helvetica-Bold" font-weight="bold" font-size="26.0" fill="#000000" transform="matrix(1.00, 0.00, -0.00, -1.00, 261.4, 61.0)">P</text></g></g></g></svg>