<?xml version="1.0" encoding="UTF-8" standalone="no"?><svg xmlns="http://www.w3.org/2000/svg" xmlns:xlink="http://www.w3.org/1999/xlink" clip-rule="evenodd" stroke-miterlimit="4.00" viewBox="0 0 1920 1080"><desc>SVG generated by Keynote</desc><defs><pattern id="C1995D09-701E-417E-BC0B-58B1DF34D0D8" patternUnits="userSpaceOnUse" width="333" height="333" viewBox="0 0 333 333" patternTransform="matrix(0.501501, 0.000000, 0.000000, -0.501501, 986.785600, 962.551900)"><image xlink:href="../../B1759C12-66D4-4FCF-BFA3-E3B5CB2B8328/assets/BBA26BCB9594D6F4CEA583601410EB9F.jpeg" width="333.00" height="333.00"></image></pattern></defs><g transform="matrix(1.00, 0.00, -0.00, -1.00, 0.0, 1080.0)"><path d="M 0.0 1080.0 L 1920.0 1080.0 L 1920.0 0.0 L 0.0 0.0 Z M 0.0 1080.0 " fill="#212121"></path><path d="M 0.0 0.0 L 1435.7 0.0 " fill="none" stroke="#A6AAA9" stroke-width="2.00" transform="matrix(1.00, -0.00, -0.00, -1.00, 60.0, 970.0)"></path><g opacity="0.05"><g><clipPath id="clip-649"><path d="M 986.8 962.6 L 1496.9 962.6 L 1496.9 8.0 L 986.8 8.0 Z M 986.8 962.6 "></path></clipPath><g clip-path="url(#clip-649)"><g><clipPath id="clip-650"><path d="M 985.0 7.0 L 1498.0 7.0 L 1498.0 964.0 L 985.0 964.0 Z M 985.0 7.0 "></path></clipPath><g clip-path="url(#clip-650)"><path d="M 986.8 8.0 L 1496.9 8.0 L 1496.9 962.6 L 986.8 962.6 Z M 986.8 8.0 " fill="url(#C1995D09-701E-417E-BC0B-58B1DF34D0D8)"></path><path d="M 986.8 962.6 L 1496.9 962.6 L 1496.9 8.0 L 986.8 8.0 Z M 986.8 962.6 " fill="#339B9E" fill-opacity="0.80"></path></g></g></g></g></g><text xml:space="preserve" font-family="Palatino-Roman" font-size="80.0" fill="#94D9F6" transform="matrix(1.00, 0.00, -0.00, -1.00, 582.0, 1005.0)">A</text><text xml:space="preserve" font-family="Palatino-Roman" font-size="80.0" fill="#94D9F6" transform="matrix(1.00, 0.00, -0.00, -1.00, 644.2, 1005.0)">c</text><text xml:space="preserve" font-family="Palatino-Roman" font-size="80.0" fill="#94D9F6" transform="matrix(1.00, 0.00, -0.00, -1.00, 679.7, 1005.0)">k</text><text xml:space="preserve" font-family="Palatino-Roman" font-size="80.0" fill="#94D9F6" transform="matrix(1.00, 0.00, -0.00, -1.00, 724.2, 1005.0)">n</text><text xml:space="preserve" font-family="Palatino-Roman" font-size="80.0" fill="#94D9F6" transform="matrix(1.00, 0.00, -0.00, -1.00, 770.8, 1005.0)">o</text><text xml:space="preserve" font-family="Palatino-Roman" font-size="80.0" fill="#94D9F6" transform="matrix(1.00, 0.00, -0.00, -1.00, 814.4, 1005.0)">w</text><text xml:space="preserve" font-family="Palatino-Roman" font-size="80.0" fill="#94D9F6" transform="matrix(1.00, 0.00, -0.00, -1.00, 881.2, 1005.0)">l</text><text xml:space="preserve" font-family="Palatino-Roman" font-size="80.0" fill="#94D9F6" transform="matrix(1.00, 0.00, -0.00, -1.00, 904.4, 1005.0)">e</text><text xml:space="preserve" font-family="Palatino-Roman" font-size="80.0" fill="#94D9F6" transform="matrix(1.00, 0.00, -0.00, -1.00, 942.8, 1005.0)">d</text><text xml:space="preserve" font-family="Palatino-Roman" font-size="80.0" fill="#94D9F6" transform="matrix(1.00, 0.00, -0.00, -1.00, 991.6, 1005.0)">g</text><text xml:space="preserve" font-family="Palatino-Roman" font-size="80.0" fill="#94D9F6" transform="matrix(1.00, 0.00, -0.00, -1.00, 1036.1, 1005.0)">e</text><text xml:space="preserve" font-family="Palatino-Roman" font-size="80.0" fill="#94D9F6" transform="matrix(1.00, 0.00, -0.00, -1.00, 1074.5, 1005.0)">m</text><text xml:space="preserve" font-family="Palatino-Roman" font-size="80.0" fill="#94D9F6" transform="matrix(1.00, 0.00, -0.00, -1.00, 1145.1, 1005.0)">e</text><text xml:space="preserve" font-family="Palatino-Roman" font-size="80.0" fill="#94D9F6" transform="matrix(1.00, 0.00, -0.00, -1.00, 1183.4, 1005.0)">n</text><text xml:space="preserve" font-family="Palatino-Roman" font-size="80.0" fill="#94D9F6" transform="matrix(1.00, 0.00, -0.00, -1.00, 1230.0, 1005.0)">t</text><text xml:space="preserve" font-family="Palatino-Roman" font-size="80.0" fill="#94D9F6" transform="matrix(1.00, 0.00, -0.00, -1.00, 1256.1, 1005.0)">s</text><text xml:space="preserve" font-family="Palatino-Roman" font-size="44.2" fill="#94D9F6" transform="matrix(1.00, 0.00, -0.00, -1.00, 758.0, 831.0)">S</text><text xml:space="preserve" font-family="Palatino-Roman" font-size="44.2" fill="#94D9F6" transform="matrix(1.00, 0.00, -0.00, -1.00, 781.2, 831.0)">t</text><text xml:space="preserve" font-family="Palatino-Roman" font-size="44.2" fill="#94D9F6" transform="matrix(1.00, 0.00, -0.00, -1.00, 795.6, 831.0)">e</text><text xml:space="preserve" font-family="Palatino-Roman" font-size="44.2" fill="#94D9F6" transform="matrix(1.00, 0.00, -0.00, -1.00, 816.8, 831.0)">p</text><text xml:space="preserve" font-family="Palatino-Roman" font-size="44.2" fill="#94D9F6" transform="matrix(1.00, 0.00, -0.00, -1.00, 843.4, 831.0)">h</text><text xml:space="preserve" font-family="Palatino-Roman" font-size="44.2" fill="#94D9F6" transform="matrix(1.00, 0.00, -0.00, -1.00, 869.1, 831.0)">e</text><text xml:space="preserve" font-family="Palatino-Roman" font-size="44.2" fill="#94D9F6" transform="matrix(1.00, 0.00, -0.00, -1.00, 890.3, 831.0)">n</text><text xml:space="preserve" font-family="Palatino-Roman" font-size="44.2" fill="#94D9F6" transform="matrix(1.00, 0.00, -0.00, -1.00, 916.0, 831.0)"> </text><text xml:space="preserve" font-family="Palatino-Roman" font-size="44.2" fill="#94D9F6" transform="matrix(1.00, 0.00, -0.00, -1.00, 758.0, 773.0)">C</text><text xml:space="preserve" font-family="Palatino-Roman" font-size="44.2" fill="#94D9F6" transform="matrix(1.00, 0.00, -0.00, -1.00, 789.3, 773.0)">u</text><text xml:space="preserve" font-family="Palatino-Roman" font-size="44.2" fill="#94D9F6" transform="matrix(1.00, 0.00, -0.00, -1.00, 816.0, 773.0)">n</text><text xml:space="preserve" font-family="Palatino-Roman" font-size="44.2" fill="#94D9F6" transform="matrix(1.00, 0.00, -0.00, -1.00, 841.7, 773.0)">n</text><text xml:space="preserve" font-family="Palatino-Roman" font-size="44.2" fill="#94D9F6" transform="matrix(1.00, 0.00, -0.00, -1.00, 867.4, 773.0)">a</text><text xml:space="preserve" font-family="Palatino-Roman" font-size="44.2" fill="#94D9F6" transform="matrix(1.00, 0.00, -0.00, -1.00, 889.5, 773.0)">n</text><text xml:space="preserve" font-family="Palatino-Roman" font-size="44.2" fill="#94D9F6" transform="matrix(1.00, 0.00, -0.00, -1.00, 915.3, 773.0)">e</text><text xml:space="preserve" font-family="Palatino-Roman" font-size="44.2" fill="#94D9F6" transform="matrix(1.00, 0.00, -0.00, -1.00, 936.4, 773.0)">,</text><text xml:space="preserve" font-family="Palatino-Roman" font-size="44.2" fill="#94D9F6" transform="matrix(1.00, 0.00, -0.00, -1.00, 947.5, 773.0)"> </text><text xml:space="preserve" font-family="Palatino-Roman" font-size="44.2" fill="#94D9F6" transform="matrix(1.00, 0.00, -0.00, -1.00, 758.0, 715.0)">P</text><text xml:space="preserve" font-family="Palatino-Roman" font-size="44.2" fill="#94D9F6" transform="matrix(1.00, 0.00, -0.00, -1.00, 784.7, 715.0)">h</text><text xml:space="preserve" font-family="Palatino-Roman" font-size="44.2" fill="#94D9F6" transform="matrix(1.00, 0.00, -0.00, -1.00, 810.4, 715.0)">.</text><text xml:space="preserve" font-family="Palatino-Roman" font-size="44.2" fill="#94D9F6" transform="matrix(1.00, 0.00, -0.00, -1.00, 821.5, 715.0)">D</text><text xml:space="preserve" font-family="Palatino-Roman" font-size="44.2" fill="#94D9F6" transform="matrix(1.00, 0.00, -0.00, -1.00, 855.7, 715.0)">.</text><path d="M 0.0 0.0 L 965.2 0.0 " fill="none" stroke="#404040" stroke-width="2.00" transform="matrix(0.00, 1.00, 1.00, 0.00, 1513.0, 2.7)"></path><image xlink:href="../../B1759C12-66D4-4FCF-BFA3-E3B5CB2B8328/assets/519BF6A58F5A1D9F1188E56A0AD27F57.png" width="278.00" height="166.00" transform="matrix(1.29, 0.00, -0.00, -1.30, 1541.0, 691.0)"></image><g><clipPath id="clip-651"><path d="M 1539.0 363.0 L 1904.0 363.0 L 1904.0 474.0 L 1539.0 474.0 Z M 1539.0 363.0 "></path></clipPath><g clip-path="url(#clip-651)"><path d="M 1539.0 474.0 L 1904.0 474.0 L 1904.0 363.0 L 1539.0 363.0 Z M 1539.0 474.0 " fill="#FEFFFF" fill-opacity="0.00"></path></g></g><g><clipPath id="clip-652"><path d="M 1539.0 363.0 L 1904.0 363.0 L 1904.0 474.0 L 1539.0 474.0 Z M 1539.0 363.0 "></path></clipPath><g clip-path="url(#clip-652)"><image xlink:href="../../B1759C12-66D4-4FCF-BFA3-E3B5CB2B8328/assets/F044E50D5D30EB5115FE0D1B39E26844.png" width="232.00" height="71.00" transform="matrix(1.57, 0.00, -0.00, -1.56, 1539.0, 474.0)"></image></g></g><image xlink:href="../../B1759C12-66D4-4FCF-BFA3-E3B5CB2B8328/assets/D8225DEBD3EA099ED23175929597C7DE.png" width="365.00" height="129.00" transform="matrix(1.00, 0.00, -0.00, -1.00, 1541.0, 361.0)"></image><image xlink:href="../../B1759C12-66D4-4FCF-BFA3-E3B5CB2B8328/assets/365767532A3428772515444E3F5567D1.png" width="366.00" height="161.00" transform="matrix(1.00, 0.00, -0.00, -1.01, 1541.0, 230.0)"></image><g><clipPath id="clip-653"><path d="M 544.0 890.0 L 729.0 890.0 L 729.0 633.0 L 544.0 633.0 Z M 543.6 890.2 "></path></clipPath><g clip-path="url(#clip-653)"><image xlink:href="../../B1759C12-66D4-4FCF-BFA3-E3B5CB2B8328/assets/FA81232999BE73284361740B799C1358.png" width="186.00" height="279.00" transform="matrix(0.99, 0.00, -0.00, -1.00, 544.0, 912.0)"></image></g></g><g><clipPath id="clip-654"><path d="M 220.7 690.2 L 511.8 690.2 L 511.8 888.5 L 220.7 888.5 Z M 220.7 690.2 "></path></clipPath><g clip-path="url(#clip-654)"><text xml:space="preserve" font-family="Palatino-Roman" font-size="44.2" fill="#94D9F6" transform="matrix(1.00, 0.00, -0.00, -1.00, 233.0, 831.0)">K</text><text xml:space="preserve" font-family="Palatino-Roman" font-size="44.2" fill="#94D9F6" transform="matrix(1.00, 0.00, -0.00, -1.00, 265.1, 831.0)">e</text><text xml:space="preserve" font-family="Palatino-Roman" font-size="44.2" fill="#94D9F6" transform="matrix(1.00, 0.00, -0.00, -1.00, 286.3, 831.0)">v</text><text xml:space="preserve" font-family="Palatino-Roman" font-size="44.2" fill="#94D9F6" transform="matrix(1.00, 0.00, -0.00, -1.00, 311.2, 831.0)">i</text><text xml:space="preserve" font-family="Palatino-Roman" font-size="44.2" fill="#94D9F6" transform="matrix(1.00, 0.00, -0.00, -1.00, 324.1, 831.0)">n</text><text xml:space="preserve" font-family="Palatino-Roman" font-size="44.2" fill="#94D9F6" transform="matrix(1.00, 0.00, -0.00, -1.00, 349.8, 831.0)"> </text><text xml:space="preserve" font-family="Palatino-Roman" font-size="44.2" fill="#94D9F6" transform="matrix(1.00, 0.00, -0.00, -1.00, 233.0, 773.0)">W</text><text xml:space="preserve" font-family="Palatino-Roman" font-size="44.2" fill="#94D9F6" transform="matrix(1.00, 0.00, -0.00, -1.00, 277.2, 773.0)">h</text><text xml:space="preserve" font-family="Palatino-Roman" font-size="44.2" fill="#94D9F6" transform="matrix(1.00, 0.00, -0.00, -1.00, 302.9, 773.0)">i</text><text xml:space="preserve" font-family="Palatino-Roman" font-size="44.2" fill="#94D9F6" transform="matrix(1.00, 0.00, -0.00, -1.00, 315.8, 773.0)">t</text><text xml:space="preserve" font-family="Palatino-Roman" font-size="44.2" fill="#94D9F6" transform="matrix(1.00, 0.00, -0.00, -1.00, 330.2, 773.0)">t</text><text xml:space="preserve" font-family="Palatino-Roman" font-size="44.2" fill="#94D9F6" transform="matrix(1.00, 0.00, -0.00, -1.00, 344.6, 773.0)">i</text><text xml:space="preserve" font-family="Palatino-Roman" font-size="44.2" fill="#94D9F6" transform="matrix(1.00, 0.00, -0.00, -1.00, 357.5, 773.0)">n</text><text xml:space="preserve" font-family="Palatino-Roman" font-size="44.2" fill="#94D9F6" transform="matrix(1.00, 0.00, -0.00, -1.00, 383.2, 773.0)">g</text><text xml:space="preserve" font-family="Palatino-Roman" font-size="44.2" fill="#94D9F6" transform="matrix(1.00, 0.00, -0.00, -1.00, 407.8, 773.0)">s</text><text xml:space="preserve" font-family="Palatino-Roman" font-size="44.2" fill="#94D9F6" transform="matrix(1.00, 0.00, -0.00, -1.00, 426.5, 773.0)">t</text><text xml:space="preserve" font-family="Palatino-Roman" font-size="44.2" fill="#94D9F6" transform="matrix(1.00, 0.00, -0.00, -1.00, 441.0, 773.0)">a</text><text xml:space="preserve" font-family="Palatino-Roman" font-size="44.2" fill="#94D9F6" transform="matrix(1.00, 0.00, -0.00, -1.00, 463.1, 773.0)">l</text><text xml:space="preserve" font-family="Palatino-Roman" font-size="44.2" fill="#94D9F6" transform="matrix(1.00, 0.00, -0.00, -1.00, 475.9, 773.0)">l</text><text xml:space="preserve" font-family="Palatino-Roman" font-size="44.2" fill="#94D9F6" transform="matrix(1.00, 0.00, -0.00, -1.00, 488.8, 773.0)">,</text><text xml:space="preserve" font-family="Palatino-Roman" font-size="44.2" fill="#94D9F6" transform="matrix(1.00, 0.00, -0.00, -1.00, 499.8, 773.0)"> </text><text xml:space="preserve" font-family="Palatino-Roman" font-size="44.2" fill="#94D9F6" transform="matrix(1.00, 0.00, -0.00, -1.00, 233.0, 715.0)">P</text><text xml:space="preserve" font-family="Palatino-Roman" font-size="44.2" fill="#94D9F6" transform="matrix(1.00, 0.00, -0.00, -1.00, 259.7, 715.0)">h</text><text xml:space="preserve" font-family="Palatino-Roman" font-size="44.2" fill="#94D9F6" transform="matrix(1.00, 0.00, -0.00, -1.00, 285.4, 715.0)">.</text><text xml:space="preserve" font-family="Palatino-Roman" font-size="44.2" fill="#94D9F6" transform="matrix(1.00, 0.00, -0.00, -1.00, 296.5, 715.0)">D</text><text xml:space="preserve" font-family="Palatino-Roman" font-size="44.2" fill="#94D9F6" transform="matrix(1.00, 0.00, -0.00, -1.00, 330.7, 715.0)">.</text></g></g><g><clipPath id="clip-655"><path d="M 16.7 633.4 L 200.7 633.4 L 200.7 890.2 L 16.7 890.2 Z M 16.7 633.4 "></path></clipPath><g clip-path="url(#clip-655)"><image xlink:href="../../B1759C12-66D4-4FCF-BFA3-E3B5CB2B8328/assets/1280C063408CAA5E6A24A70D330C09BD.png" width="182.00" height="254.00" transform="matrix(1.01, 0.00, -0.00, -1.01, 17.0, 890.0)"></image></g></g><image xlink:href="../../B1759C12-66D4-4FCF-BFA3-E3B5CB2B8328/assets/2AE3A50990A0A6B7B1B6B66B4E87E5DE.png" width="257.00" height="257.00" transform="matrix(1.00, 0.00, -0.00, -1.00, 1595.0, 1085.0)"></image><image xlink:href="../../B1759C12-66D4-4FCF-BFA3-E3B5CB2B8328/assets/9204B2587B71406A0FA5BF158E8694D0.png" width="212.00" height="102.00" transform="matrix(1.70, 0.00, -0.00, -1.70, 1541.0, 866.0)"></image><text xml:space="preserve" font-family="Palatino-Roman" font-size="37.0" fill="#94D9F6" transform="matrix(1.00, 0.00, -0.00, -1.00, 987.0, 483.0)">M</text><text xml:space="preserve" font-family="Palatino-Roman" font-size="37.0" fill="#94D9F6" transform="matrix(1.00, 0.00, -0.00, -1.00, 1022.0, 483.0)">i</text><text xml:space="preserve" font-family="Palatino-Roman" font-size="37.0" fill="#94D9F6" transform="matrix(1.00, 0.00, -0.00, -1.00, 1032.8, 483.0)">c</text><text xml:space="preserve" font-family="Palatino-Roman" font-size="37.0" fill="#94D9F6" transform="matrix(1.00, 0.00, -0.00, -1.00, 1049.2, 483.0)">h</text><text xml:space="preserve" font-family="Palatino-Roman" font-size="37.0" fill="#94D9F6" transform="matrix(1.00, 0.00, -0.00, -1.00, 1070.7, 483.0)">a</text><text xml:space="preserve" font-family="Palatino-Roman" font-size="37.0" fill="#94D9F6" transform="matrix(1.00, 0.00, -0.00, -1.00, 1089.2, 483.0)">e</text><text xml:space="preserve" font-family="Palatino-Roman" font-size="37.0" fill="#94D9F6" transform="matrix(1.00, 0.00, -0.00, -1.00, 1106.9, 483.0)">l</text><text xml:space="preserve" font-family="Palatino-Roman" font-size="37.0" fill="#94D9F6" transform="matrix(1.00, 0.00, -0.00, -1.00, 1117.7, 483.0)"> </text><text xml:space="preserve" font-family="Palatino-Roman" font-size="37.0" fill="#94D9F6" transform="matrix(1.00, 0.00, -0.00, -1.00, 1126.9, 483.0)">B</text><text xml:space="preserve" font-family="Palatino-Roman" font-size="37.0" fill="#94D9F6" transform="matrix(1.00, 0.00, -0.00, -1.00, 1149.5, 483.0)">e</text><text xml:space="preserve" font-family="Palatino-Roman" font-size="37.0" fill="#94D9F6" transform="matrix(1.00, 0.00, -0.00, -1.00, 1167.3, 483.0)">r</text><text xml:space="preserve" font-family="Palatino-Roman" font-size="37.0" fill="#94D9F6" transform="matrix(1.00, 0.00, -0.00, -1.00, 1181.9, 483.0)">n</text><text xml:space="preserve" font-family="Palatino-Roman" font-size="37.0" fill="#94D9F6" transform="matrix(1.00, 0.00, -0.00, -1.00, 1203.4, 483.0)">i</text><text xml:space="preserve" font-family="Palatino-Roman" font-size="37.0" fill="#94D9F6" transform="matrix(1.00, 0.00, -0.00, -1.00, 1214.2, 483.0)">e</text><text xml:space="preserve" font-family="Palatino-Roman" font-size="37.0" fill="#94D9F6" transform="matrix(1.00, 0.00, -0.00, -1.00, 1231.9, 483.0)">r</text><text xml:space="preserve" font-family="Palatino-Roman" font-size="37.0" fill="#94D9F6" transform="matrix(1.00, 0.00, -0.00, -1.00, 1243.8, 483.0)">,</text><text xml:space="preserve" font-family="Palatino-Roman" font-size="37.0" fill="#94D9F6" transform="matrix(1.00, 0.00, -0.00, -1.00, 1253.0, 483.0)"> </text><text xml:space="preserve" font-family="Palatino-Roman" font-size="37.0" fill="#94D9F6" transform="matrix(1.00, 0.00, -0.00, -1.00, 1262.3, 483.0)">P</text><text xml:space="preserve" font-family="Palatino-Roman" font-size="37.0" fill="#94D9F6" transform="matrix(1.00, 0.00, -0.00, -1.00, 1284.6, 483.0)">h</text><text xml:space="preserve" font-family="Palatino-Roman" font-size="37.0" fill="#94D9F6" transform="matrix(1.00, 0.00, -0.00, -1.00, 1306.2, 483.0)">.</text><text xml:space="preserve" font-family="Palatino-Roman" font-size="37.0" fill="#94D9F6" transform="matrix(1.00, 0.00, -0.00, -1.00, 1315.4, 483.0)">D</text><text xml:space="preserve" font-family="Palatino-Roman" font-size="37.0" fill="#94D9F6" transform="matrix(1.00, 0.00, -0.00, -1.00, 1344.1, 483.0)">.</text><text xml:space="preserve" font-family="Palatino-Roman" font-size="37.0" fill="#94D9F6" transform="matrix(1.00, 0.00, -0.00, -1.00, 1353.3, 483.0)"> </text><text xml:space="preserve" font-family="Palatino-Roman" font-size="37.0" fill="#94D9F6" transform="matrix(1.00, 0.00, -0.00, -1.00, 1362.6, 483.0)">s</text><text xml:space="preserve" font-family="Palatino-Roman" font-size="37.0" fill="#94D9F6" transform="matrix(1.00, 0.00, -0.00, -1.00, 1378.3, 483.0)">t</text><text xml:space="preserve" font-family="Palatino-Roman" font-size="37.0" fill="#94D9F6" transform="matrix(1.00, 0.00, -0.00, -1.00, 1390.3, 483.0)">u</text><text xml:space="preserve" font-family="Palatino-Roman" font-size="37.0" fill="#94D9F6" transform="matrix(1.00, 0.00, -0.00, -1.00, 1412.6, 483.0)">d</text><text xml:space="preserve" font-family="Palatino-Roman" font-size="37.0" fill="#94D9F6" transform="matrix(1.00, 0.00, -0.00, -1.00, 1435.2, 483.0)">e</text><text xml:space="preserve" font-family="Palatino-Roman" font-size="37.0" fill="#94D9F6" transform="matrix(1.00, 0.00, -0.00, -1.00, 1453.0, 483.0)">n</text><text xml:space="preserve" font-family="Palatino-Roman" font-size="37.0" fill="#94D9F6" transform="matrix(1.00, 0.00, -0.00, -1.00, 1474.5, 483.0)">t</text><text xml:space="preserve" font-family="Palatino-Roman" font-size="38.0" fill="#3BC1FF" transform="matrix(1.00, 0.00, -0.00, -1.00, 965.0, 436.0)">m</text><text xml:space="preserve" font-family="Palatino-Roman" font-size="38.0" fill="#3BC1FF" transform="matrix(1.00, 0.00, -0.00, -1.00, 998.5, 436.0)">i</text><text xml:space="preserve" font-family="Palatino-Roman" font-size="38.0" fill="#3BC1FF" transform="matrix(1.00, 0.00, -0.00, -1.00, 1009.6, 436.0)">c</text><text xml:space="preserve" font-family="Palatino-Roman" font-size="38.0" fill="#3BC1FF" transform="matrix(1.00, 0.00, -0.00, -1.00, 1026.5, 436.0)">h</text><text xml:space="preserve" font-family="Palatino-Roman" font-size="38.0" fill="#3BC1FF" transform="matrix(1.00, 0.00, -0.00, -1.00, 1048.6, 436.0)">a</text><text xml:space="preserve" font-family="Palatino-Roman" font-size="38.0" fill="#3BC1FF" transform="matrix(1.00, 0.00, -0.00, -1.00, 1067.6, 436.0)">e</text><text xml:space="preserve" font-family="Palatino-Roman" font-size="38.0" fill="#3BC1FF" transform="matrix(1.00, 0.00, -0.00, -1.00, 1085.8, 436.0)">l</text><text xml:space="preserve" font-family="Palatino-Roman" font-size="38.0" fill="#3BC1FF" transform="matrix(1.00, 0.00, -0.00, -1.00, 1096.8, 436.0)">.</text><text xml:space="preserve" font-family="Palatino-Roman" font-size="38.0" fill="#3BC1FF" transform="matrix(1.00, 0.00, -0.00, -1.00, 1106.3, 436.0)">b</text><text xml:space="preserve" font-family="Palatino-Roman" font-size="38.0" fill="#3BC1FF" transform="matrix(1.00, 0.00, -0.00, -1.00, 1127.4, 436.0)">e</text><text xml:space="preserve" font-family="Palatino-Roman" font-size="38.0" fill="#3BC1FF" transform="matrix(1.00, 0.00, -0.00, -1.00, 1145.6, 436.0)">r</text><text xml:space="preserve" font-family="Palatino-Roman" font-size="38.0" fill="#3BC1FF" transform="matrix(1.00, 0.00, -0.00, -1.00, 1160.6, 436.0)">n</text><text xml:space="preserve" font-family="Palatino-Roman" font-size="38.0" fill="#3BC1FF" transform="matrix(1.00, 0.00, -0.00, -1.00, 1182.7, 436.0)">i</text><text xml:space="preserve" font-family="Palatino-Roman" font-size="38.0" fill="#3BC1FF" transform="matrix(1.00, 0.00, -0.00, -1.00, 1193.8, 436.0)">e</text><text xml:space="preserve" font-family="Palatino-Roman" font-size="38.0" fill="#3BC1FF" transform="matrix(1.00, 0.00, -0.00, -1.00, 1212.0, 436.0)">r</text><text xml:space="preserve" font-family="Palatino-Roman" font-size="38.0" fill="#3BC1FF" transform="matrix(1.00, 0.00, -0.00, -1.00, 1227.0, 436.0)">@</text><text xml:space="preserve" font-family="Palatino-Roman" font-size="38.0" fill="#3BC1FF" transform="matrix(1.00, 0.00, -0.00, -1.00, 1255.4, 436.0)">u</text><text xml:space="preserve" font-family="Palatino-Roman" font-size="38.0" fill="#3BC1FF" transform="matrix(1.00, 0.00, -0.00, -1.00, 1278.3, 436.0)">s</text><text xml:space="preserve" font-family="Palatino-Roman" font-size="38.0" fill="#3BC1FF" transform="matrix(1.00, 0.00, -0.00, -1.00, 1294.4, 436.0)">h</text><text xml:space="preserve" font-family="Palatino-Roman" font-size="38.0" fill="#3BC1FF" transform="matrix(1.00, 0.00, -0.00, -1.00, 1316.5, 436.0)">e</text><text xml:space="preserve" font-family="Palatino-Roman" font-size="38.0" fill="#3BC1FF" transform="matrix(1.00, 0.00, -0.00, -1.00, 1334.7, 436.0)">r</text><text xml:space="preserve" font-family="Palatino-Roman" font-size="38.0" fill="#3BC1FF" transform="matrix(1.00, 0.00, -0.00, -1.00, 1349.7, 436.0)">b</text><text xml:space="preserve" font-family="Palatino-Roman" font-size="38.0" fill="#3BC1FF" transform="matrix(1.00, 0.00, -0.00, -1.00, 1370.7, 436.0)">r</text><text xml:space="preserve" font-family="Palatino-Roman" font-size="38.0" fill="#3BC1FF" transform="matrix(1.00, 0.00, -0.00, -1.00, 1385.1, 436.0)">o</text><text xml:space="preserve" font-family="Palatino-Roman" font-size="38.0" fill="#3BC1FF" transform="matrix(1.00, 0.00, -0.00, -1.00, 1405.8, 436.0)">o</text><text xml:space="preserve" font-family="Palatino-Roman" font-size="38.0" fill="#3BC1FF" transform="matrix(1.00, 0.00, -0.00, -1.00, 1426.6, 436.0)">k</text><text xml:space="preserve" font-family="Palatino-Roman" font-size="38.0" fill="#3BC1FF" transform="matrix(1.00, 0.00, -0.00, -1.00, 1447.7, 436.0)">e</text><text xml:space="preserve" font-family="Palatino-Roman" font-size="38.0" fill="#3BC1FF" transform="matrix(1.00, 0.00, -0.00, -1.00, 1465.9, 436.0)">.</text><text xml:space="preserve" font-family="Palatino-Roman" font-size="38.0" fill="#3BC1FF" transform="matrix(1.00, 0.00, -0.00, -1.00, 1475.4, 436.0)">c</text><text xml:space="preserve" font-family="Palatino-Roman" font-size="38.0" fill="#3BC1FF" transform="matrix(1.00, 0.00, -0.00, -1.00, 1492.3, 436.0)">a</text><g><clipPath id="clip-656"><path d="M 963.9 429.6 L 1511.2 429.6 L 1511.2 433.8 L 963.9 433.8 Z M 963.9 429.6 "></path></clipPath><g clip-path="url(#clip-656)"><path d="M 91.0 47.3 L 637.3 47.3 " fill="none" stroke="#3BC1FF" stroke-width="2.23" stroke-miterlimit="0.00" transform="matrix(1.00, 0.00, 0.00, -1.00, 873.8, 479.0)"></path></g></g><image xlink:href="../../B1759C12-66D4-4FCF-BFA3-E3B5CB2B8328/assets/EFC240A62132B5C3280AD17AC783EA42.jpeg" width="426.00" height="426.00" transform="matrix(1.00, 0.00, -0.00, -1.00, 1031.0, 949.0)"></image><image xlink:href="../../B1759C12-66D4-4FCF-BFA3-E3B5CB2B8328/assets/AEEB4BBA20551D8526763826C8325B85.png" width="422.00" height="423.00" transform="matrix(1.00, 0.00, -0.00, 1.00, 1034.0, 525.0)"></image><image xlink:href="../../B1759C12-66D4-4FCF-BFA3-E3B5CB2B8328/assets/8694030C17775FCE493023B4F83C8DE3.png" width="936.00" height="609.00" transform="matrix(1.00, 0.00, -0.00, -1.00, 14.0, 614.0)"></image><text xml:space="preserve" font-family="Palatino-Roman" font-size="37.0" fill="#94D9F6" transform="matrix(1.00, 0.00, -0.00, -1.00, 50.0, 932.0)">T</text><text xml:space="preserve" font-family="Palatino-Roman" font-size="37.0" fill="#94D9F6" transform="matrix(1.00, 0.00, -0.00, -1.00, 72.7, 932.0)">h</text><text xml:space="preserve" font-family="Palatino-Roman" font-size="37.0" fill="#94D9F6" transform="matrix(1.00, 0.00, -0.00, -1.00, 94.2, 932.0)">a</text><text xml:space="preserve" font-family="Palatino-Roman" font-size="37.0" fill="#94D9F6" transform="matrix(1.00, 0.00, -0.00, -1.00, 112.7, 932.0)">n</text><text xml:space="preserve" font-family="Palatino-Roman" font-size="37.0" fill="#94D9F6" transform="matrix(1.00, 0.00, -0.00, -1.00, 134.2, 932.0)">k</text><text xml:space="preserve" font-family="Palatino-Roman" font-size="37.0" fill="#94D9F6" transform="matrix(1.00, 0.00, -0.00, -1.00, 154.8, 932.0)">s</text><text xml:space="preserve" font-family="Palatino-Roman" font-size="37.0" fill="#94D9F6" transform="matrix(1.00, 0.00, -0.00, -1.00, 170.5, 932.0)"> </text><text xml:space="preserve" font-family="Palatino-Roman" font-size="37.0" fill="#94D9F6" transform="matrix(1.00, 0.00, -0.00, -1.00, 179.7, 932.0)">t</text><text xml:space="preserve" font-family="Palatino-Roman" font-size="37.0" fill="#94D9F6" transform="matrix(1.00, 0.00, -0.00, -1.00, 191.8, 932.0)">o</text><text xml:space="preserve" font-family="Palatino-Roman" font-size="37.0" fill="#94D9F6" transform="matrix(1.00, 0.00, -0.00, -1.00, 212.0, 932.0)"> </text><text xml:space="preserve" font-family="Palatino-Roman" font-size="37.0" fill="#94D9F6" transform="matrix(1.00, 0.00, -0.00, -1.00, 221.3, 932.0)">m</text><text xml:space="preserve" font-family="Palatino-Roman" font-size="37.0" fill="#94D9F6" transform="matrix(1.00, 0.00, -0.00, -1.00, 253.9, 932.0)">y</text><text xml:space="preserve" font-family="Palatino-Roman" font-size="37.0" fill="#94D9F6" transform="matrix(1.00, 0.00, -0.00, -1.00, 274.5, 932.0)"> </text><text xml:space="preserve" font-family="Palatino-Roman" font-size="37.0" fill="#94D9F6" transform="matrix(1.00, 0.00, -0.00, -1.00, 283.8, 932.0)">s</text><text xml:space="preserve" font-family="Palatino-Roman" font-size="37.0" fill="#94D9F6" transform="matrix(1.00, 0.00, -0.00, -1.00, 299.4, 932.0)">u</text><text xml:space="preserve" font-family="Palatino-Roman" font-size="37.0" fill="#94D9F6" transform="matrix(1.00, 0.00, -0.00, -1.00, 321.7, 932.0)">p</text><text xml:space="preserve" font-family="Palatino-Roman" font-size="37.0" fill="#94D9F6" transform="matrix(1.00, 0.00, -0.00, -1.00, 344.0, 932.0)">e</text><text xml:space="preserve" font-family="Palatino-Roman" font-size="37.0" fill="#94D9F6" transform="matrix(1.00, 0.00, -0.00, -1.00, 361.7, 932.0)">r</text><text xml:space="preserve" font-family="Palatino-Roman" font-size="37.0" fill="#94D9F6" transform="matrix(1.00, 0.00, -0.00, -1.00, 376.3, 932.0)">v</text><text xml:space="preserve" font-family="Palatino-Roman" font-size="37.0" fill="#94D9F6" transform="matrix(1.00, 0.00, -0.00, -1.00, 397.2, 932.0)">i</text><text xml:space="preserve" font-family="Palatino-Roman" font-size="37.0" fill="#94D9F6" transform="matrix(1.00, 0.00, -0.00, -1.00, 408.0, 932.0)">s</text><text xml:space="preserve" font-family="Palatino-Roman" font-size="37.0" fill="#94D9F6" transform="matrix(1.00, 0.00, -0.00, -1.00, 423.7, 932.0)">o</text><text xml:space="preserve" font-family="Palatino-Roman" font-size="37.0" fill="#94D9F6" transform="matrix(1.00, 0.00, -0.00, -1.00, 443.9, 932.0)">r</text><text xml:space="preserve" font-family="Palatino-Roman" font-size="37.0" fill="#94D9F6" transform="matrix(1.00, 0.00, -0.00, -1.00, 458.5, 932.0)">s</text><text xml:space="preserve" font-family="Palatino-Roman" font-size="37.0" fill="#94D9F6" transform="matrix(1.00, 0.00, -0.00, -1.00, 474.2, 932.0)"> </text><text xml:space="preserve" font-family="Palatino-Roman" font-size="37.0" fill="#94D9F6" transform="matrix(1.00, 0.00, -0.00, -1.00, 483.4, 932.0)">&amp;</text><text xml:space="preserve" font-family="Palatino-Roman" font-size="37.0" fill="#94D9F6" transform="matrix(1.00, 0.00, -0.00, -1.00, 512.2, 932.0)"> </text><text xml:space="preserve" font-family="Palatino-Roman" font-size="37.0" fill="#94D9F6" transform="matrix(1.00, 0.00, -0.00, -1.00, 521.4, 932.0)">c</text><text xml:space="preserve" font-family="Palatino-Roman" font-size="37.0" fill="#94D9F6" transform="matrix(1.00, 0.00, -0.00, -1.00, 537.8, 932.0)">o</text><text xml:space="preserve" font-family="Palatino-Roman" font-size="37.0" fill="#94D9F6" transform="matrix(1.00, 0.00, -0.00, -1.00, 558.0, 932.0)">l</text><text xml:space="preserve" font-family="Palatino-Roman" font-size="37.0" fill="#94D9F6" transform="matrix(1.00, 0.00, -0.00, -1.00, 568.8, 932.0)">l</text><text xml:space="preserve" font-family="Palatino-Roman" font-size="37.0" fill="#94D9F6" transform="matrix(1.00, 0.00, -0.00, -1.00, 579.6, 932.0)">e</text><text xml:space="preserve" font-family="Palatino-Roman" font-size="37.0" fill="#94D9F6" transform="matrix(1.00, 0.00, -0.00, -1.00, 597.3, 932.0)">a</text><text xml:space="preserve" font-family="Palatino-Roman" font-size="37.0" fill="#94D9F6" transform="matrix(1.00, 0.00, -0.00, -1.00, 615.8, 932.0)">g</text><text xml:space="preserve" font-family="Palatino-Roman" font-size="37.0" fill="#94D9F6" transform="matrix(1.00, 0.00, -0.00, -1.00, 636.4, 932.0)">u</text><text xml:space="preserve" font-family="Palatino-Roman" font-size="37.0" fill="#94D9F6" transform="matrix(1.00, 0.00, -0.00, -1.00, 658.7, 932.0)">e</text><text xml:space="preserve" font-family="Palatino-Roman" font-size="37.0" fill="#94D9F6" transform="matrix(1.00, 0.00, -0.00, -1.00, 676.4, 932.0)">s</text><text xml:space="preserve" font-family="Palatino-Roman" font-size="37.0" fill="#94D9F6" transform="matrix(1.00, 0.00, -0.00, -1.00, 692.1, 932.0)">:</text><text xml:space="preserve" font-family="LucidaGrande" font-size="37.0" fill="#94D9F6" transform="matrix(1.00, 0.00, -0.00, -1.00, 701.4, 932.0)"> </text><g><clipPath id="clip-657"><path d="M 1541.0 2.9 L 1906.2 2.9 L 1906.2 67.6 L 1541.0 67.6 Z M 1541.0 2.9 "></path></clipPath><g clip-path="url(#clip-657)"><path d="M 1542.0 66.6 L 1905.2 66.6 L 1905.2 3.9 L 1542.0 3.9 Z M 1542.0 66.6 " fill="#FEFFFF" fill-opacity="0.96"></path></g></g><g><clipPath id="clip-658"><path d="M 1542.7 7.2 L 1900.2 7.2 L 1900.2 64.4 L 1542.7 64.4 Z M 1542.7 7.2 "></path></clipPath><g clip-path="url(#clip-658)"><image xlink:href="../../B1759C12-66D4-4FCF-BFA3-E3B5CB2B8328/assets/F7D49FFC04FEC9000D603C8B263D0C90.png" width="358.00" height="57.00" transform="matrix(1.00, 0.00, -0.00, -1.00, 1543.0, 64.0)"></image></g></g><image xlink:href="../../B1759C12-66D4-4FCF-BFA3-E3B5CB2B8328/assets/39CD180E23388E283CDE5194E3CF704A.jpeg" width="333.00" height="333.00" transform="matrix(1.00, 0.00, -0.00, -1.00, 1080.0, 357.0)"></image><text xml:space="preserve" font-family="Palatino-Bold" font-weight="bold" font-size="37.0" fill="#94D9F6" transform="matrix(1.00, 0.00, -0.00, -1.00, 1098.0, 371.0)">C</text><text xml:space="preserve" font-family="Palatino-Bold" font-weight="bold" font-size="37.0" fill="#94D9F6" transform="matrix(1.00, 0.00, -0.00, -1.00, 1124.7, 371.0)">u</text><text xml:space="preserve" font-family="Palatino-Bold" font-weight="bold" font-size="37.0" fill="#94D9F6" transform="matrix(1.00, 0.00, -0.00, -1.00, 1147.3, 371.0)">r</text><text xml:space="preserve" font-family="Palatino-Bold" font-weight="bold" font-size="37.0" fill="#94D9F6" transform="matrix(1.00, 0.00, -0.00, -1.00, 1161.7, 371.0)">r</text><text xml:space="preserve" font-family="Palatino-Bold" font-weight="bold" font-size="37.0" fill="#94D9F6" transform="matrix(1.00, 0.00, -0.00, -1.00, 1176.1, 371.0)">i</text><text xml:space="preserve" font-family="Palatino-Bold" font-weight="bold" font-size="37.0" fill="#94D9F6" transform="matrix(1.00, 0.00, -0.00, -1.00, 1188.5, 371.0)">c</text><text xml:space="preserve" font-family="Palatino-Bold" font-weight="bold" font-size="37.0" fill="#94D9F6" transform="matrix(1.00, 0.00, -0.00, -1.00, 1204.9, 371.0)">u</text><text xml:space="preserve" font-family="Palatino-Bold" font-weight="bold" font-size="37.0" fill="#94D9F6" transform="matrix(1.00, 0.00, -0.00, -1.00, 1227.5, 371.0)">l</text><text xml:space="preserve" font-family="Palatino-Bold" font-weight="bold" font-size="37.0" fill="#94D9F6" transform="matrix(1.00, 0.00, -0.00, -1.00, 1239.8, 371.0)">u</text><text xml:space="preserve" font-family="Palatino-Bold" font-weight="bold" font-size="37.0" fill="#94D9F6" transform="matrix(1.00, 0.00, -0.00, -1.00, 1262.4, 371.0)">m</text><text xml:space="preserve" font-family="Palatino-Bold" font-weight="bold" font-size="37.0" fill="#94D9F6" transform="matrix(1.00, 0.00, -0.00, -1.00, 1295.3, 371.0)"> </text><text xml:space="preserve" font-family="Palatino-Bold" font-weight="bold" font-size="37.0" fill="#94D9F6" transform="matrix(1.00, 0.00, -0.00, -1.00, 1304.5, 371.0)">V</text><text xml:space="preserve" font-family="Palatino-Bold" font-weight="bold" font-size="37.0" fill="#94D9F6" transform="matrix(1.00, 0.00, -0.00, -1.00, 1331.3, 371.0)">i</text><text xml:space="preserve" font-family="Palatino-Bold" font-weight="bold" font-size="37.0" fill="#94D9F6" transform="matrix(1.00, 0.00, -0.00, -1.00, 1343.6, 371.0)">t</text><text xml:space="preserve" font-family="Palatino-Bold" font-weight="bold" font-size="37.0" fill="#94D9F6" transform="matrix(1.00, 0.00, -0.00, -1.00, 1355.9, 371.0)">a</text><text xml:space="preserve" font-family="Palatino-Bold" font-weight="bold" font-size="37.0" fill="#94D9F6" transform="matrix(1.00, 0.00, -0.00, -1.00, 1374.4, 371.0)">e</text><g><clipPath id="clip-659"><path d="M 1097.1 365.1 L 1393.1 365.1 L 1393.1 369.3 L 1097.1 369.3 Z M 1097.1 365.1 "></path></clipPath><g clip-path="url(#clip-659)"><path d="M 137.5 52.6 L 432.4 52.6 " fill="none" stroke="#94D9F6" stroke-width="2.20" stroke-miterlimit="0.00" transform="matrix(1.00, 0.00, 0.00, -1.00, 960.6, 419.7)"></path></g></g></g></svg>