<?xml version="1.0" encoding="UTF-8" standalone="no"?><svg xmlns="http://www.w3.org/2000/svg" xmlns:xlink="http://www.w3.org/1999/xlink" clip-rule="evenodd" stroke-miterlimit="4.00" viewBox="0 0 317 63"><desc>SVG generated by Keynote</desc><defs></defs><g transform="matrix(1.00, 0.00, -0.00, -1.00, 0.0, 63.0)"><text xml:space="preserve" font-family="AvenirNext-DemiBold" font-weight="bold" font-size="23.0" fill="#FEFFFE" transform="matrix(1.00, 0.00, -0.00, -1.00, 3.0, 40.0)">T</text><text xml:space="preserve" font-family="AvenirNext-DemiBold" font-weight="bold" font-size="23.0" fill="#FEFFFE" transform="matrix(1.00, 0.00, -0.00, -1.00, 16.1, 40.0)">R</text><text xml:space="preserve" font-family="AvenirNext-DemiBold" font-weight="bold" font-size="23.0" fill="#FEFFFE" transform="matrix(1.00, 0.00, -0.00, -1.00, 30.5, 40.0)">/</text><text xml:space="preserve" font-family="AvenirNext-DemiBold" font-weight="bold" font-size="23.0" fill="#FEFFFE" transform="matrix(1.00, 0.00, -0.00, -1.00, 39.5, 40.0)">T</text><text xml:space="preserve" font-family="AvenirNext-DemiBold" font-weight="bold" font-size="23.0" fill="#FEFFFE" transform="matrix(1.00, 0.00, -0.00, -1.00, 52.5, 40.0)">E</text><text xml:space="preserve" font-family="AvenirNext-Medium" font-size="23.0" fill="#FEFFFE" transform="matrix(1.00, 0.00, -0.00, -1.00, 66.6, 40.0)">:</text><text xml:space="preserve" font-family="AvenirNext-Medium" font-size="23.0" fill="#FEFFFE" transform="matrix(1.00, 0.00, -0.00, -1.00, 73.5, 40.0)"> </text><text xml:space="preserve" font-family="AvenirNext-Medium" font-size="23.0" fill="#FEFFFE" transform="matrix(1.00, 0.00, -0.00, -1.00, 79.2, 40.0)"> </text><text xml:space="preserve" font-family="AvenirNext-Medium" font-size="23.0" fill="#FEFFFE" transform="matrix(1.00, 0.00, -0.00, -1.00, 85.0, 40.0)"> </text><text xml:space="preserve" font-family="AvenirNext-Medium" font-size="23.0" fill="#FEFFFE" transform="matrix(1.00, 0.00, -0.00, -1.00, 90.7, 40.0)">2</text><text xml:space="preserve" font-family="AvenirNext-Medium" font-size="23.0" fill="#FEFFFE" transform="matrix(1.00, 0.00, -0.00, -1.00, 104.4, 40.0)">3</text><text xml:space="preserve" font-family="AvenirNext-Medium" font-size="23.0" fill="#FEFFFE" transform="matrix(1.00, 0.00, -0.00, -1.00, 118.1, 40.0)">/</text><text xml:space="preserve" font-family="AvenirNext-Medium" font-size="23.0" fill="#FEFFFE" transform="matrix(1.00, 0.00, -0.00, -1.00, 126.8, 40.0)">3</text><text xml:space="preserve" font-family="AvenirNext-Medium" font-size="23.0" fill="#FEFFFE" transform="matrix(1.00, 0.00, -0.00, -1.00, 140.5, 40.0)">.</text><text xml:space="preserve" font-family="AvenirNext-Medium" font-size="23.0" fill="#FEFFFE" transform="matrix(1.00, 0.00, -0.00, -1.00, 146.5, 40.0)">6</text><text xml:space="preserve" font-family="AvenirNext-Medium" font-size="23.0" fill="#FEFFFE" transform="matrix(1.00, 0.00, -0.00, -1.00, 160.2, 40.0)"> </text><text xml:space="preserve" font-family="AvenirNext-Medium" font-size="23.0" fill="#FEFFFE" transform="matrix(1.00, 0.00, -0.00, -1.00, 165.9, 40.0)">m</text><text xml:space="preserve" font-family="AvenirNext-Medium" font-size="23.0" fill="#FEFFFE" transform="matrix(1.00, 0.00, -0.00, -1.00, 186.3, 40.0)">s</text><text xml:space="preserve" font-family="LucidaGrande-Bold" font-weight="bold" font-size="23.0" fill="#FEFFFE" transform="matrix(1.00, 0.00, -0.00, -1.00, 196.5, 40.0)"> </text><g><clipPath id="clip-60"><path d="M 1.7 36.2 L 66.3 36.2 L 66.3 39.4 L 1.7 39.4 Z M 1.7 36.2 "></path></clipPath><g clip-path="url(#clip-60)"><path d="M 4.0 28.3 L 67.6 28.3 " fill="none" stroke="#FEFFFE" stroke-width="1.15" stroke-miterlimit="0.00" transform="matrix(1.00, 0.00, 0.00, -1.00, -1.3, 66.1)"></path></g></g><text xml:space="preserve" font-family="AvenirNext-DemiBold" font-weight="bold" font-size="23.0" fill="#FEFFFE" transform="matrix(1.00, 0.00, -0.00, -1.00, 3.0, 9.0)">V</text><text xml:space="preserve" font-family="AvenirNext-DemiBold" font-weight="bold" font-size="23.0" fill="#FEFFFE" transform="matrix(1.00, 0.00, -0.00, -1.00, 17.1, 9.0)">o</text><text xml:space="preserve" font-family="AvenirNext-DemiBold" font-weight="bold" font-size="23.0" fill="#FEFFFE" transform="matrix(1.00, 0.00, -0.00, -1.00, 30.9, 9.0)">x</text><text xml:space="preserve" font-family="AvenirNext-DemiBold" font-weight="bold" font-size="23.0" fill="#FEFFFE" transform="matrix(1.00, 0.00, -0.00, -1.00, 43.0, 9.0)">e</text><text xml:space="preserve" font-family="AvenirNext-DemiBold" font-weight="bold" font-size="23.0" fill="#FEFFFE" transform="matrix(1.00, 0.00, -0.00, -1.00, 56.2, 9.0)">l</text><text xml:space="preserve" font-family="AvenirNext-Medium" font-size="23.0" fill="#FEFFFE" transform="matrix(1.00, 0.00, -0.00, -1.00, 62.3, 9.0)">:</text><text xml:space="preserve" font-family="AvenirNext-Medium" font-size="23.0" fill="#FEFFFE" transform="matrix(1.00, 0.00, -0.00, -1.00, 69.2, 9.0)"> </text><text xml:space="preserve" font-family="AvenirNext-Medium" font-size="23.0" fill="#FEFFFE" transform="matrix(1.00, 0.00, -0.00, -1.00, 75.0, 9.0)"> </text><text xml:space="preserve" font-family="AvenirNext-Medium" font-size="23.0" fill="#FEFFFE" transform="matrix(1.00, 0.00, -0.00, -1.00, 80.7, 9.0)"> </text><text xml:space="preserve" font-family="AvenirNext-Medium" font-size="23.0" fill="#FEFFFE" transform="matrix(1.00, 0.00, -0.00, -1.00, 86.5, 9.0)"> </text><text xml:space="preserve" font-family="AvenirNext-Medium" font-size="23.0" fill="#FEFFFE" transform="matrix(1.00, 0.00, -0.00, -1.00, 92.2, 9.0)">0</text><text xml:space="preserve" font-family="AvenirNext-Medium" font-size="23.0" fill="#FEFFFE" transform="matrix(1.00, 0.00, -0.00, -1.00, 105.9, 9.0)">.</text><text xml:space="preserve" font-family="AvenirNext-Medium" font-size="23.0" fill="#FEFFFE" transform="matrix(1.00, 0.00, -0.00, -1.00, 111.9, 9.0)">6</text><text xml:space="preserve" font-family="AvenirNext-Medium" font-size="23.0" fill="#FEFFFE" transform="matrix(1.00, 0.00, -0.00, -1.00, 125.6, 9.0)">2</text><text xml:space="preserve" font-family="AvenirNext-Medium" font-size="23.0" fill="#FEFFFE" transform="matrix(1.00, 0.00, -0.00, -1.00, 139.3, 9.0)">5</text><text xml:space="preserve" font-family="AvenirNext-Medium" font-size="23.0" fill="#FEFFFE" transform="matrix(1.00, 0.00, -0.00, -1.00, 153.0, 9.0)">x</text><text xml:space="preserve" font-family="AvenirNext-Medium" font-size="23.0" fill="#FEFFFE" transform="matrix(1.00, 0.00, -0.00, -1.00, 164.7, 9.0)">0</text><text xml:space="preserve" font-family="AvenirNext-Medium" font-size="23.0" fill="#FEFFFE" transform="matrix(1.00, 0.00, -0.00, -1.00, 178.4, 9.0)">.</text><text xml:space="preserve" font-family="AvenirNext-Medium" font-size="23.0" fill="#FEFFFE" transform="matrix(1.00, 0.00, -0.00, -1.00, 184.4, 9.0)">6</text><text xml:space="preserve" font-family="AvenirNext-Medium" font-size="23.0" fill="#FEFFFE" transform="matrix(1.00, 0.00, -0.00, -1.00, 198.1, 9.0)">2</text><text xml:space="preserve" font-family="AvenirNext-Medium" font-size="23.0" fill="#FEFFFE" transform="matrix(1.00, 0.00, -0.00, -1.00, 211.7, 9.0)">5</text><text xml:space="preserve" font-family="AvenirNext-Medium" font-size="23.0" fill="#FEFFFE" transform="matrix(1.00, 0.00, -0.00, -1.00, 225.4, 9.0)">x</text><text xml:space="preserve" font-family="AvenirNext-Medium" font-size="23.0" fill="#FEFFFE" transform="matrix(1.00, 0.00, -0.00, -1.00, 237.2, 9.0)">1</text><text xml:space="preserve" font-family="AvenirNext-Medium" font-size="23.0" fill="#FEFFFE" transform="matrix(1.00, 0.00, -0.00, -1.00, 250.9, 9.0)">.</text><text xml:space="preserve" font-family="AvenirNext-Medium" font-size="23.0" fill="#FEFFFE" transform="matrix(1.00, 0.00, -0.00, -1.00, 256.9, 9.0)">3</text><text xml:space="preserve" font-family="AvenirNext-Medium" font-size="23.0" fill="#FEFFFE" transform="matrix(1.00, 0.00, -0.00, -1.00, 270.5, 9.0)"> </text><text xml:space="preserve" font-family="AvenirNext-Medium" font-size="23.0" fill="#FEFFFE" transform="matrix(1.00, 0.00, -0.00, -1.00, 276.3, 9.0)">m</text><text xml:space="preserve" font-family="AvenirNext-Medium" font-size="23.0" fill="#FEFFFE" transform="matrix(1.00, 0.00, -0.00, -1.00, 296.7, 9.0)">m</text><g><clipPath id="clip-61"><path d="M 1.7 5.2 L 62.1 5.2 L 62.1 8.4 L 1.7 8.4 Z M 1.7 5.2 "></path></clipPath><g clip-path="url(#clip-61)"><path d="M 4.0 59.3 L 63.3 59.3 " fill="none" stroke="#FEFFFE" stroke-width="1.15" stroke-miterlimit="0.00" transform="matrix(1.00, 0.00, 0.00, -1.00, -1.3, 66.1)"></path></g></g></g></svg>