<?xml version="1.0" encoding="UTF-8" standalone="no"?><svg xmlns="http://www.w3.org/2000/svg" xmlns:xlink="http://www.w3.org/1999/xlink" clip-rule="evenodd" stroke-miterlimit="4.00" viewBox="0 0 317 63"><desc>SVG generated by Keynote</desc><defs></defs><g transform="matrix(1.00, 0.00, -0.00, -1.00, 0.0, 63.0)"><text xml:space="preserve" font-family="AvenirNext-DemiBold" font-weight="bold" font-size="23.0" fill="#FEFFFE" transform="matrix(1.00, 0.00, -0.00, -1.00, 2.0, 40.0)">T</text><text xml:space="preserve" font-family="AvenirNext-DemiBold" font-weight="bold" font-size="23.0" fill="#FEFFFE" transform="matrix(1.00, 0.00, -0.00, -1.00, 15.1, 40.0)">R</text><text xml:space="preserve" font-family="AvenirNext-DemiBold" font-weight="bold" font-size="23.0" fill="#FEFFFE" transform="matrix(1.00, 0.00, -0.00, -1.00, 29.5, 40.0)">/</text><text xml:space="preserve" font-family="AvenirNext-DemiBold" font-weight="bold" font-size="23.0" fill="#FEFFFE" transform="matrix(1.00, 0.00, -0.00, -1.00, 38.5, 40.0)">T</text><text xml:space="preserve" font-family="AvenirNext-DemiBold" font-weight="bold" font-size="23.0" fill="#FEFFFE" transform="matrix(1.00, 0.00, -0.00, -1.00, 51.5, 40.0)">E</text><text xml:space="preserve" font-family="AvenirNext-Medium" font-size="23.0" fill="#FEFFFE" transform="matrix(1.00, 0.00, -0.00, -1.00, 65.6, 40.0)">:</text><text xml:space="preserve" font-family="AvenirNext-Medium" font-size="23.0" fill="#FEFFFE" transform="matrix(1.00, 0.00, -0.00, -1.00, 72.5, 40.0)"> </text><text xml:space="preserve" font-family="AvenirNext-Medium" font-size="23.0" fill="#FEFFFE" transform="matrix(1.00, 0.00, -0.00, -1.00, 78.2, 40.0)"> </text><text xml:space="preserve" font-family="AvenirNext-Medium" font-size="23.0" fill="#FEFFFE" transform="matrix(1.00, 0.00, -0.00, -1.00, 84.0, 40.0)"> </text><text xml:space="preserve" font-family="AvenirNext-Medium" font-size="23.0" fill="#FEFFFE" transform="matrix(1.00, 0.00, -0.00, -1.00, 89.7, 40.0)">2</text><text xml:space="preserve" font-family="AvenirNext-Medium" font-size="23.0" fill="#FEFFFE" transform="matrix(1.00, 0.00, -0.00, -1.00, 103.4, 40.0)">3</text><text xml:space="preserve" font-family="AvenirNext-Medium" font-size="23.0" fill="#FEFFFE" transform="matrix(1.00, 0.00, -0.00, -1.00, 117.1, 40.0)">/</text><text xml:space="preserve" font-family="AvenirNext-Medium" font-size="23.0" fill="#FEFFFE" transform="matrix(1.00, 0.00, -0.00, -1.00, 125.8, 40.0)">3</text><text xml:space="preserve" font-family="AvenirNext-Medium" font-size="23.0" fill="#FEFFFE" transform="matrix(1.00, 0.00, -0.00, -1.00, 139.5, 40.0)">.</text><text xml:space="preserve" font-family="AvenirNext-Medium" font-size="23.0" fill="#FEFFFE" transform="matrix(1.00, 0.00, -0.00, -1.00, 145.5, 40.0)">6</text><text xml:space="preserve" font-family="AvenirNext-Medium" font-size="23.0" fill="#FEFFFE" transform="matrix(1.00, 0.00, -0.00, -1.00, 159.2, 40.0)"> </text><text xml:space="preserve" font-family="AvenirNext-Medium" font-size="23.0" fill="#FEFFFE" transform="matrix(1.00, 0.00, -0.00, -1.00, 164.9, 40.0)">m</text><text xml:space="preserve" font-family="AvenirNext-Medium" font-size="23.0" fill="#FEFFFE" transform="matrix(1.00, 0.00, -0.00, -1.00, 185.3, 40.0)">s</text><text xml:space="preserve" font-family="LucidaGrande-Bold" font-weight="bold" font-size="23.0" fill="#FEFFFE" transform="matrix(1.00, 0.00, -0.00, -1.00, 195.5, 40.0)"> </text><g><clipPath id="clip-62"><path d="M 1.2 36.2 L 65.8 36.2 L 65.8 39.4 L 1.2 39.4 Z M 1.2 36.2 "></path></clipPath><g clip-path="url(#clip-62)"><path d="M 4.0 28.3 L 67.6 28.3 " fill="none" stroke="#FEFFFE" stroke-width="1.15" stroke-miterlimit="0.00" transform="matrix(1.00, 0.00, 0.00, -1.00, -1.8, 66.1)"></path></g></g><text xml:space="preserve" font-family="AvenirNext-DemiBold" font-weight="bold" font-size="23.0" fill="#FEFFFE" transform="matrix(1.00, 0.00, -0.00, -1.00, 2.0, 9.0)">V</text><text xml:space="preserve" font-family="AvenirNext-DemiBold" font-weight="bold" font-size="23.0" fill="#FEFFFE" transform="matrix(1.00, 0.00, -0.00, -1.00, 16.1, 9.0)">o</text><text xml:space="preserve" font-family="AvenirNext-DemiBold" font-weight="bold" font-size="23.0" fill="#FEFFFE" transform="matrix(1.00, 0.00, -0.00, -1.00, 29.9, 9.0)">x</text><text xml:space="preserve" font-family="AvenirNext-DemiBold" font-weight="bold" font-size="23.0" fill="#FEFFFE" transform="matrix(1.00, 0.00, -0.00, -1.00, 42.0, 9.0)">e</text><text xml:space="preserve" font-family="AvenirNext-DemiBold" font-weight="bold" font-size="23.0" fill="#FEFFFE" transform="matrix(1.00, 0.00, -0.00, -1.00, 55.2, 9.0)">l</text><text xml:space="preserve" font-family="AvenirNext-Medium" font-size="23.0" fill="#FEFFFE" transform="matrix(1.00, 0.00, -0.00, -1.00, 61.3, 9.0)">:</text><text xml:space="preserve" font-family="AvenirNext-Medium" font-size="23.0" fill="#FEFFFE" transform="matrix(1.00, 0.00, -0.00, -1.00, 68.2, 9.0)"> </text><text xml:space="preserve" font-family="AvenirNext-Medium" font-size="23.0" fill="#FEFFFE" transform="matrix(1.00, 0.00, -0.00, -1.00, 74.0, 9.0)"> </text><text xml:space="preserve" font-family="AvenirNext-Medium" font-size="23.0" fill="#FEFFFE" transform="matrix(1.00, 0.00, -0.00, -1.00, 79.7, 9.0)"> </text><text xml:space="preserve" font-family="AvenirNext-Medium" font-size="23.0" fill="#FEFFFE" transform="matrix(1.00, 0.00, -0.00, -1.00, 85.5, 9.0)"> </text><text xml:space="preserve" font-family="AvenirNext-Medium" font-size="23.0" fill="#FEFFFE" transform="matrix(1.00, 0.00, -0.00, -1.00, 91.2, 9.0)">0</text><text xml:space="preserve" font-family="AvenirNext-Medium" font-size="23.0" fill="#FEFFFE" transform="matrix(1.00, 0.00, -0.00, -1.00, 104.9, 9.0)">.</text><text xml:space="preserve" font-family="AvenirNext-Medium" font-size="23.0" fill="#FEFFFE" transform="matrix(1.00, 0.00, -0.00, -1.00, 110.9, 9.0)">6</text><text xml:space="preserve" font-family="AvenirNext-Medium" font-size="23.0" fill="#FEFFFE" transform="matrix(1.00, 0.00, -0.00, -1.00, 124.6, 9.0)">2</text><text xml:space="preserve" font-family="AvenirNext-Medium" font-size="23.0" fill="#FEFFFE" transform="matrix(1.00, 0.00, -0.00, -1.00, 138.3, 9.0)">5</text><text xml:space="preserve" font-family="AvenirNext-Medium" font-size="23.0" fill="#FEFFFE" transform="matrix(1.00, 0.00, -0.00, -1.00, 152.0, 9.0)">x</text><text xml:space="preserve" font-family="AvenirNext-Medium" font-size="23.0" fill="#FEFFFE" transform="matrix(1.00, 0.00, -0.00, -1.00, 163.7, 9.0)">0</text><text xml:space="preserve" font-family="AvenirNext-Medium" font-size="23.0" fill="#FEFFFE" transform="matrix(1.00, 0.00, -0.00, -1.00, 177.4, 9.0)">.</text><text xml:space="preserve" font-family="AvenirNext-Medium" font-size="23.0" fill="#FEFFFE" transform="matrix(1.00, 0.00, -0.00, -1.00, 183.4, 9.0)">6</text><text xml:space="preserve" font-family="AvenirNext-Medium" font-size="23.0" fill="#FEFFFE" transform="matrix(1.00, 0.00, -0.00, -1.00, 197.1, 9.0)">2</text><text xml:space="preserve" font-family="AvenirNext-Medium" font-size="23.0" fill="#FEFFFE" transform="matrix(1.00, 0.00, -0.00, -1.00, 210.7, 9.0)">5</text><text xml:space="preserve" font-family="AvenirNext-Medium" font-size="23.0" fill="#FEFFFE" transform="matrix(1.00, 0.00, -0.00, -1.00, 224.4, 9.0)">x</text><text xml:space="preserve" font-family="AvenirNext-Medium" font-size="23.0" fill="#FEFFFE" transform="matrix(1.00, 0.00, -0.00, -1.00, 236.2, 9.0)">1</text><text xml:space="preserve" font-family="AvenirNext-Medium" font-size="23.0" fill="#FEFFFE" transform="matrix(1.00, 0.00, -0.00, -1.00, 249.9, 9.0)">.</text><text xml:space="preserve" font-family="AvenirNext-Medium" font-size="23.0" fill="#FEFFFE" transform="matrix(1.00, 0.00, -0.00, -1.00, 255.9, 9.0)">3</text><text xml:space="preserve" font-family="AvenirNext-Medium" font-size="23.0" fill="#FEFFFE" transform="matrix(1.00, 0.00, -0.00, -1.00, 269.5, 9.0)"> </text><text xml:space="preserve" font-family="AvenirNext-Medium" font-size="23.0" fill="#FEFFFE" transform="matrix(1.00, 0.00, -0.00, -1.00, 275.3, 9.0)">m</text><text xml:space="preserve" font-family="AvenirNext-Medium" font-size="23.0" fill="#FEFFFE" transform="matrix(1.00, 0.00, -0.00, -1.00, 295.7, 9.0)">m</text><g><clipPath id="clip-63"><path d="M 1.2 5.2 L 61.5 5.2 L 61.5 8.4 L 1.2 8.4 Z M 1.2 5.2 "></path></clipPath><g clip-path="url(#clip-63)"><path d="M 4.0 59.3 L 63.3 59.3 " fill="none" stroke="#FEFFFE" stroke-width="1.15" stroke-miterlimit="0.00" transform="matrix(1.00, 0.00, 0.00, -1.00, -1.8, 66.1)"></path></g></g></g></svg>