<?xml version="1.0" encoding="UTF-8" standalone="no"?><svg xmlns="http://www.w3.org/2000/svg" xmlns:xlink="http://www.w3.org/1999/xlink" clip-rule="evenodd" stroke-miterlimit="4.00" viewBox="0 0 1920 1080"><desc>SVG generated by Keynote</desc><defs></defs><g transform="matrix(1.00, 0.00, -0.00, -1.00, 0.0, 1080.0)"><path d="M 0.0 1080.0 L 1920.0 1080.0 L 1920.0 0.0 L 0.0 0.0 Z M 0.0 1080.0 " fill="#FFFFFF"></path><text xml:space="preserve" font-family="ArialMT" font-size="50.0" fill="#19305B" transform="matrix(1.00, 0.00, -0.00, -1.00, 80.0, 437.0)">S</text><text xml:space="preserve" font-family="ArialMT" font-size="50.0" fill="#19305B" transform="matrix(1.00, 0.00, -0.00, -1.00, 113.3, 437.0)">p</text><text xml:space="preserve" font-family="ArialMT" font-size="50.0" fill="#19305B" transform="matrix(1.00, 0.00, -0.00, -1.00, 141.2, 437.0)">e</text><text xml:space="preserve" font-family="ArialMT" font-size="50.0" fill="#19305B" transform="matrix(1.00, 0.00, -0.00, -1.00, 169.0, 437.0)">a</text><text xml:space="preserve" font-family="ArialMT" font-size="50.0" fill="#19305B" transform="matrix(1.00, 0.00, -0.00, -1.00, 196.8, 437.0)">k</text><text xml:space="preserve" font-family="ArialMT" font-size="50.0" fill="#19305B" transform="matrix(1.00, 0.00, -0.00, -1.00, 221.8, 437.0)">e</text><text xml:space="preserve" font-family="ArialMT" font-size="50.0" fill="#19305B" transform="matrix(1.00, 0.00, -0.00, -1.00, 249.6, 437.0)">r</text><text xml:space="preserve" font-family="ArialMT" font-size="50.0" fill="#19305B" transform="matrix(1.00, 0.00, -0.00, -1.00, 266.3, 437.0)"> </text><text xml:space="preserve" font-family="ArialMT" font-size="50.0" fill="#19305B" transform="matrix(1.00, 0.00, -0.00, -1.00, 280.2, 437.0)">N</text><text xml:space="preserve" font-family="ArialMT" font-size="50.0" fill="#19305B" transform="matrix(1.00, 0.00, -0.00, -1.00, 316.3, 437.0)">a</text><text xml:space="preserve" font-family="ArialMT" font-size="50.0" fill="#19305B" transform="matrix(1.00, 0.00, -0.00, -1.00, 344.1, 437.0)">m</text><text xml:space="preserve" font-family="ArialMT" font-size="50.0" fill="#19305B" transform="matrix(1.00, 0.00, -0.00, -1.00, 385.7, 437.0)">e</text><text xml:space="preserve" font-family="ArialMT" font-size="50.0" fill="#19305B" transform="matrix(1.00, 0.00, -0.00, -1.00, 413.6, 437.0)">:</text><text xml:space="preserve" font-family="ArialMT" font-size="50.0" fill="#19305B" transform="matrix(1.00, 0.00, -0.00, -1.00, 427.4, 437.0)"> </text><text xml:space="preserve" font-family="ArialMT" font-size="50.0" fill="#19305B" transform="matrix(1.00, 0.00, -0.00, -1.00, 441.3, 437.0)">M</text><text xml:space="preserve" font-family="ArialMT" font-size="50.0" fill="#19305B" transform="matrix(1.00, 0.00, -0.00, -1.00, 483.0, 437.0)">i</text><text xml:space="preserve" font-family="ArialMT" font-size="50.0" fill="#19305B" transform="matrix(1.00, 0.00, -0.00, -1.00, 494.1, 437.0)">c</text><text xml:space="preserve" font-family="ArialMT" font-size="50.0" fill="#19305B" transform="matrix(1.00, 0.00, -0.00, -1.00, 519.1, 437.0)">h</text><text xml:space="preserve" font-family="ArialMT" font-size="50.0" fill="#19305B" transform="matrix(1.00, 0.00, -0.00, -1.00, 546.9, 437.0)">a</text><text xml:space="preserve" font-family="ArialMT" font-size="50.0" fill="#19305B" transform="matrix(1.00, 0.00, -0.00, -1.00, 574.7, 437.0)">ë</text><text xml:space="preserve" font-family="ArialMT" font-size="50.0" fill="#19305B" transform="matrix(1.00, 0.00, -0.00, -1.00, 602.5, 437.0)">l</text><text xml:space="preserve" font-family="ArialMT" font-size="50.0" fill="#19305B" transform="matrix(1.00, 0.00, -0.00, -1.00, 613.7, 437.0)"> </text><text xml:space="preserve" font-family="ArialMT" font-size="50.0" fill="#19305B" transform="matrix(1.00, 0.00, -0.00, -1.00, 627.5, 437.0)">B</text><text xml:space="preserve" font-family="ArialMT" font-size="50.0" fill="#19305B" transform="matrix(1.00, 0.00, -0.00, -1.00, 660.9, 437.0)">e</text><text xml:space="preserve" font-family="ArialMT" font-size="50.0" fill="#19305B" transform="matrix(1.00, 0.00, -0.00, -1.00, 688.7, 437.0)">r</text><text xml:space="preserve" font-family="ArialMT" font-size="50.0" fill="#19305B" transform="matrix(1.00, 0.00, -0.00, -1.00, 705.4, 437.0)">n</text><text xml:space="preserve" font-family="ArialMT" font-size="50.0" fill="#19305B" transform="matrix(1.00, 0.00, -0.00, -1.00, 733.2, 437.0)">i</text><text xml:space="preserve" font-family="ArialMT" font-size="50.0" fill="#19305B" transform="matrix(1.00, 0.00, -0.00, -1.00, 744.3, 437.0)">e</text><text xml:space="preserve" font-family="ArialMT" font-size="50.0" fill="#19305B" transform="matrix(1.00, 0.00, -0.00, -1.00, 772.1, 437.0)">r</text><text xml:space="preserve" font-family="ArialMT" font-size="50.0" fill="#19305B" transform="matrix(1.00, 0.00, -0.00, -1.00, 788.6, 437.0)"> </text><text xml:space="preserve" font-family="ArialMT" font-size="50.0" fill="#19305B" transform="matrix(1.00, 0.00, -0.00, -1.00, 80.0, 288.0)">I</text><text xml:space="preserve" font-family="ArialMT" font-size="50.0" fill="#19305B" transform="matrix(1.00, 0.00, -0.00, -1.00, 93.9, 288.0)"> </text><text xml:space="preserve" font-family="ArialMT" font-size="50.0" fill="#19305B" transform="matrix(1.00, 0.00, -0.00, -1.00, 107.8, 288.0)">h</text><text xml:space="preserve" font-family="ArialMT" font-size="50.0" fill="#19305B" transform="matrix(1.00, 0.00, -0.00, -1.00, 135.6, 288.0)">a</text><text xml:space="preserve" font-family="ArialMT" font-size="50.0" fill="#19305B" transform="matrix(1.00, 0.00, -0.00, -1.00, 163.4, 288.0)">v</text><text xml:space="preserve" font-family="ArialMT" font-size="50.0" fill="#19305B" transform="matrix(1.00, 0.00, -0.00, -1.00, 188.4, 288.0)">e</text><text xml:space="preserve" font-family="ArialMT" font-size="50.0" fill="#19305B" transform="matrix(1.00, 0.00, -0.00, -1.00, 216.2, 288.0)"> </text><text xml:space="preserve" font-family="ArialMT" font-size="50.0" fill="#19305B" transform="matrix(1.00, 0.00, -0.00, -1.00, 230.1, 288.0)">n</text><text xml:space="preserve" font-family="ArialMT" font-size="50.0" fill="#19305B" transform="matrix(1.00, 0.00, -0.00, -1.00, 257.9, 288.0)">o</text><text xml:space="preserve" font-family="ArialMT" font-size="50.0" fill="#19305B" transform="matrix(1.00, 0.00, -0.00, -1.00, 285.7, 288.0)"> </text><text xml:space="preserve" font-family="ArialMT" font-size="50.0" fill="#19305B" transform="matrix(1.00, 0.00, -0.00, -1.00, 299.6, 288.0)">f</text><text xml:space="preserve" font-family="ArialMT" font-size="50.0" fill="#19305B" transform="matrix(1.00, 0.00, -0.00, -1.00, 313.5, 288.0)">i</text><text xml:space="preserve" font-family="ArialMT" font-size="50.0" fill="#19305B" transform="matrix(1.00, 0.00, -0.00, -1.00, 324.6, 288.0)">n</text><text xml:space="preserve" font-family="ArialMT" font-size="50.0" fill="#19305B" transform="matrix(1.00, 0.00, -0.00, -1.00, 352.4, 288.0)">a</text><text xml:space="preserve" font-family="ArialMT" font-size="50.0" fill="#19305B" transform="matrix(1.00, 0.00, -0.00, -1.00, 380.2, 288.0)">n</text><text xml:space="preserve" font-family="ArialMT" font-size="50.0" fill="#19305B" transform="matrix(1.00, 0.00, -0.00, -1.00, 408.1, 288.0)">c</text><text xml:space="preserve" font-family="ArialMT" font-size="50.0" fill="#19305B" transform="matrix(1.00, 0.00, -0.00, -1.00, 433.1, 288.0)">i</text><text xml:space="preserve" font-family="ArialMT" font-size="50.0" fill="#19305B" transform="matrix(1.00, 0.00, -0.00, -1.00, 444.2, 288.0)">a</text><text xml:space="preserve" font-family="ArialMT" font-size="50.0" fill="#19305B" transform="matrix(1.00, 0.00, -0.00, -1.00, 472.0, 288.0)">l</text><text xml:space="preserve" font-family="ArialMT" font-size="50.0" fill="#19305B" transform="matrix(1.00, 0.00, -0.00, -1.00, 483.1, 288.0)"> </text><text xml:space="preserve" font-family="ArialMT" font-size="50.0" fill="#19305B" transform="matrix(1.00, 0.00, -0.00, -1.00, 497.0, 288.0)">i</text><text xml:space="preserve" font-family="ArialMT" font-size="50.0" fill="#19305B" transform="matrix(1.00, 0.00, -0.00, -1.00, 508.1, 288.0)">n</text><text xml:space="preserve" font-family="ArialMT" font-size="50.0" fill="#19305B" transform="matrix(1.00, 0.00, -0.00, -1.00, 535.9, 288.0)">t</text><text xml:space="preserve" font-family="ArialMT" font-size="50.0" fill="#19305B" transform="matrix(1.00, 0.00, -0.00, -1.00, 549.8, 288.0)">e</text><text xml:space="preserve" font-family="ArialMT" font-size="50.0" fill="#19305B" transform="matrix(1.00, 0.00, -0.00, -1.00, 577.6, 288.0)">r</text><text xml:space="preserve" font-family="ArialMT" font-size="50.0" fill="#19305B" transform="matrix(1.00, 0.00, -0.00, -1.00, 594.3, 288.0)">e</text><text xml:space="preserve" font-family="ArialMT" font-size="50.0" fill="#19305B" transform="matrix(1.00, 0.00, -0.00, -1.00, 622.1, 288.0)">s</text><text xml:space="preserve" font-family="ArialMT" font-size="50.0" fill="#19305B" transform="matrix(1.00, 0.00, -0.00, -1.00, 647.1, 288.0)">t</text><text xml:space="preserve" font-family="ArialMT" font-size="50.0" fill="#19305B" transform="matrix(1.00, 0.00, -0.00, -1.00, 661.0, 288.0)">s</text><text xml:space="preserve" font-family="ArialMT" font-size="50.0" fill="#19305B" transform="matrix(1.00, 0.00, -0.00, -1.00, 686.0, 288.0)"> </text><text xml:space="preserve" font-family="ArialMT" font-size="50.0" fill="#19305B" transform="matrix(1.00, 0.00, -0.00, -1.00, 699.9, 288.0)">o</text><text xml:space="preserve" font-family="ArialMT" font-size="50.0" fill="#19305B" transform="matrix(1.00, 0.00, -0.00, -1.00, 727.7, 288.0)">r</text><text xml:space="preserve" font-family="ArialMT" font-size="50.0" fill="#19305B" transform="matrix(1.00, 0.00, -0.00, -1.00, 744.3, 288.0)"> </text><text xml:space="preserve" font-family="ArialMT" font-size="50.0" fill="#19305B" transform="matrix(1.00, 0.00, -0.00, -1.00, 758.2, 288.0)">r</text><text xml:space="preserve" font-family="ArialMT" font-size="50.0" fill="#19305B" transform="matrix(1.00, 0.00, -0.00, -1.00, 774.9, 288.0)">e</text><text xml:space="preserve" font-family="ArialMT" font-size="50.0" fill="#19305B" transform="matrix(1.00, 0.00, -0.00, -1.00, 802.7, 288.0)">l</text><text xml:space="preserve" font-family="ArialMT" font-size="50.0" fill="#19305B" transform="matrix(1.00, 0.00, -0.00, -1.00, 813.8, 288.0)">a</text><text xml:space="preserve" font-family="ArialMT" font-size="50.0" fill="#19305B" transform="matrix(1.00, 0.00, -0.00, -1.00, 841.6, 288.0)">t</text><text xml:space="preserve" font-family="ArialMT" font-size="50.0" fill="#19305B" transform="matrix(1.00, 0.00, -0.00, -1.00, 855.5, 288.0)">i</text><text xml:space="preserve" font-family="ArialMT" font-size="50.0" fill="#19305B" transform="matrix(1.00, 0.00, -0.00, -1.00, 866.6, 288.0)">o</text><text xml:space="preserve" font-family="ArialMT" font-size="50.0" fill="#19305B" transform="matrix(1.00, 0.00, -0.00, -1.00, 894.4, 288.0)">n</text><text xml:space="preserve" font-family="ArialMT" font-size="50.0" fill="#19305B" transform="matrix(1.00, 0.00, -0.00, -1.00, 922.3, 288.0)">s</text><text xml:space="preserve" font-family="ArialMT" font-size="50.0" fill="#19305B" transform="matrix(1.00, 0.00, -0.00, -1.00, 947.3, 288.0)">h</text><text xml:space="preserve" font-family="ArialMT" font-size="50.0" fill="#19305B" transform="matrix(1.00, 0.00, -0.00, -1.00, 975.1, 288.0)">i</text><text xml:space="preserve" font-family="ArialMT" font-size="50.0" fill="#19305B" transform="matrix(1.00, 0.00, -0.00, -1.00, 986.2, 288.0)">p</text><text xml:space="preserve" font-family="ArialMT" font-size="50.0" fill="#19305B" transform="matrix(1.00, 0.00, -0.00, -1.00, 1014.0, 288.0)">s</text><text xml:space="preserve" font-family="ArialMT" font-size="50.0" fill="#19305B" transform="matrix(1.00, 0.00, -0.00, -1.00, 1039.0, 288.0)"> </text><text xml:space="preserve" font-family="ArialMT" font-size="50.0" fill="#19305B" transform="matrix(1.00, 0.00, -0.00, -1.00, 1052.9, 288.0)">t</text><text xml:space="preserve" font-family="ArialMT" font-size="50.0" fill="#19305B" transform="matrix(1.00, 0.00, -0.00, -1.00, 1066.8, 288.0)">o</text><text xml:space="preserve" font-family="ArialMT" font-size="50.0" fill="#19305B" transform="matrix(1.00, 0.00, -0.00, -1.00, 1094.6, 288.0)"> </text><text xml:space="preserve" font-family="ArialMT" font-size="50.0" fill="#19305B" transform="matrix(1.00, 0.00, -0.00, -1.00, 1108.5, 288.0)">d</text><text xml:space="preserve" font-family="ArialMT" font-size="50.0" fill="#19305B" transform="matrix(1.00, 0.00, -0.00, -1.00, 1136.3, 288.0)">i</text><text xml:space="preserve" font-family="ArialMT" font-size="50.0" fill="#19305B" transform="matrix(1.00, 0.00, -0.00, -1.00, 1147.4, 288.0)">s</text><text xml:space="preserve" font-family="ArialMT" font-size="50.0" fill="#19305B" transform="matrix(1.00, 0.00, -0.00, -1.00, 1172.4, 288.0)">c</text><text xml:space="preserve" font-family="ArialMT" font-size="50.0" fill="#19305B" transform="matrix(1.00, 0.00, -0.00, -1.00, 1197.4, 288.0)">l</text><text xml:space="preserve" font-family="ArialMT" font-size="50.0" fill="#19305B" transform="matrix(1.00, 0.00, -0.00, -1.00, 1208.5, 288.0)">o</text><text xml:space="preserve" font-family="ArialMT" font-size="50.0" fill="#19305B" transform="matrix(1.00, 0.00, -0.00, -1.00, 1236.3, 288.0)">s</text><text xml:space="preserve" font-family="ArialMT" font-size="50.0" fill="#19305B" transform="matrix(1.00, 0.00, -0.00, -1.00, 1261.3, 288.0)">e</text><text xml:space="preserve" font-family="ArialMT" font-size="50.0" fill="#19305B" transform="matrix(1.00, 0.00, -0.00, -1.00, 1289.2, 288.0)"> </text><text xml:space="preserve" font-family="ArialMT" font-size="50.0" fill="#19305B" transform="matrix(1.00, 0.00, -0.00, -1.00, 1303.0, 288.0)">w</text><text xml:space="preserve" font-family="ArialMT" font-size="50.0" fill="#19305B" transform="matrix(1.00, 0.00, -0.00, -1.00, 1339.2, 288.0)">i</text><text xml:space="preserve" font-family="ArialMT" font-size="50.0" fill="#19305B" transform="matrix(1.00, 0.00, -0.00, -1.00, 1350.3, 288.0)">t</text><text xml:space="preserve" font-family="ArialMT" font-size="50.0" fill="#19305B" transform="matrix(1.00, 0.00, -0.00, -1.00, 1364.2, 288.0)">h</text><text xml:space="preserve" font-family="ArialMT" font-size="50.0" fill="#19305B" transform="matrix(1.00, 0.00, -0.00, -1.00, 1392.0, 288.0)"> </text><text xml:space="preserve" font-family="ArialMT" font-size="50.0" fill="#19305B" transform="matrix(1.00, 0.00, -0.00, -1.00, 1405.9, 288.0)">r</text><text xml:space="preserve" font-family="ArialMT" font-size="50.0" fill="#19305B" transform="matrix(1.00, 0.00, -0.00, -1.00, 1422.5, 288.0)">e</text><text xml:space="preserve" font-family="ArialMT" font-size="50.0" fill="#19305B" transform="matrix(1.00, 0.00, -0.00, -1.00, 1450.3, 288.0)">g</text><text xml:space="preserve" font-family="ArialMT" font-size="50.0" fill="#19305B" transform="matrix(1.00, 0.00, -0.00, -1.00, 1478.1, 288.0)">a</text><text xml:space="preserve" font-family="ArialMT" font-size="50.0" fill="#19305B" transform="matrix(1.00, 0.00, -0.00, -1.00, 1506.0, 288.0)">r</text><text xml:space="preserve" font-family="ArialMT" font-size="50.0" fill="#19305B" transform="matrix(1.00, 0.00, -0.00, -1.00, 1522.6, 288.0)">d</text><text xml:space="preserve" font-family="ArialMT" font-size="50.0" fill="#19305B" transform="matrix(1.00, 0.00, -0.00, -1.00, 1550.4, 288.0)"> </text><text xml:space="preserve" font-family="ArialMT" font-size="50.0" fill="#19305B" transform="matrix(1.00, 0.00, -0.00, -1.00, 1564.3, 288.0)">t</text><text xml:space="preserve" font-family="ArialMT" font-size="50.0" fill="#19305B" transform="matrix(1.00, 0.00, -0.00, -1.00, 1578.2, 288.0)">o</text><text xml:space="preserve" font-family="ArialMT" font-size="50.0" fill="#19305B" transform="matrix(1.00, 0.00, -0.00, -1.00, 1606.0, 288.0)"> </text><text xml:space="preserve" font-family="ArialMT" font-size="50.0" fill="#19305B" transform="matrix(1.00, 0.00, -0.00, -1.00, 1619.9, 288.0)">t</text><text xml:space="preserve" font-family="ArialMT" font-size="50.0" fill="#19305B" transform="matrix(1.00, 0.00, -0.00, -1.00, 1633.8, 288.0)">h</text><text xml:space="preserve" font-family="ArialMT" font-size="50.0" fill="#19305B" transform="matrix(1.00, 0.00, -0.00, -1.00, 1661.6, 288.0)">e</text><text xml:space="preserve" font-family="ArialMT" font-size="50.0" fill="#19305B" transform="matrix(1.00, 0.00, -0.00, -1.00, 1689.4, 288.0)"> </text><text xml:space="preserve" font-family="ArialMT" font-size="50.0" fill="#19305B" transform="matrix(1.00, 0.00, -0.00, -1.00, 80.0, 230.0)">s</text><text xml:space="preserve" font-family="ArialMT" font-size="50.0" fill="#19305B" transform="matrix(1.00, 0.00, -0.00, -1.00, 105.0, 230.0)">u</text><text xml:space="preserve" font-family="ArialMT" font-size="50.0" fill="#19305B" transform="matrix(1.00, 0.00, -0.00, -1.00, 132.8, 230.0)">b</text><text xml:space="preserve" font-family="ArialMT" font-size="50.0" fill="#19305B" transform="matrix(1.00, 0.00, -0.00, -1.00, 160.6, 230.0)">j</text><text xml:space="preserve" font-family="ArialMT" font-size="50.0" fill="#19305B" transform="matrix(1.00, 0.00, -0.00, -1.00, 171.8, 230.0)">e</text><text xml:space="preserve" font-family="ArialMT" font-size="50.0" fill="#19305B" transform="matrix(1.00, 0.00, -0.00, -1.00, 199.6, 230.0)">c</text><text xml:space="preserve" font-family="ArialMT" font-size="50.0" fill="#19305B" transform="matrix(1.00, 0.00, -0.00, -1.00, 224.6, 230.0)">t</text><text xml:space="preserve" font-family="ArialMT" font-size="50.0" fill="#19305B" transform="matrix(1.00, 0.00, -0.00, -1.00, 238.5, 230.0)"> </text><text xml:space="preserve" font-family="ArialMT" font-size="50.0" fill="#19305B" transform="matrix(1.00, 0.00, -0.00, -1.00, 252.3, 230.0)">m</text><text xml:space="preserve" font-family="ArialMT" font-size="50.0" fill="#19305B" transform="matrix(1.00, 0.00, -0.00, -1.00, 294.0, 230.0)">a</text><text xml:space="preserve" font-family="ArialMT" font-size="50.0" fill="#19305B" transform="matrix(1.00, 0.00, -0.00, -1.00, 321.8, 230.0)">t</text><text xml:space="preserve" font-family="ArialMT" font-size="50.0" fill="#19305B" transform="matrix(1.00, 0.00, -0.00, -1.00, 335.7, 230.0)">t</text><text xml:space="preserve" font-family="ArialMT" font-size="50.0" fill="#19305B" transform="matrix(1.00, 0.00, -0.00, -1.00, 349.6, 230.0)">e</text><text xml:space="preserve" font-family="ArialMT" font-size="50.0" fill="#19305B" transform="matrix(1.00, 0.00, -0.00, -1.00, 377.4, 230.0)">r</text><text xml:space="preserve" font-family="ArialMT" font-size="50.0" fill="#19305B" transform="matrix(1.00, 0.00, -0.00, -1.00, 394.0, 230.0)"> </text><text xml:space="preserve" font-family="ArialMT" font-size="50.0" fill="#19305B" transform="matrix(1.00, 0.00, -0.00, -1.00, 407.9, 230.0)">o</text><text xml:space="preserve" font-family="ArialMT" font-size="50.0" fill="#19305B" transform="matrix(1.00, 0.00, -0.00, -1.00, 435.7, 230.0)">f</text><text xml:space="preserve" font-family="ArialMT" font-size="50.0" fill="#19305B" transform="matrix(1.00, 0.00, -0.00, -1.00, 449.6, 230.0)"> </text><text xml:space="preserve" font-family="ArialMT" font-size="50.0" fill="#19305B" transform="matrix(1.00, 0.00, -0.00, -1.00, 463.5, 230.0)">t</text><text xml:space="preserve" font-family="ArialMT" font-size="50.0" fill="#19305B" transform="matrix(1.00, 0.00, -0.00, -1.00, 477.4, 230.0)">h</text><text xml:space="preserve" font-family="ArialMT" font-size="50.0" fill="#19305B" transform="matrix(1.00, 0.00, -0.00, -1.00, 505.2, 230.0)">i</text><text xml:space="preserve" font-family="ArialMT" font-size="50.0" fill="#19305B" transform="matrix(1.00, 0.00, -0.00, -1.00, 516.3, 230.0)">s</text><text xml:space="preserve" font-family="ArialMT" font-size="50.0" fill="#19305B" transform="matrix(1.00, 0.00, -0.00, -1.00, 541.3, 230.0)"> </text><text xml:space="preserve" font-family="ArialMT" font-size="50.0" fill="#19305B" transform="matrix(1.00, 0.00, -0.00, -1.00, 555.2, 230.0)">p</text><text xml:space="preserve" font-family="ArialMT" font-size="50.0" fill="#19305B" transform="matrix(1.00, 0.00, -0.00, -1.00, 583.0, 230.0)">r</text><text xml:space="preserve" font-family="ArialMT" font-size="50.0" fill="#19305B" transform="matrix(1.00, 0.00, -0.00, -1.00, 599.7, 230.0)">e</text><text xml:space="preserve" font-family="ArialMT" font-size="50.0" fill="#19305B" transform="matrix(1.00, 0.00, -0.00, -1.00, 627.5, 230.0)">s</text><text xml:space="preserve" font-family="ArialMT" font-size="50.0" fill="#19305B" transform="matrix(1.00, 0.00, -0.00, -1.00, 652.5, 230.0)">e</text><text xml:space="preserve" font-family="ArialMT" font-size="50.0" fill="#19305B" transform="matrix(1.00, 0.00, -0.00, -1.00, 680.3, 230.0)">n</text><text xml:space="preserve" font-family="ArialMT" font-size="50.0" fill="#19305B" transform="matrix(1.00, 0.00, -0.00, -1.00, 708.1, 230.0)">t</text><text xml:space="preserve" font-family="ArialMT" font-size="50.0" fill="#19305B" transform="matrix(1.00, 0.00, -0.00, -1.00, 722.0, 230.0)">a</text><text xml:space="preserve" font-family="ArialMT" font-size="50.0" fill="#19305B" transform="matrix(1.00, 0.00, -0.00, -1.00, 749.8, 230.0)">t</text><text xml:space="preserve" font-family="ArialMT" font-size="50.0" fill="#19305B" transform="matrix(1.00, 0.00, -0.00, -1.00, 763.7, 230.0)">i</text><text xml:space="preserve" font-family="ArialMT" font-size="50.0" fill="#19305B" transform="matrix(1.00, 0.00, -0.00, -1.00, 774.8, 230.0)">o</text><text xml:space="preserve" font-family="ArialMT" font-size="50.0" fill="#19305B" transform="matrix(1.00, 0.00, -0.00, -1.00, 802.6, 230.0)">n</text><text xml:space="preserve" font-family="ArialMT" font-size="50.0" fill="#19305B" transform="matrix(1.00, 0.00, -0.00, -1.00, 830.5, 230.0)">.</text><path d="M -0.0 773.5 L 1920.0 773.5 L 1920.0 764.8 L -0.0 764.8 Z M -0.0 773.5 " fill="#19305B"></path><path d="M 264.0 732.0 L 1656.0 732.0 L 1656.0 531.4 L 264.0 531.4 Z M 264.0 732.0 " fill="#FFFFFF"></path><g><clipPath id="clip-0"><path d="M 251.3 516.1 L 1668.7 516.1 L 1668.7 744.7 L 251.3 744.7 Z M 251.3 516.1 "></path></clipPath><g clip-path="url(#clip-0)"><text xml:space="preserve" font-family="Arial-BoldMT" font-weight="bold" font-size="80.0" fill="#19305B" transform="matrix(1.00, 0.00, -0.00, -1.00, 693.0, 650.0)">D</text><text xml:space="preserve" font-family="Arial-BoldMT" font-weight="bold" font-size="80.0" fill="#19305B" transform="matrix(1.00, 0.00, -0.00, -1.00, 750.8, 650.0)">e</text><text xml:space="preserve" font-family="Arial-BoldMT" font-weight="bold" font-size="80.0" fill="#19305B" transform="matrix(1.00, 0.00, -0.00, -1.00, 795.3, 650.0)">c</text><text xml:space="preserve" font-family="Arial-BoldMT" font-weight="bold" font-size="80.0" fill="#19305B" transform="matrix(1.00, 0.00, -0.00, -1.00, 839.8, 650.0)">l</text><text xml:space="preserve" font-family="Arial-BoldMT" font-weight="bold" font-size="80.0" fill="#19305B" transform="matrix(1.00, 0.00, -0.00, -1.00, 862.0, 650.0)">a</text><text xml:space="preserve" font-family="Arial-BoldMT" font-weight="bold" font-size="80.0" fill="#19305B" transform="matrix(1.00, 0.00, -0.00, -1.00, 906.5, 650.0)">r</text><text xml:space="preserve" font-family="Arial-BoldMT" font-weight="bold" font-size="80.0" fill="#19305B" transform="matrix(1.00, 0.00, -0.00, -1.00, 937.7, 650.0)">a</text><text xml:space="preserve" font-family="Arial-BoldMT" font-weight="bold" font-size="80.0" fill="#19305B" transform="matrix(1.00, 0.00, -0.00, -1.00, 982.2, 650.0)">t</text><text xml:space="preserve" font-family="Arial-BoldMT" font-weight="bold" font-size="80.0" fill="#19305B" transform="matrix(1.00, 0.00, -0.00, -1.00, 1008.8, 650.0)">i</text><text xml:space="preserve" font-family="Arial-BoldMT" font-weight="bold" font-size="80.0" fill="#19305B" transform="matrix(1.00, 0.00, -0.00, -1.00, 1031.0, 650.0)">o</text><text xml:space="preserve" font-family="Arial-BoldMT" font-weight="bold" font-size="80.0" fill="#19305B" transform="matrix(1.00, 0.00, -0.00, -1.00, 1079.9, 650.0)">n</text><text xml:space="preserve" font-family="Arial-BoldMT" font-weight="bold" font-size="80.0" fill="#19305B" transform="matrix(1.00, 0.00, -0.00, -1.00, 1128.7, 650.0)"> </text><text xml:space="preserve" font-family="Arial-BoldMT" font-weight="bold" font-size="80.0" fill="#19305B" transform="matrix(1.00, 0.00, -0.00, -1.00, 1150.9, 650.0)">o</text><text xml:space="preserve" font-family="Arial-BoldMT" font-weight="bold" font-size="80.0" fill="#19305B" transform="matrix(1.00, 0.00, -0.00, -1.00, 1199.8, 650.0)">f</text><text xml:space="preserve" font-family="LucidaGrande-Bold" font-weight="bold" font-size="80.0" fill="#19305B" transform="matrix(1.00, 0.00, -0.00, -1.00, 1226.4, 650.0)"> </text><text xml:space="preserve" font-family="Arial-BoldMT" font-weight="bold" font-size="80.0" fill="#19305B" transform="matrix(1.00, 0.00, -0.00, -1.00, 284.0, 558.0)">F</text><text xml:space="preserve" font-family="Arial-BoldMT" font-weight="bold" font-size="80.0" fill="#19305B" transform="matrix(1.00, 0.00, -0.00, -1.00, 332.9, 558.0)">i</text><text xml:space="preserve" font-family="Arial-BoldMT" font-weight="bold" font-size="80.0" fill="#19305B" transform="matrix(1.00, 0.00, -0.00, -1.00, 355.1, 558.0)">n</text><text xml:space="preserve" font-family="Arial-BoldMT" font-weight="bold" font-size="80.0" fill="#19305B" transform="matrix(1.00, 0.00, -0.00, -1.00, 403.9, 558.0)">a</text><text xml:space="preserve" font-family="Arial-BoldMT" font-weight="bold" font-size="80.0" fill="#19305B" transform="matrix(1.00, 0.00, -0.00, -1.00, 448.4, 558.0)">n</text><text xml:space="preserve" font-family="Arial-BoldMT" font-weight="bold" font-size="80.0" fill="#19305B" transform="matrix(1.00, 0.00, -0.00, -1.00, 497.3, 558.0)">c</text><text xml:space="preserve" font-family="Arial-BoldMT" font-weight="bold" font-size="80.0" fill="#19305B" transform="matrix(1.00, 0.00, -0.00, -1.00, 541.8, 558.0)">i</text><text xml:space="preserve" font-family="Arial-BoldMT" font-weight="bold" font-size="80.0" fill="#19305B" transform="matrix(1.00, 0.00, -0.00, -1.00, 564.0, 558.0)">a</text><text xml:space="preserve" font-family="Arial-BoldMT" font-weight="bold" font-size="80.0" fill="#19305B" transform="matrix(1.00, 0.00, -0.00, -1.00, 608.5, 558.0)">l</text><text xml:space="preserve" font-family="Arial-BoldMT" font-weight="bold" font-size="80.0" fill="#19305B" transform="matrix(1.00, 0.00, -0.00, -1.00, 630.7, 558.0)"> </text><text xml:space="preserve" font-family="Arial-BoldMT" font-weight="bold" font-size="80.0" fill="#19305B" transform="matrix(1.00, 0.00, -0.00, -1.00, 652.9, 558.0)">I</text><text xml:space="preserve" font-family="Arial-BoldMT" font-weight="bold" font-size="80.0" fill="#19305B" transform="matrix(1.00, 0.00, -0.00, -1.00, 675.1, 558.0)">n</text><text xml:space="preserve" font-family="Arial-BoldMT" font-weight="bold" font-size="80.0" fill="#19305B" transform="matrix(1.00, 0.00, -0.00, -1.00, 724.0, 558.0)">t</text><text xml:space="preserve" font-family="Arial-BoldMT" font-weight="bold" font-size="80.0" fill="#19305B" transform="matrix(1.00, 0.00, -0.00, -1.00, 750.6, 558.0)">e</text><text xml:space="preserve" font-family="Arial-BoldMT" font-weight="bold" font-size="80.0" fill="#19305B" transform="matrix(1.00, 0.00, -0.00, -1.00, 795.1, 558.0)">r</text><text xml:space="preserve" font-family="Arial-BoldMT" font-weight="bold" font-size="80.0" fill="#19305B" transform="matrix(1.00, 0.00, -0.00, -1.00, 826.3, 558.0)">e</text><text xml:space="preserve" font-family="Arial-BoldMT" font-weight="bold" font-size="80.0" fill="#19305B" transform="matrix(1.00, 0.00, -0.00, -1.00, 870.8, 558.0)">s</text><text xml:space="preserve" font-family="Arial-BoldMT" font-weight="bold" font-size="80.0" fill="#19305B" transform="matrix(1.00, 0.00, -0.00, -1.00, 915.3, 558.0)">t</text><text xml:space="preserve" font-family="Arial-BoldMT" font-weight="bold" font-size="80.0" fill="#19305B" transform="matrix(1.00, 0.00, -0.00, -1.00, 941.9, 558.0)">s</text><text xml:space="preserve" font-family="Arial-BoldMT" font-weight="bold" font-size="80.0" fill="#19305B" transform="matrix(1.00, 0.00, -0.00, -1.00, 986.4, 558.0)"> </text><text xml:space="preserve" font-family="Arial-BoldMT" font-weight="bold" font-size="80.0" fill="#19305B" transform="matrix(1.00, 0.00, -0.00, -1.00, 1008.7, 558.0)">o</text><text xml:space="preserve" font-family="Arial-BoldMT" font-weight="bold" font-size="80.0" fill="#19305B" transform="matrix(1.00, 0.00, -0.00, -1.00, 1057.5, 558.0)">r</text><text xml:space="preserve" font-family="Arial-BoldMT" font-weight="bold" font-size="80.0" fill="#19305B" transform="matrix(1.00, 0.00, -0.00, -1.00, 1088.7, 558.0)"> </text><text xml:space="preserve" font-family="Arial-BoldMT" font-weight="bold" font-size="80.0" fill="#19305B" transform="matrix(1.00, 0.00, -0.00, -1.00, 1110.9, 558.0)">R</text><text xml:space="preserve" font-family="Arial-BoldMT" font-weight="bold" font-size="80.0" fill="#19305B" transform="matrix(1.00, 0.00, -0.00, -1.00, 1168.7, 558.0)">e</text><text xml:space="preserve" font-family="Arial-BoldMT" font-weight="bold" font-size="80.0" fill="#19305B" transform="matrix(1.00, 0.00, -0.00, -1.00, 1213.2, 558.0)">l</text><text xml:space="preserve" font-family="Arial-BoldMT" font-weight="bold" font-size="80.0" fill="#19305B" transform="matrix(1.00, 0.00, -0.00, -1.00, 1235.4, 558.0)">a</text><text xml:space="preserve" font-family="Arial-BoldMT" font-weight="bold" font-size="80.0" fill="#19305B" transform="matrix(1.00, 0.00, -0.00, -1.00, 1279.9, 558.0)">t</text><text xml:space="preserve" font-family="Arial-BoldMT" font-weight="bold" font-size="80.0" fill="#19305B" transform="matrix(1.00, 0.00, -0.00, -1.00, 1306.5, 558.0)">i</text><text xml:space="preserve" font-family="Arial-BoldMT" font-weight="bold" font-size="80.0" fill="#19305B" transform="matrix(1.00, 0.00, -0.00, -1.00, 1328.7, 558.0)">o</text><text xml:space="preserve" font-family="Arial-BoldMT" font-weight="bold" font-size="80.0" fill="#19305B" transform="matrix(1.00, 0.00, -0.00, -1.00, 1377.6, 558.0)">n</text><text xml:space="preserve" font-family="Arial-BoldMT" font-weight="bold" font-size="80.0" fill="#19305B" transform="matrix(1.00, 0.00, -0.00, -1.00, 1426.4, 558.0)">s</text><text xml:space="preserve" font-family="Arial-BoldMT" font-weight="bold" font-size="80.0" fill="#19305B" transform="matrix(1.00, 0.00, -0.00, -1.00, 1470.9, 558.0)">h</text><text xml:space="preserve" font-family="Arial-BoldMT" font-weight="bold" font-size="80.0" fill="#19305B" transform="matrix(1.00, 0.00, -0.00, -1.00, 1519.8, 558.0)">i</text><text xml:space="preserve" font-family="Arial-BoldMT" font-weight="bold" font-size="80.0" fill="#19305B" transform="matrix(1.00, 0.00, -0.00, -1.00, 1542.0, 558.0)">p</text><text xml:space="preserve" font-family="Arial-BoldMT" font-weight="bold" font-size="80.0" fill="#19305B" transform="matrix(1.00, 0.00, -0.00, -1.00, 1590.9, 558.0)">s</text></g></g><g><clipPath id="clip-1"><path d="M 576.0 772.0 L 1344.0 772.0 L 1344.0 1079.0 L 576.0 1079.0 Z M 576.0 772.0 "></path></clipPath><g clip-path="url(#clip-1)"><path d="M 576.0 1079.0 L 1344.0 1079.0 L 1344.0 772.0 L 576.0 772.0 Z M 576.0 1079.0 " fill="#FFFFFF" fill-opacity="0.00"></path></g></g><g><clipPath id="clip-2"><path d="M 576.0 1079.0 L 1344.0 1079.0 L 1344.0 772.0 L 576.0 772.0 Z M 576.0 1079.0 "></path></clipPath><g clip-path="url(#clip-2)"><g><clipPath id="clip-3"><path d="M 576.0 772.0 L 1344.0 772.0 L 1344.0 1079.0 L 576.0 1079.0 Z M 576.0 772.0 "></path></clipPath><g clip-path="url(#clip-3)"><image xlink:href="F444E22211597BEDA192FC86F99BA545.jpeg" width="750.00" height="301.00" transform="matrix(1.02, 0.00, -0.00, -1.02, 576.0, 1079.0)"></image></g></g></g></g></g></svg>