<?xml version="1.0" encoding="UTF-8" standalone="no"?><svg xmlns="http://www.w3.org/2000/svg" xmlns:xlink="http://www.w3.org/1999/xlink" clip-rule="evenodd" stroke-miterlimit="4.00" viewBox="0 0 25 193"><desc>SVG generated by Keynote</desc><defs></defs><g transform="matrix(1.00, 0.00, -0.00, -1.00, 0.0, 193.0)"><text xml:space="preserve" font-family="AvenirNext-Medium" font-size="28.0" fill="#EAF1F0" transform="matrix(0.00, 1.00, 1.00, -0.00, 22.0, 2.0)">A</text><text xml:space="preserve" font-family="AvenirNext-Medium" font-size="28.0" fill="#EAF1F0" transform="matrix(0.00, 1.00, 1.00, -0.00, 22.0, 21.9)">S</text><text xml:space="preserve" font-family="AvenirNext-Medium" font-size="28.0" fill="#EAF1F0" transform="matrix(0.00, 1.00, 1.00, -0.00, 22.0, 37.8)">S</text><text xml:space="preserve" font-family="AvenirNext-Medium" font-size="28.0" fill="#EAF1F0" transform="matrix(0.00, 1.00, 1.00, -0.00, 22.0, 53.8)">O</text><text xml:space="preserve" font-family="AvenirNext-Medium" font-size="28.0" fill="#EAF1F0" transform="matrix(0.00, 1.00, 1.00, -0.00, 22.0, 77.5)">C</text><text xml:space="preserve" font-family="AvenirNext-Medium" font-size="28.0" fill="#EAF1F0" transform="matrix(0.00, 1.00, 1.00, -0.00, 22.0, 97.4)">I</text><text xml:space="preserve" font-family="AvenirNext-Medium" font-size="28.0" fill="#EAF1F0" transform="matrix(0.00, 1.00, 1.00, -0.00, 22.0, 105.0)">A</text><text xml:space="preserve" font-family="AvenirNext-Medium" font-size="28.0" fill="#EAF1F0" transform="matrix(0.00, 1.00, 1.00, -0.00, 22.0, 123.2)">T</text><text xml:space="preserve" font-family="AvenirNext-Medium" font-size="28.0" fill="#EAF1F0" transform="matrix(0.00, 1.00, 1.00, -0.00, 22.0, 139.1)">I</text><text xml:space="preserve" font-family="AvenirNext-Medium" font-size="28.0" fill="#EAF1F0" transform="matrix(0.00, 1.00, 1.00, -0.00, 22.0, 146.7)">O</text><text xml:space="preserve" font-family="AvenirNext-Medium" font-size="28.0" fill="#EAF1F0" transform="matrix(0.00, 1.00, 1.00, -0.00, 22.0, 170.5)">N</text></g></svg>