<?xml version="1.0" encoding="UTF-8" standalone="no"?><svg xmlns="http://www.w3.org/2000/svg" xmlns:xlink="http://www.w3.org/1999/xlink" clip-rule="evenodd" stroke-miterlimit="4.00" viewBox="0 0 682 237"><desc>SVG generated by Keynote</desc><defs></defs><g transform="matrix(1.00, 0.00, -0.00, -1.00, 0.0, 237.0)"><text xml:space="preserve" font-family="LucidaGrande" font-size="41.0" fill="#34A4DA" transform="matrix(1.00, 0.00, -0.00, -1.00, 0.8, 196.9)">▸</text><text xml:space="preserve" font-family="AvenirNext-Medium" font-size="39.0" fill="#EAF1F0" transform="matrix(1.00, 0.00, -0.00, -1.00, 49.0, 200.0)">[</text><text xml:space="preserve" font-family="AvenirNext-Medium" font-size="39.0" fill="#EAF1F0" transform="matrix(1.00, 0.00, -0.00, -1.00, 61.3, 200.0)">2</text><text xml:space="preserve" font-family="AvenirNext-Medium" font-size="39.0" fill="#EAF1F0" transform="matrix(1.00, 0.00, -0.00, -1.00, 84.5, 200.0)">1</text><text xml:space="preserve" font-family="AvenirNext-Medium" font-size="39.0" fill="#EAF1F0" transform="matrix(1.00, 0.00, -0.00, -1.00, 107.7, 200.0)">-</text><text xml:space="preserve" font-family="AvenirNext-Medium" font-size="39.0" fill="#EAF1F0" transform="matrix(1.00, 0.00, -0.00, -1.00, 120.2, 200.0)">3</text><text xml:space="preserve" font-family="AvenirNext-Medium" font-size="39.0" fill="#EAF1F0" transform="matrix(1.00, 0.00, -0.00, -1.00, 143.4, 200.0)">4</text><text xml:space="preserve" font-family="AvenirNext-Medium" font-size="39.0" fill="#EAF1F0" transform="matrix(1.00, 0.00, -0.00, -1.00, 166.6, 200.0)">]</text><text xml:space="preserve" font-family="AvenirNext-Medium" font-size="39.0" fill="#EAF1F0" transform="matrix(1.00, 0.00, -0.00, -1.00, 178.9, 200.0)">%</text><text xml:space="preserve" font-family="AvenirNext-Medium" font-size="39.0" fill="#EAF1F0" transform="matrix(1.00, 0.00, -0.00, -1.00, 212.8, 200.0)"> </text><text xml:space="preserve" font-family="AvenirNext-Medium" font-size="39.0" fill="#EAF1F0" transform="matrix(1.00, 0.00, -0.00, -1.00, 222.6, 200.0)">o</text><text xml:space="preserve" font-family="AvenirNext-Medium" font-size="39.0" fill="#EAF1F0" transform="matrix(1.00, 0.00, -0.00, -1.00, 246.3, 200.0)">f</text><text xml:space="preserve" font-family="AvenirNext-Medium" font-size="39.0" fill="#EAF1F0" transform="matrix(1.00, 0.00, -0.00, -1.00, 259.4, 200.0)"> </text><text xml:space="preserve" font-family="AvenirNext-Medium" font-size="39.0" fill="#EAF1F0" transform="matrix(1.00, 0.00, -0.00, -1.00, 269.1, 200.0)">v</text><text xml:space="preserve" font-family="AvenirNext-Medium" font-size="39.0" fill="#EAF1F0" transform="matrix(1.00, 0.00, -0.00, -1.00, 288.8, 200.0)">a</text><text xml:space="preserve" font-family="AvenirNext-Medium" font-size="39.0" fill="#EAF1F0" transform="matrix(1.00, 0.00, -0.00, -1.00, 309.9, 200.0)">s</text><text xml:space="preserve" font-family="AvenirNext-Medium" font-size="39.0" fill="#EAF1F0" transform="matrix(1.00, 0.00, -0.00, -1.00, 327.2, 200.0)">c</text><text xml:space="preserve" font-family="AvenirNext-Medium" font-size="39.0" fill="#EAF1F0" transform="matrix(1.00, 0.00, -0.00, -1.00, 346.5, 200.0)">u</text><text xml:space="preserve" font-family="AvenirNext-Medium" font-size="39.0" fill="#EAF1F0" transform="matrix(1.00, 0.00, -0.00, -1.00, 369.2, 200.0)">l</text><text xml:space="preserve" font-family="AvenirNext-Medium" font-size="39.0" fill="#EAF1F0" transform="matrix(1.00, 0.00, -0.00, -1.00, 379.3, 200.0)">a</text><text xml:space="preserve" font-family="AvenirNext-Medium" font-size="39.0" fill="#EAF1F0" transform="matrix(1.00, 0.00, -0.00, -1.00, 400.5, 200.0)">r</text><text xml:space="preserve" font-family="AvenirNext-Medium" font-size="39.0" fill="#EAF1F0" transform="matrix(1.00, 0.00, -0.00, -1.00, 414.6, 200.0)"> </text><text xml:space="preserve" font-family="AvenirNext-Medium" font-size="39.0" fill="#EAF1F0" transform="matrix(1.00, 0.00, -0.00, -1.00, 424.3, 200.0)">v</text><text xml:space="preserve" font-family="AvenirNext-Medium" font-size="39.0" fill="#EAF1F0" transform="matrix(1.00, 0.00, -0.00, -1.00, 444.0, 200.0)">o</text><text xml:space="preserve" font-family="AvenirNext-Medium" font-size="39.0" fill="#EAF1F0" transform="matrix(1.00, 0.00, -0.00, -1.00, 467.4, 200.0)">x</text><text xml:space="preserve" font-family="AvenirNext-Medium" font-size="39.0" fill="#EAF1F0" transform="matrix(1.00, 0.00, -0.00, -1.00, 486.9, 200.0)">e</text><text xml:space="preserve" font-family="AvenirNext-Medium" font-size="39.0" fill="#EAF1F0" transform="matrix(1.00, 0.00, -0.00, -1.00, 509.3, 200.0)">l</text><text xml:space="preserve" font-family="AvenirNext-Medium" font-size="39.0" fill="#EAF1F0" transform="matrix(1.00, 0.00, -0.00, -1.00, 519.4, 200.0)">s</text><text xml:space="preserve" font-family="AvenirNext-Medium" font-size="39.0" fill="#EAF1F0" transform="matrix(1.00, 0.00, -0.00, -1.00, 536.7, 200.0)"> </text><text xml:space="preserve" font-family="LucidaGrande-Bold" font-weight="bold" font-size="39.0" fill="#EAF1F0" transform="matrix(1.00, 0.00, -0.00, -1.00, 546.5, 200.0)"> </text><text xml:space="preserve" font-family="AvenirNext-Medium" font-size="39.0" fill="#EAF1F0" transform="matrix(1.00, 0.00, -0.00, -1.00, 49.0, 147.0)">(</text><text xml:space="preserve" font-family="AvenirNext-Medium" font-size="39.0" fill="#FFE988" transform="matrix(1.00, 0.00, -0.00, -1.00, 61.3, 147.0)"> </text><text xml:space="preserve" font-family="AvenirNext-Medium" font-size="39.0" fill="#FE5E5C" transform="matrix(1.00, 0.00, -0.00, -1.00, 71.0, 147.0)">[</text><text xml:space="preserve" font-family="AvenirNext-Medium" font-size="39.0" fill="#FE5E5C" transform="matrix(1.00, 0.00, -0.00, -1.00, 83.3, 147.0)">4</text><text xml:space="preserve" font-family="AvenirNext-Medium" font-size="39.0" fill="#FE5E5C" transform="matrix(1.00, 0.00, -0.00, -1.00, 106.5, 147.0)">-</text><text xml:space="preserve" font-family="AvenirNext-Medium" font-size="39.0" fill="#FE5E5C" transform="matrix(1.00, 0.00, -0.00, -1.00, 119.0, 147.0)">1</text><text xml:space="preserve" font-family="AvenirNext-Medium" font-size="39.0" fill="#FE5E5C" transform="matrix(1.00, 0.00, -0.00, -1.00, 142.2, 147.0)">1</text><text xml:space="preserve" font-family="AvenirNext-Medium" font-size="39.0" fill="#FE5E5C" transform="matrix(1.00, 0.00, -0.00, -1.00, 165.4, 147.0)">]</text><text xml:space="preserve" font-family="AvenirNext-Medium" font-size="39.0" fill="#FE5E5C" transform="matrix(1.00, 0.00, -0.00, -1.00, 177.7, 147.0)">%</text><text xml:space="preserve" font-family="AvenirNext-Medium" font-size="39.0" fill="#FE5E5C" transform="matrix(1.00, 0.00, -0.00, -1.00, 211.6, 147.0)"> </text><text xml:space="preserve" font-family="AvenirNext-Medium" font-size="39.0" fill="#FE5E5C" transform="matrix(1.00, 0.00, -0.00, -1.00, 220.7, 147.0)">A</text><text xml:space="preserve" font-family="AvenirNext-Medium" font-size="39.0" fill="#FE5E5C" transform="matrix(1.00, 0.00, -0.00, -1.00, 248.4, 147.0)">r</text><text xml:space="preserve" font-family="AvenirNext-Medium" font-size="39.0" fill="#FE5E5C" transform="matrix(1.00, 0.00, -0.00, -1.00, 262.1, 147.0)">t</text><text xml:space="preserve" font-family="AvenirNext-Medium" font-size="39.0" fill="#FE5E5C" transform="matrix(1.00, 0.00, -0.00, -1.00, 274.9, 147.0)">e</text><text xml:space="preserve" font-family="AvenirNext-Medium" font-size="39.0" fill="#FE5E5C" transform="matrix(1.00, 0.00, -0.00, -1.00, 297.2, 147.0)">r</text><text xml:space="preserve" font-family="AvenirNext-Medium" font-size="39.0" fill="#FE5E5C" transform="matrix(1.00, 0.00, -0.00, -1.00, 311.4, 147.0)">i</text><text xml:space="preserve" font-family="AvenirNext-Medium" font-size="39.0" fill="#FE5E5C" transform="matrix(1.00, 0.00, -0.00, -1.00, 321.5, 147.0)">e</text><text xml:space="preserve" font-family="AvenirNext-Medium" font-size="39.0" fill="#FE5E5C" transform="matrix(1.00, 0.00, -0.00, -1.00, 343.8, 147.0)">s</text><text xml:space="preserve" font-family="AvenirNext-Medium" font-size="39.0" fill="#EAF1F0" transform="matrix(1.00, 0.00, -0.00, -1.00, 361.1, 147.0)">,</text><text xml:space="preserve" font-family="AvenirNext-Medium" font-size="39.0" fill="#CDD0CE" transform="matrix(1.00, 0.00, -0.00, -1.00, 370.1, 147.0)"> </text><text xml:space="preserve" font-family="AvenirNext-Medium" font-size="39.0" fill="#CDD0CE" transform="matrix(1.00, 0.00, -0.00, -1.00, 379.8, 147.0)"> </text><text xml:space="preserve" font-family="AvenirNext-Medium" font-size="39.0" fill="#84D1D6" transform="matrix(1.00, 0.00, -0.00, -1.00, 389.6, 147.0)">[</text><text xml:space="preserve" font-family="AvenirNext-Medium" font-size="39.0" fill="#84D1D6" transform="matrix(1.00, 0.00, -0.00, -1.00, 401.9, 147.0)">1</text><text xml:space="preserve" font-family="AvenirNext-Medium" font-size="39.0" fill="#84D1D6" transform="matrix(1.00, 0.00, -0.00, -1.00, 425.1, 147.0)">3</text><text xml:space="preserve" font-family="AvenirNext-Medium" font-size="39.0" fill="#84D1D6" transform="matrix(1.00, 0.00, -0.00, -1.00, 448.3, 147.0)">-</text><text xml:space="preserve" font-family="AvenirNext-Medium" font-size="39.0" fill="#84D1D6" transform="matrix(1.00, 0.00, -0.00, -1.00, 460.8, 147.0)">2</text><text xml:space="preserve" font-family="AvenirNext-Medium" font-size="39.0" fill="#84D1D6" transform="matrix(1.00, 0.00, -0.00, -1.00, 484.0, 147.0)">3</text><text xml:space="preserve" font-family="AvenirNext-Medium" font-size="39.0" fill="#84D1D6" transform="matrix(1.00, 0.00, -0.00, -1.00, 507.2, 147.0)">]</text><text xml:space="preserve" font-family="AvenirNext-Medium" font-size="39.0" fill="#84D1D6" transform="matrix(1.00, 0.00, -0.00, -1.00, 519.5, 147.0)">%</text><text xml:space="preserve" font-family="AvenirNext-Medium" font-size="39.0" fill="#84D1D6" transform="matrix(1.00, 0.00, -0.00, -1.00, 553.4, 147.0)"> </text><text xml:space="preserve" font-family="AvenirNext-Medium" font-size="39.0" fill="#84D1D6" transform="matrix(1.00, 0.00, -0.00, -1.00, 562.4, 147.0)">V</text><text xml:space="preserve" font-family="AvenirNext-Medium" font-size="39.0" fill="#84D1D6" transform="matrix(1.00, 0.00, -0.00, -1.00, 585.8, 147.0)">e</text><text xml:space="preserve" font-family="AvenirNext-Medium" font-size="39.0" fill="#84D1D6" transform="matrix(1.00, 0.00, -0.00, -1.00, 608.2, 147.0)">i</text><text xml:space="preserve" font-family="AvenirNext-Medium" font-size="39.0" fill="#84D1D6" transform="matrix(1.00, 0.00, -0.00, -1.00, 618.3, 147.0)">n</text><text xml:space="preserve" font-family="AvenirNext-Medium" font-size="39.0" fill="#84D1D6" transform="matrix(1.00, 0.00, -0.00, -1.00, 641.0, 147.0)">s</text><text xml:space="preserve" font-family="AvenirNext-Medium" font-size="39.0" fill="#84D1D6" transform="matrix(1.00, 0.00, -0.00, -1.00, 658.3, 147.0)"> </text><text xml:space="preserve" font-family="AvenirNext-Medium" font-size="39.0" fill="#EAF1F0" transform="matrix(1.00, 0.00, -0.00, -1.00, 668.0, 147.0)">)</text><text xml:space="preserve" font-family="AvenirNext-Medium" font-size="39.0" fill="#EAF1F0" transform="matrix(1.00, 0.00, -0.00, -1.00, 680.3, 147.0)"> </text><text xml:space="preserve" font-family="LucidaGrande" font-size="41.0" fill="#34A4DA" transform="matrix(1.00, 0.00, -0.00, -1.00, 0.8, 60.9)">▸</text><text xml:space="preserve" font-family="AvenirNext-Medium" font-size="39.0" fill="#EAF1F0" transform="matrix(1.00, 0.00, -0.00, -1.00, 49.0, 64.0)">N</text><text xml:space="preserve" font-family="AvenirNext-Medium" font-size="39.0" fill="#EAF1F0" transform="matrix(1.00, 0.00, -0.00, -1.00, 79.1, 64.0)">o</text><text xml:space="preserve" font-family="AvenirNext-Medium" font-size="39.0" fill="#EAF1F0" transform="matrix(1.00, 0.00, -0.00, -1.00, 102.9, 64.0)"> </text><text xml:space="preserve" font-family="AvenirNext-Medium" font-size="39.0" fill="#EAF1F0" transform="matrix(1.00, 0.00, -0.00, -1.00, 112.6, 64.0)">s</text><text xml:space="preserve" font-family="AvenirNext-Medium" font-size="39.0" fill="#EAF1F0" transform="matrix(1.00, 0.00, -0.00, -1.00, 130.0, 64.0)">i</text><text xml:space="preserve" font-family="AvenirNext-Medium" font-size="39.0" fill="#EAF1F0" transform="matrix(1.00, 0.00, -0.00, -1.00, 140.1, 64.0)">g</text><text xml:space="preserve" font-family="AvenirNext-Medium" font-size="39.0" fill="#EAF1F0" transform="matrix(1.00, 0.00, -0.00, -1.00, 164.7, 64.0)">n</text><text xml:space="preserve" font-family="AvenirNext-Medium" font-size="39.0" fill="#EAF1F0" transform="matrix(1.00, 0.00, -0.00, -1.00, 187.4, 64.0)">i</text><text xml:space="preserve" font-family="AvenirNext-Medium" font-size="39.0" fill="#EAF1F0" transform="matrix(1.00, 0.00, -0.00, -1.00, 197.5, 64.0)">ﬁ</text><text xml:space="preserve" font-family="AvenirNext-Medium" font-size="39.0" fill="#EAF1F0" transform="matrix(1.00, 0.00, -0.00, -1.00, 219.9, 64.0)">c</text><text xml:space="preserve" font-family="AvenirNext-Medium" font-size="39.0" fill="#EAF1F0" transform="matrix(1.00, 0.00, -0.00, -1.00, 239.2, 64.0)">a</text><text xml:space="preserve" font-family="AvenirNext-Medium" font-size="39.0" fill="#EAF1F0" transform="matrix(1.00, 0.00, -0.00, -1.00, 260.3, 64.0)">n</text><text xml:space="preserve" font-family="AvenirNext-Medium" font-size="39.0" fill="#EAF1F0" transform="matrix(1.00, 0.00, -0.00, -1.00, 283.0, 64.0)">t</text><text xml:space="preserve" font-family="AvenirNext-Medium" font-size="39.0" fill="#EAF1F0" transform="matrix(1.00, 0.00, -0.00, -1.00, 295.8, 64.0)"> </text><text xml:space="preserve" font-family="AvenirNext-Medium" font-size="39.0" fill="#EAF1F0" transform="matrix(1.00, 0.00, -0.00, -1.00, 305.6, 64.0)">d</text><text xml:space="preserve" font-family="AvenirNext-Medium" font-size="39.0" fill="#EAF1F0" transform="matrix(1.00, 0.00, -0.00, -1.00, 330.3, 64.0)">i</text><text xml:space="preserve" font-family="AvenirNext-Medium" font-size="39.0" fill="#EAF1F0" transform="matrix(1.00, 0.00, -0.00, -1.00, 340.4, 64.0)">f</text><text xml:space="preserve" font-family="AvenirNext-Medium" font-size="39.0" fill="#EAF1F0" transform="matrix(1.00, 0.00, -0.00, -1.00, 351.7, 64.0)">f</text><text xml:space="preserve" font-family="AvenirNext-Medium" font-size="39.0" fill="#EAF1F0" transform="matrix(1.00, 0.00, -0.00, -1.00, 363.8, 64.0)">e</text><text xml:space="preserve" font-family="AvenirNext-Medium" font-size="39.0" fill="#EAF1F0" transform="matrix(1.00, 0.00, -0.00, -1.00, 386.2, 64.0)">r</text><text xml:space="preserve" font-family="AvenirNext-Medium" font-size="39.0" fill="#EAF1F0" transform="matrix(1.00, 0.00, -0.00, -1.00, 399.6, 64.0)">e</text><text xml:space="preserve" font-family="AvenirNext-Medium" font-size="39.0" fill="#EAF1F0" transform="matrix(1.00, 0.00, -0.00, -1.00, 421.9, 64.0)">n</text><text xml:space="preserve" font-family="AvenirNext-Medium" font-size="39.0" fill="#EAF1F0" transform="matrix(1.00, 0.00, -0.00, -1.00, 444.6, 64.0)">c</text><text xml:space="preserve" font-family="AvenirNext-Medium" font-size="39.0" fill="#EAF1F0" transform="matrix(1.00, 0.00, -0.00, -1.00, 463.9, 64.0)">e</text><text xml:space="preserve" font-family="AvenirNext-Medium" font-size="39.0" fill="#EAF1F0" transform="matrix(1.00, 0.00, -0.00, -1.00, 486.2, 64.0)">s</text><text xml:space="preserve" font-family="AvenirNext-Medium" font-size="39.0" fill="#EAF1F0" transform="matrix(1.00, 0.00, -0.00, -1.00, 503.5, 64.0)"> </text><text xml:space="preserve" font-family="AvenirNext-Medium" font-size="39.0" fill="#EAF1F0" transform="matrix(1.00, 0.00, -0.00, -1.00, 513.3, 64.0)">i</text><text xml:space="preserve" font-family="AvenirNext-Medium" font-size="39.0" fill="#EAF1F0" transform="matrix(1.00, 0.00, -0.00, -1.00, 523.4, 64.0)">n</text><text xml:space="preserve" font-family="AvenirNext-Medium" font-size="39.0" fill="#EAF1F0" transform="matrix(1.00, 0.00, -0.00, -1.00, 546.1, 64.0)"> </text><text xml:space="preserve" font-family="AvenirNext-Medium" font-size="39.0" fill="#EAF1F0" transform="matrix(1.00, 0.00, -0.00, -1.00, 49.0, 11.0)">d</text><text xml:space="preserve" font-family="AvenirNext-Medium" font-size="39.0" fill="#EAF1F0" transform="matrix(1.00, 0.00, -0.00, -1.00, 73.8, 11.0)">i</text><text xml:space="preserve" font-family="AvenirNext-Medium" font-size="39.0" fill="#EAF1F0" transform="matrix(1.00, 0.00, -0.00, -1.00, 83.9, 11.0)">a</text><text xml:space="preserve" font-family="AvenirNext-Medium" font-size="39.0" fill="#EAF1F0" transform="matrix(1.00, 0.00, -0.00, -1.00, 105.0, 11.0)">m</text><text xml:space="preserve" font-family="AvenirNext-Medium" font-size="39.0" fill="#EAF1F0" transform="matrix(1.00, 0.00, -0.00, -1.00, 139.6, 11.0)">e</text><text xml:space="preserve" font-family="AvenirNext-Medium" font-size="39.0" fill="#EAF1F0" transform="matrix(1.00, 0.00, -0.00, -1.00, 161.9, 11.0)">t</text><text xml:space="preserve" font-family="AvenirNext-Medium" font-size="39.0" fill="#EAF1F0" transform="matrix(1.00, 0.00, -0.00, -1.00, 174.8, 11.0)">e</text><text xml:space="preserve" font-family="AvenirNext-Medium" font-size="39.0" fill="#EAF1F0" transform="matrix(1.00, 0.00, -0.00, -1.00, 197.1, 11.0)">r</text><text xml:space="preserve" font-family="AvenirNext-Medium" font-size="39.0" fill="#EAF1F0" transform="matrix(1.00, 0.00, -0.00, -1.00, 211.2, 11.0)">s</text><text xml:space="preserve" font-family="AvenirNext-Medium" font-size="39.0" fill="#EAF1F0" transform="matrix(1.00, 0.00, -0.00, -1.00, 228.6, 11.0)"> </text><text xml:space="preserve" font-family="AvenirNext-Medium" font-size="39.0" fill="#EAF1F0" transform="matrix(1.00, 0.00, -0.00, -1.00, 238.3, 11.0)">-</text><text xml:space="preserve" font-family="AvenirNext-Medium" font-size="39.0" fill="#EAF1F0" transform="matrix(1.00, 0.00, -0.00, -1.00, 250.8, 11.0)">&gt;</text><text xml:space="preserve" font-family="AvenirNext-Medium" font-size="39.0" fill="#EAF1F0" transform="matrix(1.00, 0.00, -0.00, -1.00, 276.8, 11.0)"> </text><text xml:space="preserve" font-family="AvenirNext-Medium" font-size="39.0" fill="#EAF1F0" transform="matrix(1.00, 0.00, -0.00, -1.00, 286.5, 11.0)">m</text><text xml:space="preserve" font-family="AvenirNext-Medium" font-size="39.0" fill="#EAF1F0" transform="matrix(1.00, 0.00, -0.00, -1.00, 321.1, 11.0)">e</text><text xml:space="preserve" font-family="AvenirNext-Medium" font-size="39.0" fill="#EAF1F0" transform="matrix(1.00, 0.00, -0.00, -1.00, 343.4, 11.0)">t</text><text xml:space="preserve" font-family="AvenirNext-Medium" font-size="39.0" fill="#EAF1F0" transform="matrix(1.00, 0.00, -0.00, -1.00, 356.3, 11.0)">h</text><text xml:space="preserve" font-family="AvenirNext-Medium" font-size="39.0" fill="#EAF1F0" transform="matrix(1.00, 0.00, -0.00, -1.00, 379.1, 11.0)">o</text><text xml:space="preserve" font-family="AvenirNext-Medium" font-size="39.0" fill="#EAF1F0" transform="matrix(1.00, 0.00, -0.00, -1.00, 402.8, 11.0)">d</text><text xml:space="preserve" font-family="AvenirNext-Medium" font-size="39.0" fill="#EAF1F0" transform="matrix(1.00, 0.00, -0.00, -1.00, 427.6, 11.0)">o</text><text xml:space="preserve" font-family="AvenirNext-Medium" font-size="39.0" fill="#EAF1F0" transform="matrix(1.00, 0.00, -0.00, -1.00, 451.4, 11.0)">l</text><text xml:space="preserve" font-family="AvenirNext-Medium" font-size="39.0" fill="#EAF1F0" transform="matrix(1.00, 0.00, -0.00, -1.00, 461.5, 11.0)">o</text><text xml:space="preserve" font-family="AvenirNext-Medium" font-size="39.0" fill="#EAF1F0" transform="matrix(1.00, 0.00, -0.00, -1.00, 485.3, 11.0)">g</text><text xml:space="preserve" font-family="AvenirNext-Medium" font-size="39.0" fill="#EAF1F0" transform="matrix(1.00, 0.00, -0.00, -1.00, 510.0, 11.0)">y</text><text xml:space="preserve" font-family="AvenirNext-Medium" font-size="39.0" fill="#EAF1F0" transform="matrix(1.00, 0.00, -0.00, -1.00, 529.6, 11.0)">?</text></g></svg>