<?xml version="1.0" encoding="UTF-8" standalone="no"?><svg xmlns="http://www.w3.org/2000/svg" xmlns:xlink="http://www.w3.org/1999/xlink" clip-rule="evenodd" stroke-miterlimit="4.00" viewBox="0 0 25 242"><desc>SVG generated by Keynote</desc><defs></defs><g transform="matrix(1.00, 0.00, -0.00, -1.00, 0.0, 242.0)"><text xml:space="preserve" font-family="AvenirNext-Medium" font-size="28.0" fill="#EAF1F0" transform="matrix(0.00, 1.00, 1.00, -0.00, 23.0, 1.0)">S</text><text xml:space="preserve" font-family="AvenirNext-Medium" font-size="28.0" fill="#EAF1F0" transform="matrix(0.00, 1.00, 1.00, -0.00, 23.0, 16.9)">E</text><text xml:space="preserve" font-family="AvenirNext-Medium" font-size="28.0" fill="#EAF1F0" transform="matrix(0.00, 1.00, 1.00, -0.00, 23.0, 33.8)">N</text><text xml:space="preserve" font-family="AvenirNext-Medium" font-size="28.0" fill="#EAF1F0" transform="matrix(0.00, 1.00, 1.00, -0.00, 23.0, 55.4)">S</text><text xml:space="preserve" font-family="AvenirNext-Medium" font-size="28.0" fill="#EAF1F0" transform="matrix(0.00, 1.00, 1.00, -0.00, 23.0, 71.3)">O</text><text xml:space="preserve" font-family="AvenirNext-Medium" font-size="28.0" fill="#EAF1F0" transform="matrix(0.00, 1.00, 1.00, -0.00, 23.0, 95.1)">R</text><text xml:space="preserve" font-family="AvenirNext-Medium" font-size="28.0" fill="#EAF1F0" transform="matrix(0.00, 1.00, 1.00, -0.00, 23.0, 112.1)">Y</text><text xml:space="preserve" font-family="AvenirNext-Medium" font-size="28.0" fill="#EAF1F0" transform="matrix(0.00, 1.00, 1.00, -0.00, 23.0, 127.0)">-</text><text xml:space="preserve" font-family="AvenirNext-Medium" font-size="28.0" fill="#EAF1F0" transform="matrix(0.00, 1.00, 1.00, -0.00, 23.0, 136.0)">M</text><text xml:space="preserve" font-family="AvenirNext-Medium" font-size="28.0" fill="#EAF1F0" transform="matrix(0.00, 1.00, 1.00, -0.00, 23.0, 161.3)">O</text><text xml:space="preserve" font-family="AvenirNext-Medium" font-size="28.0" fill="#EAF1F0" transform="matrix(0.00, 1.00, 1.00, -0.00, 23.0, 184.2)">T</text><text xml:space="preserve" font-family="AvenirNext-Medium" font-size="28.0" fill="#EAF1F0" transform="matrix(0.00, 1.00, 1.00, -0.00, 23.0, 199.3)">O</text><text xml:space="preserve" font-family="AvenirNext-Medium" font-size="28.0" fill="#EAF1F0" transform="matrix(0.00, 1.00, 1.00, -0.00, 23.0, 223.1)">R</text></g></svg>